{
.appVersion = "3182";
.formatVersion = 3;
classes = (
{
automatic = 1;
code = "a aacute acaron acircumflex adieresis agrave amacron aring atilde ae b c cacute ccaron ccedilla cdotaccent d eth e eacute ecaron ecircumflex edieresis edotaccent egrave emacron etilde schwa f g gdotaccent gmacron h hbar i idotless iacute icircumflex idieresis idotaccent igrave imacron itilde ij j jdotless jacute k l lslash m n nacute ncaron ntilde o oacute ocircumflex odieresis ograve omacron oslash otilde oe p thorn q r racute rcaron s sacute scaron scedilla germandbls t tcedilla u uacute ucircumflex udieresis ugrave umacron uring utilde v w wacute wcircumflex wdieresis wgrave x y yacute ycircumflex ydieresis ygrave ytilde z zacute zcaron zdotaccent saltillo v.ss01 w.ss01 y.ss01 z.ss01 a_s c_t f_b.liga f_f.liga f_f_b.liga f_f_h.liga f_f_i.liga f_f_j.liga f_f_k.liga f_f_l.liga f_f_r.liga f_f_t.liga f_h.liga f_i.liga f_j.liga f_k.liga f_l.liga f_r.liga f_t.liga g_y.liga i_s i_s_s r_y.liga t_t.liga t_y.liga";
name = Lowercase;
},
{
automatic = 1;
code = "A Aacute Acaron Acircumflex Adieresis Agrave Amacron Aring Atilde AE B C Cacute Ccaron Ccedilla Cdotaccent D Eth E Eacute Ecaron Ecircumflex Edieresis Edotaccent Egrave Emacron Etilde Schwa F G Gdotaccent Gmacron H Hbar I IJ Iacute Icircumflex Idieresis Idotaccent Igrave Imacron Itilde J Jacute K L Lslash M N Nacute Ncaron Ntilde O Oacute Ocircumflex Odieresis Ograve Omacron Oslash Otilde OE P Thorn Q R Racute Rcaron S Sacute Scaron Scedilla Germandbls T Tcedilla U Uacute Ucircumflex Udieresis Ugrave Umacron Uring Utilde V W Wacute Wcircumflex Wdieresis Wgrave X Y Yacute Ycircumflex Ydieresis Ygrave Ytilde Z Zacute Zcaron Zdotaccent Saltillo A.ss01 Aacute.ss01 Acircumflex.ss01 Adieresis.ss01 Agrave.ss01 G.ss01 J.ss01 M.ss01 N.ss01 Q.ss01 R.ss01 E_B.liga E_D.liga E_K.liga E_N.liga E_P.liga E_R.liga E_T.liga F_B.liga F_D.liga F_K.liga F_N.liga F_P.liga F_R.liga F_T F_T_T E_N.liga.ss01 E_R.liga.ss01 F_N.liga.ss01 F_R.liga.ss01";

glyphs = (
{
glyphname = A;
lastChange = "2023-03-26 15:48:02 +0000";
layers = (
{
anchors = (
{
name = top;
pos = (580,700);
}
);
layerId = m01;
shapes = (
{
attr = {
strokeWidth = 10;
};
closed = 0;
nodes = (
(-322,-189,l),
(-127,-276,l),
(589,715,l),
(413,-2,l)
);
},
{
attr = {
strokeWidth = 10;
};
closed = 0;
nodes = (
(269,-6,l),
(489,-3,l)
);
},
{
attr = {
strokeWidth = 10;
};
closed = 0;
nodes = (
(80,322,l),
(490,326,l)
);
}
);
width = 588;
}
);
unicode = 65;
},
{
glyphname = AE;
lastChange = "2023-03-26 15:48:02 +0000";
layers = (
{
anchors = (
{
name = top;
pos = (727,700);
}
);
layerId = m01;
shapes = (
{
attr = {
identifier = ID0x7fa23bff48b0;
strokeWidth = 10;
};
closed = 0;
nodes = (
(-322,-189,l),
(-127,-276,l),
(591,711,l)
);
},
{
attr = {
identifier = ID0x7fa2210f4cc0;
strokeWidth = 10;
};
closed = 0;
nodes = (
(477,712,l),
(958,703,l),
(877,548,l)
);
},
{
attr = {
identifier = ID0x7fa2210f4cc0;
strokeWidth = 10;
};
closed = 0;
nodes = (
(405,-8,l),
(593,713,l)
);
},
{
attr = {
identifier = ID0x7fa2210f4cc0;
strokeWidth = 10;
};
closed = 0;
nodes = (
(113,317,l),
(718,356,l)
);
},
{
attr = {
identifier = ID0x7fa2210f4cc0;
strokeWidth = 10;
};
closed = 0;
nodes = (
(264,-11,l),
(785,-7,l),
(767,134,l)
);
},
{
attr = {
identifier = ID0x7fa2210f4cc0;
strokeWidth = 10;
};
closed = 0;
nodes = (
(730,418,l),
(714,296,l)
);
}
);
width = 901;
}
);
metricLeft = A;
metricRight = E;
unicode = 198;
},
{
glyphname = B;
lastChange = "2023-03-26 15:48:02 +0000";
layers = (
{
layerId = m01;
shapes = (
{
attr = {
strokeWidth = 10;
};
closed = 0;
nodes = (
(127,573,l),
(102,697,l),
(325,700,l),
(596,505,l),
(223,348,l),
(589,173,l),
(263,-5,l),
(-43,-10,l)
);
},
{
attr = {
strokeWidth = 10;
};
closed = 0;
nodes = (
(325,700,l),
(103,-6,l)
);
}
);
width = 606;
}
);
unicode = 66;
},
{
glyphname = C;
lastChange = "2023-03-26 15:48:02 +0000";
layers = (
{
anchors = (
{
name = bottom;
pos = (209,-60);
},
{
name = top;
pos = (381,700);
}
);
layerId = m01;
shapes = (
{
attr = {
strokeWidth = 10;
};
closed = 0;
nodes = (
(556,525,l),
(354,716,l),
(56,343,l),
(213,-12,l),
(517,134,l)
);
}
);
width = 501;
}
);
unicode = 67;
},
{
glyphname = D;
lastChange = "2023-03-26 15:48:02 +0000";
layers = (
{
layerId = m01;
shapes = (
{
attr = {
strokeWidth = 10;
};
closed = 0;
nodes = (
(102,573,l),
(105,712,l),
(298,713,l),
(603,344,l),
(188,-8,l),
(-73,-11,l)
);
},
{
attr = {
strokeWidth = 10;
};
closed = 0;
nodes = (
(298,713,l),
(97,-7,l)
);
}
);
width = 630;
}
);
unicode = 68;
},
{
glyphname = Eth;
lastChange = "2023-03-26 15:48:02 +0000";
layers = (
{
layerId = m01;
shapes = (
{
ref = D;
},
{
attr = {
strokeWidth = 10;
};
closed = 0;
nodes = (
(78,364,l),
(341,351,l)
);
}
);
width = 630;
}
);
metricLeft = D;
metricRight = D;
unicode = 208;
},
{
glyphname = E;
lastChange = "2023-03-26 15:48:02 +0000";
layers = (
{
anchors = (
{
name = top;
pos = (389,700);
}
);
layerId = m01;
shapes = (
{
attr = {
strokeWidth = 10;
};
closed = 0;
nodes = (
(139,712,l),
(620,703,l),
(539,548,l)
);
},
{
attr = {
strokeWidth = 10;
};
closed = 0;
nodes = (
(67,-8,l),
(255,713,l)
);
},
{
attr = {
strokeWidth = 10;
};
closed = 0;
nodes = (
(158,357,l),
(390,357,l)
);
},
{
attr = {
strokeWidth = 10;
};
closed = 0;
nodes = (
(-74,-11,l),
(447,-10,l),
(429,134,l)
);
},
{
attr = {
strokeWidth = 10;
};
closed = 0;
nodes = (
(402,419,l),
(386,297,l)
);
}
);
width = 564;
}
);
unicode = 69;
},
{
glyphname = Schwa;
lastChange = "2023-03-26 15:48:02 +0000";
layers = (
{
layerId = m01;
shapes = (
{
attr = {
strokeWidth = 10;
};
closed = 0;
nodes = (
(113,534,l),
(395,717,l),
(501,312,l),
(124,-4,l),
(34,259,l),
(269,422,l),
(365,205,l)
);
}
);
width = 516;
}
);
metricLeft = O;
metricRight = O;
unicode = 399;
},
{
glyphname = F;
lastChange = "2023-03-26 15:48:02 +0000";
layers = (
{
layerId = m01;
shapes = (
{
attr = {
strokeWidth = 10;
};
closed = 0;
nodes = (
(140,712,l),
(621,703,l),
(480,498,l)
);
},
{
attr = {
strokeWidth = 10;
};
closed = 0;
nodes = (
(98,-8,l),
(256,713,l)
);
},
{
attr = {
strokeWidth = 10;
};
closed = 0;
nodes = (
(168,317,l),
(420,317,l)
);
},
{
attr = {
strokeWidth = 10;
};
closed = 0;
nodes = (
(-43,-11,l),
(274,-7,l)
);
},
{
attr = {
strokeWidth = 10;
};
closed = 0;
nodes = (
(432,389,l),
(416,267,l)
);
}
);
width = 527;
}
);
unicode = 70;
},
{
glyphname = G;
lastChange = "2023-03-26 15:48:02 +0000";
layers = (
{
anchors = (
{
name = bottom;
pos = (200,0);
},
{
name = top;
pos = (411,700);
}
);
layerId = m01;
shapes = (
{
attr = {
strokeWidth = 10;
};
closed = 0;
nodes = (
(526,452,l),
(576,609,l),
(388,721,l),
(72,363,l),
(202,-7,l),
(563,296,l)
);
},
{
attr = {
strokeWidth = 10;
};
closed = 0;
nodes = (
(354,308,l),
(563,296,l),
(274,-400,l),
(183,-247,l)
);
}
);
width = 586;
}
);
unicode = 71;
},
{
glyphname = H;
lastChange = "2023-03-26 15:48:02 +0000";
layers = (
{
anchors = (
{
name = top;
pos = (456,700);
}
);
layerId = m01;
shapes = (
{
attr = {
strokeWidth = 10;
};
closed = 0;
nodes = (
(140,713,l),
(313,714,l)
);
},
{
attr = {
strokeWidth = 10;
};
closed = 0;
nodes = (
(228,713,l),
(80,-9,l)
);
},
{
attr = {
strokeWidth = 10;
};
closed = 0;
nodes = (
(-11,-3,l),
(196,-10,l)
);
},
{
attr = {
strokeWidth = 10;
};
closed = 0;
nodes = (
(153,340,l),
(585,320,l)
);
},
{
attr = {
strokeWidth = 10;
};
closed = 0;
nodes = (
(422,-9,l),
(641,-11,l)
);
},
{
attr = {
strokeWidth = 10;
};
closed = 0;
nodes = (
(532,-6,l),
(635,635,l),
(812,837,l)
);
}
);
width = 692;
}
);
unicode = 72;
},
{
glyphname = Hbar;
lastChange = "2023-03-26 15:48:02 +0000";
layers = (
{
layerId = m01;
shapes = (
{
ref = H;
},
{
attr = {
strokeWidth = 10;
};
closed = 0;
nodes = (
(99,538,l),
(703,508,l)
);
}
);
width = 692;
}
);
metricLeft = H;
metricRight = H;
unicode = 294;
},
{
glyphname = I;
lastChange = "2023-03-26 15:48:02 +0000";
layers = (
{
anchors = (
{
name = top;
pos = (220,700);
}
);
layerId = m01;
shapes = (
{
attr = {
strokeWidth = 10;
};
closed = 0;
nodes = (
(125,713,l),
(326,714,l)
);
},
{
attr = {
strokeWidth = 10;
};
closed = 0;
nodes = (
(241,713,l),
(113,-9,l)
);
},
{
attr = {
strokeWidth = 10;
};
closed = 0;
nodes = (
(22,-3,l),
(229,-10,l)
);
}
);
width = 305;
}
);
unicode = 73;
},
{
glyphname = J;
lastChange = "2023-03-26 15:48:02 +0000";
layers = (
{
anchors = (
{
name = top;
pos = (298,700);
}
);
layerId = m01;
shapes = (
{
attr = {
strokeWidth = 10;
};
closed = 0;
nodes = (
(149,554,l),
(109,703,l),
(377,702,l),
(66,-423,l),
(-57,-160,l)
);
},
{
attr = {
strokeWidth = 10;
};
closed = 0;
nodes = (
(98,329,l),
(426,336,l)
);
}
);
width = 439;
}
);
unicode = 74;
},
{
glyphname = K;
lastChange = "2023-03-26 15:48:02 +0000";
layers = (
{
anchors = (
{
name = bottom;
pos = (320,0);
}
);
layerId = m01;
shapes = (
{
attr = {
strokeWidth = 10;
};
closed = 0;
nodes = (
(95,604,l),
(91,715,l),
(339,716,l),
(127,-4,l)
);
},
{
attr = {
strokeWidth = 10;
};
closed = 0;
nodes = (
(6,-7,l),
(206,-8,l)
);
},
{
attr = {
strokeWidth = 10;
};
closed = 0;
nodes = (
(631,705,l),
(197,284,l),
(225,480,l),
(517,-11,l),
(658,-11,l)
);
},
{
attr = {
strokeWidth = 10;
};
closed = 0;
nodes = (
(514,707,l),
(708,701,l)
);
}
);
width = 633;
}
);
unicode = 75;
},
{
glyphname = L;
lastChange = "2023-03-26 15:48:02 +0000";
layers = (
{
anchors = (
{
name = bottom;
pos = (260,0);
},
{
name = top;
pos = (340,700);
}
);
layerId = m01;
shapes = (
{
attr = {
strokeWidth = 10;
};
closed = 0;
nodes = (
(491,143,l),
(523,-11,l),
(31,-11,l)
);
},
{
attr = {
strokeWidth = 10;
};
closed = 0;
nodes = (
(108,-7,l),
(290,706,l)
);
},
{
attr = {
strokeWidth = 10;
};
closed = 0;
nodes = (
(436,713,l),
(149,707,l)
);
}
);
width = 552;
}
);
unicode = 76;
},
{
glyphname = Lslash;
lastChange = "2023-03-26 15:48:02 +0000";
layers = (
{
layerId = m01;
shapes = (
{
ref = L;
},
{
attr = {
strokeWidth = 10;
};
closed = 0;
nodes = (
(31,142,l),
(485,529,l)
);
}
);
width = 552;
}
);
unicode = 321;
},
{
glyphname = M;
lastChange = "2023-03-26 15:48:02 +0000";
layers = (
{
layerId = m01;
shapes = (
{
attr = {
strokeWidth = 10;
};
closed = 0;
nodes = (
(-334,-234,l),
(-153,-330,l),
(415,710,l),
(383,3,l),
(769,697,l),
(927,709,l)
);
},
{
attr = {
strokeWidth = 10;
};
closed = 0;
nodes = (
(769,697,l),
(719,-9,l)
);
},
{
attr = {
strokeWidth = 10;
};
closed = 0;
nodes = (
(590,-4,l),
(831,-11,l)
);
},
{
attr = {
strokeWidth = 10;
};
closed = 0;
nodes = (
(240,568,l),
(134,708,l),
(415,710,l)
);
}
);
width = 882;
}
);
unicode = 77;
},
{
glyphname = N;
lastChange = "2023-03-26 15:48:02 +0000";
layers = (
{
anchors = (
{
name = bottom;
pos = (390,0);
},
{
name = top;
pos = (498,700);
}
);
layerId = m01;
shapes = (
{
attr = {
strokeWidth = 10;
};
closed = 0;
nodes = (
(29,-5,l),
(219,-3,l)
);
},
{
attr = {
strokeWidth = 10;
};
closed = 0;
nodes = (
(317,715,l),
(132,0,l)
);
},
{
attr = {
strokeWidth = 10;
};
closed = 0;
nodes = (
(137,569,l),
(97,721,l),
(317,715,l),
(816,-209,l),
(996,-210,l)
);
},
{
attr = {
strokeWidth = 10;
};
closed = 0;
nodes = (
(780,700,l),
(658,88,l)
);
},
{
attr = {
strokeWidth = 10;
};
closed = 0;
nodes = (
(663,699,l),
(853,701,l)
);
}
);
width = 836;
}
);
unicode = 78;
},
{
glyphname = O;
lastChange = "2023-03-26 15:48:02 +0000";
layers = (
{
anchors = (
{
name = top;
pos = (452,700);
}
);
layerId = m01;
shapes = (
{
attr = {
strokeWidth = 10;
};
closed = 1;
nodes = (
(56,341,l),
(467,709,l),
(627,325,l),
(220,-22,l)
);
}
);
width = 638;
}
);
unicode = 79;
},
{
glyphname = Oslash;
lastChange = "2023-03-26 15:48:02 +0000";
layers = (
{
layerId = m01;
shapes = (
{
ref = O;
},
{
attr = {
strokeWidth = 10;
};
closed = 0;
nodes = (
(-9,-4,l),
(693,686,l)
);
}
);
width = 638;
}
);
unicode = 216;
},
{
glyphname = OE;
lastChange = "2023-03-26 15:48:02 +0000";
layers = (
{
anchors = (
{
name = top;
pos = (452,700);
}
);
layerId = m01;
shapes = (
{
attr = {
identifier = ID0x7fa238cb90c0;
strokeWidth = 10;
};
closed = 0;
nodes = (
(246,-14,l),
(56,341,l),
(462,713,l)
);
},
{
pos = (317,0);
ref = E;
}
);
width = 881;
}
);
metricLeft = O;
metricRight = E;
unicode = 338;
},
{
glyphname = P;
lastChange = "2023-03-26 15:48:02 +0000";
layers = (
{
layerId = m01;
shapes = (
{
attr = {
identifier = 0x6000107c5980;
strokeWidth = 10;
};
closed = 0;
nodes = (
(107,573,l),
(82,697,l),
(295,700,l),
(602,457,l),
(169,185,l)
);
},
{
attr = {
identifier = 0x6000107c5980;
strokeWidth = 10;
};
closed = 0;
nodes = (
(295,700,l),
(121,0,l)
);
},
{
attr = {
identifier = 0x6000107c5980;
strokeWidth = 10;
};
closed = 0;
nodes = (
(293,-5,l),
(-13,-10,l)
);
}
);
width = 603;
}
);
unicode = 80;
},
{
glyphname = Thorn;
lastChange = "2023-03-26 15:48:02 +0000";
layers = (
{
layerId = m01;
shapes = (
{
attr = {
strokeWidth = 10;
};
closed = 0;
nodes = (
(-90,-6,l),
(111,-5,l)
);
},
{
attr = {
strokeWidth = 10;
};
closed = 0;
nodes = (
(10,-3,l),
(190,707,l)
);
},
{
attr = {
strokeWidth = 10;
};
closed = 0;
nodes = (
(79,707,l),
(288,709,l)
);
},
{
attr = {
strokeWidth = 10;
};
closed = 0;
nodes = (
(145,528,l),
(359,314,l),
(55,173,l)
);
}
);
width = 396;
}
);
metricLeft = P;
unicode = 222;
},
{
glyphname = Q;
lastChange = "2023-03-26 15:48:02 +0000";
layers = (
{
layerId = m01;
shapes = (
{
attr = {
strokeWidth = 10;
};
closed = 0;
nodes = (
(669,-104,l),
(472,-202,l),
(136,102,l),
(-76,-56,l),
(126,-155,l),
(704,449,l),
(487,766,l),
(96,494,l),
(274,186,l),
(468,405,l),
(374,490,l)
);
}
);
width = 725;
}
);
unicode = 81;
},
{
glyphname = R;
lastChange = "2023-03-26 15:48:02 +0000";
layers = (
{
anchors = (
{
name = bottom;
pos = (320,0);
},
{
name = top;
pos = (419,700);
}
);
layerId = m01;
shapes = (
{
attr = {
identifier = 0x600015d6adc0;
strokeWidth = 10;
};
closed = 0;
nodes = (
(86,553,l),
(61,677,l),
(299,700,l),
(653,524,l),
(198,293,l)
);
},
{
attr = {
identifier = 0x600015d6adc0;
strokeWidth = 10;
};
closed = 0;
nodes = (
(299,700,l),
(125,0,l)
);
},
{
attr = {
identifier = 0x600015d6adc0;
strokeWidth = 10;
};
closed = 0;
nodes = (
(237,-5,l),
(-9,-4,l)
);
},
{
attr = {
strokeWidth = 10;
};
closed = 0;
nodes = (
(316,354,l),
(584,-162,l),
(768,-181,l)
);
}
);
width = 616;
}
);
unicode = 82;
},
{
glyphname = S;
lastChange = "2023-03-26 15:48:02 +0000";
layers = (
{
anchors = (
{
name = bottom;
pos = (260,-56);
},
{
name = top;
pos = (389,700);
}
);
layerId = m01;
shapes = (
{
attr = {
strokeWidth = 10;
};
closed = 0;
nodes = (
(526,453,l),
(528,614,l),
(345,722,l),
(144,521,l),
(503,170,l),
(265,-10,l),
(42,162,l),
(89,304,l)
);
}
);
width = 577;
}
);
unicode = 83;
},
{
glyphname = Germandbls;
lastChange = "2023-03-26 15:48:02 +0000";
layers = (
{
layerId = m01;
shapes = (
{
attr = {
strokeWidth = 10;
};
closed = 0;
nodes = (
(24,-4,l),
(243,704,l),
(627,713,l),
(304,463,l),
(568,319,l),
(184,-10,l)
);
},
{
attr = {
strokeWidth = 10;
};
closed = 0;
nodes = (
(-72,-6,l),
(105,-3,l)
);
}
);
width = 543;
}
);
metricLeft = E;
metricRight = B;
unicode = 7838;
},
{
glyphname = T;
lastChange = "2023-03-26 15:48:02 +0000";
layers = (
{
anchors = (
{
name = bottom;
pos = (290,-54);
}
);
layerId = m01;
shapes = (
{
attr = {
identifier = 0x6000107e9ce0;
strokeWidth = 10;
};
closed = 0;
nodes = (
(679,498,l),
(810,703,l),
(109,719,l),
(187,513,l)
);
},
{
attr = {
identifier = 0x6000107e9ce0;
strokeWidth = 10;
};
closed = 0;
nodes = (
(297,0,l),
(455,713,l)
);
},
{
attr = {
identifier = 0x6000107e9ce0;
strokeWidth = 10;
};
closed = 0;
nodes = (
(136,-1,l),
(463,-7,l)
);
}
);
width = 726;
}
);
unicode = 84;
},
{
glyphname = U;
lastChange = "2023-03-26 15:48:02 +0000";
layers = (
{
anchors = (
{
name = top;
pos = (412,700);
}
);
layerId = m01;
shapes = (
{
attr = {
strokeWidth = 10;
};
closed = 0;
nodes = (
(225,716,l),
(88,195,l),
(214,-10,l),
(477,108,l),
(618,712,l)
);
},
{
attr = {
strokeWidth = 10;
};
closed = 0;
nodes = (
(126,715,l),
(344,710,l)
);
},
{
attr = {
strokeWidth = 10;
};
closed = 0;
nodes = (
(506,715,l),
(724,710,l)
);
}
);
width = 637;
}
);
unicode = 85;
},
{
glyphname = V;
lastChange = "2023-03-26 15:48:02 +0000";
layers = (
{
layerId = m01;
shapes = (
{
attr = {
strokeWidth = 10;
};
closed = 0;
nodes = (
(161,509,l),
(99,720,l),
(365,715,l),
(231,-9,l),
(759,697,l)
);
}
);
width = 679;
}
);
unicode = 86;
},
{
glyphname = W;
lastChange = "2023-03-26 15:48:02 +0000";
layers = (
{
anchors = (
{
name = top;
pos = (718,700);
}
);
layerId = m01;
shapes = (
{
attr = {
strokeWidth = 10;
};
closed = 0;
nodes = (
(169,528,l),
(95,721,l),
(426,709,l),
(195,-5,l),
(715,702,l),
(618,-19,l),
(1062,707,l)
);
}
);
width = 984;
}
);
unicode = 87;
},
{
glyphname = X;
lastChange = "2023-03-26 15:48:02 +0000";
layers = (
{
layerId = m01;
shapes = (
{
attr = {
strokeWidth = 10;
};
closed = 0;
nodes = (
(192,712,l),
(511,1,l)
);
},
{
attr = {
strokeWidth = 10;
};
closed = 0;
nodes = (
(22,-10,l),
(628,709,l)
);
},
{
attr = {
strokeWidth = 10;
};
closed = 0;
nodes = (
(100,712,l),
(307,708,l)
);
},
{
attr = {
strokeWidth = 10;
};
closed = 0;
nodes = (
(408,0,l),
(595,-5,l)
);
},
{
attr = {
strokeWidth = 10;
};
closed = 0;
nodes = (
(539,710,l),
(693,709,l)
);
},
{
attr = {
strokeWidth = 10;
};
closed = 0;
nodes = (
(-90,-10,l),
(144,-14,l)
);
}
);
width = 603;
}
);
unicode = 88;
},
{
glyphname = Y;
lastChange = "2023-03-26 15:48:02 +0000";
layers = (
{
anchors = (
{
name = top;
pos = (358,700);
}
);
layerId = m01;
shapes = (
{
attr = {
strokeWidth = 10;
};
closed = 0;
nodes = (
(75,532,l),
(186,716,l),
(294,352,l),
(246,0,l)
);
},
{
attr = {
strokeWidth = 10;
};
closed = 0;
nodes = (
(584,553,l),
(537,721,l),
(294,352,l)
);
},
{
attr = {
strokeWidth = 10;
};
closed = 0;
nodes = (
(119,-4,l),
(373,-3,l)
);
}
);
width = 538;
}
);
unicode = 89;
},
{
glyphname = Z;
lastChange = "2023-03-26 15:48:02 +0000";
layers = (
{
anchors = (
{
name = top;
pos = (389,700);
}
);
layerId = m01;
shapes = (
{
attr = {
strokeWidth = 10;
};
closed = 0;
nodes = (
(203,515,l),
(177,715,l),
(638,719,l),
(-11,-6,l),
(521,0,l),
(471,196,l)
);
}
);
width = 584;
}
);
unicode = 90;
},
{
glyphname = Saltillo;
lastChange = "2023-03-26 15:48:02 +0000";
layers = (
{
layerId = m01;
shapes = (
{
attr = {
strokeWidth = 10;
};
closed = 0;
nodes = (
(183,709,l),
(106,414,l)
);
}
);
width = 122;
}
);
unicode = 42891;
},
{
glyphname = A.ss01;
lastChange = "2023-03-26 15:48:02 +0000";
layers = (
{
anchors = (
{
name = top;
pos = (432,700);
}
);
layerId = m01;
shapes = (
{
attr = {
strokeWidth = 10;
};
closed = 0;
nodes = (
(-33,-7,l),
(451,715,l),
(413,-2,l)
);
},
{
attr = {
strokeWidth = 10;
};
closed = 0;
nodes = (
(298,-6,l),
(518,-3,l)
);
},
{
attr = {
strokeWidth = 10;
};
closed = 0;
nodes = (
(186,322,l),
(434,326,l)
);
},
{
attr = {
strokeWidth = 10;
};
closed = 0;
nodes = (
(-132,-6,l),
(88,-3,l)
);
}
);
width = 552;
}
);
},
{
glyphname = G.ss01;
lastChange = "2023-03-26 15:48:02 +0000";
layers = (
{
layerId = m01;
shapes = (
{
attr = {
strokeWidth = 10;
};
closed = 0;
nodes = (
(526,452,l),
(576,609,l),
(388,721,l),
(72,363,l),
(202,-7,l),
(563,296,l)
);
},
{
attr = {
strokeWidth = 10;
};
closed = 0;
nodes = (
(354,308,l),
(563,296,l),
(480,0,l)
);
}
);
width = 586;
}
);
},
{
glyphname = J.ss01;
lastChange = "2023-03-26 15:48:02 +0000";
layers = (
{
layerId = m01;
shapes = (
{
attr = {
strokeWidth = 10;
};
closed = 0;
nodes = (
(377,718,l),
(181,0,l),
(-57,-160,l)
);
},
{
attr = {
strokeWidth = 10;
};
closed = 0;
nodes = (
(198,712,l),
(496,719,l)
);
}
);
width = 439;
}
);
},
{
glyphname = M.ss01;
lastChange = "2023-03-26 15:48:02 +0000";
layers = (
{
layerId = m01;
shapes = (
{
attr = {
strokeWidth = 10;
};
closed = 0;
nodes = (
(3,-4,l),
(393,710,l),
(361,3,l),
(747,697,l),
(905,709,l)
);
},
{
attr = {
strokeWidth = 10;
};
closed = 0;
nodes = (
(747,697,l),
(697,-9,l)
);
},
{
attr = {
strokeWidth = 10;
};
closed = 0;
nodes = (
(568,-4,l),
(809,-11,l)
);
},
{
attr = {
strokeWidth = 10;
};
closed = 0;
nodes = (
(218,568,l),
(112,708,l),
(393,710,l)
);
},
{
attr = {
strokeWidth = 10;
};
closed = 0;
nodes = (
(-112,-4,l),
(129,-11,l)
);
}
);
width = 860;
}
);
},
{
glyphname = N.ss01;
lastChange = "2023-03-26 15:48:02 +0000";
layers = (
{
layerId = m01;
shapes = (
{
attr = {
strokeWidth = 10;
};
closed = 0;
nodes = (
(32,-5,l),
(243,-3,l)
);
},
{
attr = {
strokeWidth = 10;
};
closed = 0;
nodes = (
(320,715,l),
(135,0,l)
);
},
{
attr = {
strokeWidth = 10;
};
closed = 0;
nodes = (
(140,569,l),
(100,721,l),
(320,715,l),
(637,0,l),
(783,700,l)
);
},
{
attr = {
strokeWidth = 10;
};
closed = 0;
nodes = (
(646,699,l),
(876,703,l)
);
}
);
width = 761;
}
);
},
{
glyphname = Q.ss01;
lastChange = "2023-03-26 15:48:02 +0000";
layers = (
{
anchors = (
{
name = top;
pos = (452,700);
}
);
layerId = m01;
shapes = (
{
attr = {
identifier = 0x60000aec3c60;
strokeWidth = 10;
};
closed = 0;
nodes = (
(181,65,l),
(56,341,l),
(467,709,l),
(627,325,l),
(-18,-168,l)
);
},
{
attr = {
strokeWidth = 10;
};
closed = 0;
nodes = (
(507,-282,l),
(137,-50,l)
);
}
);
width = 636;
}
);
},
{
glyphname = R.ss01;
lastChange = "2023-03-26 15:48:02 +0000";
layers = (
{
layerId = m01;
shapes = (
{
attr = {
identifier = 0x600015d6adc0;
strokeWidth = 10;
};
closed = 0;
nodes = (
(154,552,l),
(129,703,l),
(299,700,l),
(653,524,l),
(198,293,l)
);
},
{
attr = {
identifier = 0x600015d6adc0;
strokeWidth = 10;
};
closed = 0;
nodes = (
(299,700,l),
(125,0,l)
);
},
{
attr = {
identifier = 0x600015d6adc0;
strokeWidth = 10;
};
closed = 0;
nodes = (
(237,-5,l),
(-9,-4,l)
);
},
{
attr = {
strokeWidth = 10;
};
closed = 0;
nodes = (
(316,354,l),
(548,-6,l)
);
}
);
width = 595;
}
);
},
{
glyphname = E_B.liga;
lastChange = "2023-03-26 15:48:02 +0000";
layers = (
{
anchors = (
{
name = top;
pos = (389,700);
}
);
layerId = m01;
shapes = (
{
attr = {
identifier = 0x60000824bf60;
strokeWidth = 10;
};
closed = 0;
nodes = (
(139,712,l),
(879,700,l),
(1150,505,l),
(772,348,l),
(1143,173,l),
(817,-5,l),
(511,-10,l)
);
},
{
attr = {
identifier = 0x60000824bf60;
strokeWidth = 10;
};
closed = 0;
nodes = (
(67,-8,l),
(255,713,l)
);
},
{
attr = {
identifier = 0x60000824bf60;
strokeWidth = 10;
};
closed = 0;
nodes = (
(158,357,l),
(390,357,l)
);
},
{
attr = {
identifier = 0x60000824bf60;
strokeWidth = 10;
};
closed = 0;
nodes = (
(-74,-11,l),
(447,-7,l),
(429,134,l)
);
},
{
attr = {
identifier = 0x60000824bf60;
strokeWidth = 10;
};
closed = 0;
nodes = (
(402,419,l),
(386,297,l)
);
},
{
attr = {
identifier = 0x600008245740;
strokeWidth = 10;
};
closed = 0;
nodes = (
(879,700,l),
(665,0,l)
);
}
);
width = 1160;
}
);
metricLeft = E;
metricRight = B;
},
{
glyphname = E_D.liga;
lastChange = "2023-03-26 15:48:02 +0000";
layers = (
{
anchors = (
{
name = top;
pos = (389,700);
}
);
layerId = m01;
shapes = (
{
attr = {
identifier = 0x600008277ab0;
strokeWidth = 10;
};
closed = 0;
nodes = (
(139,712,l),
(852,713,l),
(1157,344,l),
(742,-8,l),
(481,-11,l)
);
},
{
attr = {
identifier = 0x600008277ab0;
strokeWidth = 10;
};
closed = 0;
nodes = (
(67,-8,l),
(255,713,l)
);
},
{
attr = {
identifier = 0x600008277ab0;
strokeWidth = 10;
};
closed = 0;
nodes = (
(158,357,l),
(390,357,l)
);
},
{
attr = {
identifier = 0x600008277ab0;
strokeWidth = 10;
};
closed = 0;
nodes = (
(-74,-11,l),
(447,-7,l),
(429,134,l)
);
},
{
attr = {
identifier = 0x600008277ab0;
strokeWidth = 10;
};
closed = 0;
nodes = (
(402,419,l),
(386,297,l)
);
},
{
attr = {
identifier = 0x60000827ed90;
strokeWidth = 10;
};
closed = 0;
nodes = (
(852,713,l),
(651,-7,l)
);
}
);
width = 1184;
}
);
metricLeft = E;
metricRight = D;
},
{
glyphname = E_K.liga;
lastChange = "2023-03-26 15:48:02 +0000";
layers = (
{
anchors = (
{
name = top;
pos = (389,700);
}
);
layerId = m01;
shapes = (
{
attr = {
identifier = 0x60000827d0e0;
strokeWidth = 10;
};
closed = 0;
nodes = (
(139,712,l),
(893,716,l),
(681,-4,l)
);
},
{
attr = {
identifier = 0x60000827d0e0;
strokeWidth = 10;
};
closed = 0;
nodes = (
(67,-8,l),
(255,713,l)
);
},
{
attr = {
identifier = 0x60000827d0e0;
strokeWidth = 10;
};
closed = 0;
nodes = (
(158,357,l),
(390,357,l)
);
},
{
attr = {
identifier = 0x60000827d0e0;
strokeWidth = 10;
};
closed = 0;
nodes = (
(-74,-11,l),
(447,-7,l),
(429,134,l)
);
},
{
attr = {
identifier = 0x60000827d0e0;
strokeWidth = 10;
};
closed = 0;
nodes = (
(402,419,l),
(386,297,l)
);
},
{
attr = {
identifier = 0x60000824b420;
strokeWidth = 10;
};
closed = 0;
nodes = (
(560,-7,l),
(760,-8,l)
);
},
{
attr = {
identifier = 0x60000824b420;
strokeWidth = 10;
};
closed = 0;
nodes = (
(1185,705,l),
(751,284,l),
(779,480,l),
(1071,-11,l),
(1212,-11,l)
);
},
{
attr = {
identifier = 0x60000824b420;
strokeWidth = 10;
};
closed = 0;
nodes = (
(1068,707,l),
(1262,701,l)
);
}
);
width = 1187;
}
);
metricLeft = E;
metricRight = K;
},
{
glyphname = E_N.liga;
lastChange = "2023-03-26 15:48:02 +0000";
layers = (
{
anchors = (
{
name = top;
pos = (389,700);
}
);
layerId = m01;
shapes = (
{
attr = {
identifier = 0x60000826be10;
strokeWidth = 10;
};
closed = 0;
nodes = (
(139,712,l),
(871,715,l),
(1370,-209,l),
(1550,-210,l)
);
},
{
attr = {
identifier = 0x60000826be10;
strokeWidth = 10;
};
closed = 0;
nodes = (
(67,-8,l),
(255,713,l)
);
},
{
attr = {
identifier = 0x60000826be10;
strokeWidth = 10;
};
closed = 0;
nodes = (
(158,357,l),
(390,357,l)
);
},
{
attr = {
identifier = 0x60000826be10;
strokeWidth = 10;
};
closed = 0;
nodes = (
(-74,-11,l),
(447,-7,l),
(429,134,l)
);
},
{
attr = {
identifier = 0x60000826be10;
strokeWidth = 10;
};
closed = 0;
nodes = (
(402,419,l),
(386,297,l)
);
},
{
attr = {
identifier = 0x60000827e5e0;
strokeWidth = 10;
};
closed = 0;
nodes = (
(583,-5,l),
(773,-3,l)
);
},
{
attr = {
identifier = 0x60000827e5e0;
strokeWidth = 10;
};
closed = 0;
nodes = (
(871,715,l),
(686,0,l)
);
},
{
attr = {
identifier = 0x60000827e5e0;
strokeWidth = 10;
};
closed = 0;
nodes = (
(1334,700,l),
(1212,88,l)
);
},
{
attr = {
identifier = 0x60000827e5e0;
strokeWidth = 10;
};
closed = 0;
nodes = (
(1217,699,l),
(1407,701,l)
);
}
);
width = 1390;
}
);
metricLeft = E;
metricRight = N;
},
{
glyphname = E_P.liga;
lastChange = "2023-03-26 15:48:02 +0000";
layers = (
{
anchors = (
{
name = top;
pos = (389,700);
}
);
layerId = m01;
shapes = (
{
attr = {
identifier = 0x600005b42520;
strokeWidth = 10;
};
closed = 0;
nodes = (
(139,712,l),
(849,700,l),
(1156,457,l),
(723,185,l)
);
},
{
attr = {
identifier = 0x600005b42520;
strokeWidth = 10;
};
closed = 0;
nodes = (
(67,-8,l),
(255,713,l)
);
},
{
attr = {
identifier = 0x600005b42520;
strokeWidth = 10;
};
closed = 0;
nodes = (
(158,357,l),
(390,357,l)
);
},
{
attr = {
identifier = 0x600005b42520;
strokeWidth = 10;
};
closed = 0;
nodes = (
(-74,-11,l),
(447,-7,l),
(429,134,l)
);
},
{
attr = {
identifier = 0x600005b42520;
strokeWidth = 10;
};
closed = 0;
nodes = (
(402,419,l),
(386,297,l)
);
},
{
attr = {
identifier = 0x6000082fc840;
strokeWidth = 10;
};
closed = 0;
nodes = (
(849,700,l),
(675,0,l)
);
},
{
attr = {
identifier = 0x6000082fc840;
strokeWidth = 10;
};
closed = 0;
nodes = (
(847,-5,l),
(541,-10,l)
);
}
);
width = 1157;
}
);
metricLeft = E;
metricRight = P;
},
{
glyphname = E_R.liga;
lastChange = "2023-03-26 15:48:02 +0000";
layers = (
{
anchors = (
{
name = top;
pos = (389,700);
}
);
layerId = m01;
shapes = (
{
attr = {
identifier = 0x60000826f8a0;
strokeWidth = 10;
};
closed = 0;
nodes = (
(139,712,l),
(853,700,l),
(1207,524,l),
(752,293,l)
);
},
{
attr = {
identifier = 0x60000826f8a0;
strokeWidth = 10;
};
closed = 0;
nodes = (
(67,-8,l),
(255,713,l)
);
},
{
attr = {
identifier = 0x60000826f8a0;
strokeWidth = 10;
};
closed = 0;
nodes = (
(158,357,l),
(390,357,l)
);
},
{
attr = {
identifier = 0x60000826f8a0;
strokeWidth = 10;
};
closed = 0;
nodes = (
(-74,-11,l),
(447,-7,l),
(429,134,l)
);
},
{
attr = {
identifier = 0x60000826f8a0;
strokeWidth = 10;
};
closed = 0;
nodes = (
(402,419,l),
(386,297,l)
);
},
{
attr = {
identifier = 0x600008251710;
strokeWidth = 10;
};
closed = 0;
nodes = (
(853,700,l),
(679,0,l)
);
},
{
attr = {
identifier = 0x600008251710;
strokeWidth = 10;
};
closed = 0;
nodes = (
(791,-5,l),
(545,-4,l)
);
},
{
attr = {
identifier = 0x600008251710;
strokeWidth = 10;
};
closed = 0;
nodes = (
(870,354,l),
(1138,-162,l),
(1370,-253,l)
);
}
);
width = 1237;
}
);
metricLeft = E;
metricRight = R;
},
{
glyphname = E_T.liga;
lastChange = "2023-03-26 15:48:02 +0000";
layers = (
{
anchors = (
{
name = top;
pos = (389,700);
}
);
layerId = m01;
shapes = (
{
attr = {
identifier = 0x600008269f50;
strokeWidth = 10;
};
closed = 0;
nodes = (
(139,712,l),
(1324,706,l),
(1193,501,l)
);
},
{
attr = {
identifier = 0x600008269f50;
strokeWidth = 10;
};
closed = 0;
nodes = (
(67,-8,l),
(255,713,l)
);
},
{
attr = {
identifier = 0x600008269f50;
strokeWidth = 10;
};
closed = 0;
nodes = (
(158,357,l),
(390,357,l)
);
},
{
attr = {
identifier = 0x600008269f50;
strokeWidth = 10;
};
closed = 0;
nodes = (
(-74,-11,l),
(447,-7,l),
(429,134,l)
);
},
{
attr = {
identifier = 0x600008269f50;
strokeWidth = 10;
};
closed = 0;
nodes = (
(402,419,l),
(386,297,l)
);
},
{
attr = {
identifier = 0x60000820bba0;
strokeWidth = 10;
};
closed = 0;
nodes = (
(811,0,l),
(969,713,l)
);
},
{
attr = {
identifier = 0x60000820bba0;
strokeWidth = 10;
};
closed = 0;
nodes = (
(650,-1,l),
(977,-7,l)
);
}
);
width = 1239;
}
);
metricLeft = E;
metricRight = T;
},
{
glyphname = F_B.liga;
lastChange = "2023-03-26 15:48:02 +0000";
layers = (
{
layerId = m01;
shapes = (
{
attr = {
identifier = 0x600008276bb0;
strokeWidth = 10;
};
closed = 0;
nodes = (
(140,712,l),
(842,700,l),
(1113,505,l),
(735,348,l),
(1106,173,l),
(780,-5,l),
(474,-10,l)
);
},
{
attr = {
identifier = 0x600008276bb0;
strokeWidth = 10;
};
closed = 0;
nodes = (
(98,-8,l),
(256,713,l)
);
},
{
attr = {
identifier = 0x600008276bb0;
strokeWidth = 10;
};
closed = 0;
nodes = (
(168,317,l),
(420,317,l)
);
},
{
attr = {
identifier = 0x600008276bb0;
strokeWidth = 10;
};
closed = 0;
nodes = (
(-43,-11,l),
(274,-7,l)
);
},
{
attr = {
identifier = 0x600008276bb0;
strokeWidth = 10;
};
closed = 0;
nodes = (
(432,389,l),
(416,267,l)
);
},
{
attr = {
identifier = 0x600004250ff0;
strokeWidth = 10;
};
closed = 0;
nodes = (
(842,700,l),
(628,0,l)
);
}
);
width = 1123;
}
);
metricLeft = F;
metricRight = B;
},
{
glyphname = F_D.liga;
lastChange = "2023-03-26 15:48:02 +0000";
layers = (
{
layerId = m01;
shapes = (
{
attr = {
identifier = 0x600008277c30;
strokeWidth = 10;
};
closed = 0;
nodes = (
(140,712,l),
(815,713,l),
(1120,344,l),
(705,-8,l),
(444,-11,l)
);
},
{
attr = {
identifier = 0x600008277c30;
strokeWidth = 10;
};
closed = 0;
nodes = (
(98,-8,l),
(256,713,l)
);
},
{
attr = {
identifier = 0x600008277c30;
strokeWidth = 10;
};
closed = 0;
nodes = (
(168,317,l),
(420,317,l)
);
},
{
attr = {
identifier = 0x600008277c30;
strokeWidth = 10;
};
closed = 0;
nodes = (
(-43,-11,l),
(274,-7,l)
);
},
{
attr = {
identifier = 0x600008277c30;
strokeWidth = 10;
};
closed = 0;
nodes = (
(432,389,l),
(416,267,l)
);
},
{
attr = {
identifier = 0x600005be7900;
strokeWidth = 10;
};
closed = 0;
nodes = (
(815,713,l),
(614,-7,l)
);
}
);
width = 1147;
}
);
metricLeft = F;
metricRight = D;
},
{
glyphname = F_K.liga;
lastChange = "2023-03-26 15:48:02 +0000";
layers = (
{
layerId = m01;
shapes = (
{
attr = {
identifier = 0x60000824b3f0;
strokeWidth = 10;
};
closed = 0;
nodes = (
(140,712,l),
(856,716,l),
(644,-4,l)
);
},
{
attr = {
identifier = 0x60000824b3f0;
strokeWidth = 10;
};
closed = 0;
nodes = (
(98,-8,l),
(256,713,l)
);
},
{
attr = {
identifier = 0x60000824b3f0;
strokeWidth = 10;
};
closed = 0;
nodes = (
(168,317,l),
(420,317,l)
);
},
{
attr = {
identifier = 0x60000824b3f0;
strokeWidth = 10;
};
closed = 0;
nodes = (
(-43,-11,l),
(274,-7,l)
);
},
{
attr = {
identifier = 0x60000824b3f0;
strokeWidth = 10;
};
closed = 0;
nodes = (
(432,389,l),
(416,267,l)
);
},
{
attr = {
identifier = 0x600005b6c7b0;
strokeWidth = 10;
};
closed = 0;
nodes = (
(523,-7,l),
(723,-8,l)
);
},
{
attr = {
identifier = 0x600005b6c7b0;
strokeWidth = 10;
};
closed = 0;
nodes = (
(1148,705,l),
(714,284,l),
(742,480,l),
(1034,-11,l),
(1175,-11,l)
);
},
{
attr = {
identifier = 0x600005b6c7b0;
strokeWidth = 10;
};
closed = 0;
nodes = (
(1031,707,l),
(1225,701,l)
);
}
);
width = 1150;
}
);
metricLeft = F;
metricRight = K;
},
{
glyphname = F_N.liga;
lastChange = "2023-03-26 15:48:02 +0000";
layers = (
{
layerId = m01;
shapes = (
{
attr = {
identifier = 0x6000082735d0;
strokeWidth = 10;
};
closed = 0;
nodes = (
(546,-5,l),
(736,-3,l)
);
},
{
attr = {
identifier = 0x6000082735d0;
strokeWidth = 10;
};
closed = 0;
nodes = (
(834,715,l),
(649,0,l)
);
},
{
attr = {
identifier = 0x6000082735d0;
strokeWidth = 10;
};
closed = 0;
nodes = (
(1297,700,l),
(1175,88,l)
);
},
{
attr = {
identifier = 0x6000082735d0;
strokeWidth = 10;
};
closed = 0;
nodes = (
(1180,699,l),
(1370,701,l)
);
},
{
attr = {
identifier = 0x600008273a20;
strokeWidth = 10;
};
closed = 0;
nodes = (
(140,712,l),
(834,715,l),
(1333,-209,l),
(1513,-210,l)
);
},
{
attr = {
identifier = 0x600008273a20;
strokeWidth = 10;
};
closed = 0;
nodes = (
(98,-8,l),
(256,713,l)
);
},
{
attr = {
identifier = 0x600008273a20;
strokeWidth = 10;
};
closed = 0;
nodes = (
(168,317,l),
(420,317,l)
);
},
{
attr = {
identifier = 0x600008273a20;
strokeWidth = 10;
};
closed = 0;
nodes = (
(-43,-11,l),
(274,-7,l)
);
},
{
attr = {
identifier = 0x600008273a20;
strokeWidth = 10;
};
closed = 0;
nodes = (
(432,389,l),
(416,267,l)
);
}
);
width = 1353;
}
);
metricLeft = F;
metricRight = N;
},
{
glyphname = F_P.liga;
lastChange = "2023-03-26 15:48:02 +0000";
layers = (
{
layerId = m01;
shapes = (
{
attr = {
identifier = 0x60000824c6f0;
strokeWidth = 10;
};
closed = 0;
nodes = (
(140,712,l),
(812,700,l),
(1119,457,l),
(686,185,l)
);
},
{
attr = {
identifier = 0x60000824c6f0;
strokeWidth = 10;
};
closed = 0;
nodes = (
(98,-8,l),
(256,713,l)
);
},
{
attr = {
identifier = 0x60000824c6f0;
strokeWidth = 10;
};
closed = 0;
nodes = (
(168,317,l),
(420,317,l)
);
},
{
attr = {
identifier = 0x60000824c6f0;
strokeWidth = 10;
};
closed = 0;
nodes = (
(-43,-11,l),
(274,-7,l)
);
},
{
attr = {
identifier = 0x60000824c6f0;
strokeWidth = 10;
};
closed = 0;
nodes = (
(432,389,l),
(416,267,l)
);
},
{
attr = {
identifier = 0x60000824d530;
strokeWidth = 10;
};
closed = 0;
nodes = (
(812,700,l),
(638,0,l)
);
},
{
attr = {
identifier = 0x60000824d530;
strokeWidth = 10;
};
closed = 0;
nodes = (
(810,-5,l),
(504,-10,l)
);
}
);
width = 1120;
}
);
metricLeft = F;
metricRight = P;
},
{
glyphname = F_R.liga;
lastChange = "2023-03-26 15:48:02 +0000";
layers = (
{
layerId = m01;
shapes = (
{
attr = {
identifier = 0x60000825fba0;
strokeWidth = 10;
};
closed = 0;
nodes = (
(140,712,l),
(816,700,l),
(1170,524,l),
(715,293,l)
);
},
{
attr = {
identifier = 0x60000825fba0;
strokeWidth = 10;
};
closed = 0;
nodes = (
(98,-8,l),
(256,713,l)
);
},
{
attr = {
identifier = 0x60000825fba0;
strokeWidth = 10;
};
closed = 0;
nodes = (
(168,317,l),
(420,317,l)
);
},
{
attr = {
identifier = 0x60000825fba0;
strokeWidth = 10;
};
closed = 0;
nodes = (
(-43,-11,l),
(274,-7,l)
);
},
{
attr = {
identifier = 0x60000825fba0;
strokeWidth = 10;
};
closed = 0;
nodes = (
(432,389,l),
(416,267,l)
);
},
{
attr = {
identifier = 0x600005b2ec70;
strokeWidth = 10;
};
closed = 0;
nodes = (
(816,700,l),
(642,0,l)
);
},
{
attr = {
identifier = 0x600005b2ec70;
strokeWidth = 10;
};
closed = 0;
nodes = (
(754,-5,l),
(508,-4,l)
);
},
{
attr = {
identifier = 0x600005b2ec70;
strokeWidth = 10;
};
closed = 0;
nodes = (
(833,354,l),
(1101,-162,l),
(1333,-253,l)
);
}
);
width = 1200;
}
);
metricLeft = F;
metricRight = R;
},
{
glyphname = F_T;
lastChange = "2023-03-26 15:48:02 +0000";
layers = (
{
layerId = m01;
shapes = (
{
attr = {
identifier = 0x600005a88f00;
strokeWidth = 10;
};
closed = 0;
nodes = (
(140,712,l),
(1257,707,l),
(1126,502,l)
);
},
{
attr = {
identifier = 0x600005a88f00;
strokeWidth = 10;
};
closed = 0;
nodes = (
(98,-8,l),
(256,713,l)
);
},
{
attr = {
identifier = 0x600005a88f00;
strokeWidth = 10;
};
closed = 0;
nodes = (
(168,317,l),
(420,317,l)
);
},
{
attr = {
identifier = 0x600005a88f00;
strokeWidth = 10;
};
closed = 0;
nodes = (
(-43,-11,l),
(274,-7,l)
);
},
{
attr = {
identifier = 0x600005a88f00;
strokeWidth = 10;
};
closed = 0;
nodes = (
(432,389,l),
(416,267,l)
);
},
{
attr = {
identifier = 0x600008238ab0;
strokeWidth = 10;
};
closed = 0;
nodes = (
(744,0,l),
(902,713,l)
);
},
{
attr = {
identifier = 0x600008238ab0;
strokeWidth = 10;
};
closed = 0;
nodes = (
(583,-1,l),
(910,-7,l)
);
}
);
width = 1172;
}
);
metricLeft = F;
metricRight = T;
},
{
glyphname = F_T_T;
lastChange = "2023-03-26 15:48:02 +0000";
layers = (
{
layerId = m01;
shapes = (
{
attr = {
identifier = 0x600005b431e0;
strokeWidth = 10;
};
closed = 0;
nodes = (
(754,0,l),
(912,713,l)
);
},
{
attr = {
identifier = 0x600005b431e0;
strokeWidth = 10;
};
closed = 0;
nodes = (
(593,-1,l),
(920,-7,l)
);
},
{
attr = {
identifier = 0x60000823a340;
strokeWidth = 10;
};
closed = 0;
nodes = (
(98,-8,l),
(256,713,l)
);
},
{
attr = {
identifier = 0x60000823a340;
strokeWidth = 10;
};
closed = 0;
nodes = (
(168,317,l),
(420,317,l)
);
},
{
attr = {
identifier = 0x60000823a340;
strokeWidth = 10;
};
closed = 0;
nodes = (
(-43,-11,l),
(274,-7,l)
);
},
{
attr = {
identifier = 0x60000823a340;
strokeWidth = 10;
};
closed = 0;
nodes = (
(432,389,l),
(416,267,l)
);
},
{
attr = {
identifier = 0x600005b6c660;
strokeWidth = 10;
};
closed = 0;
nodes = (
(1712,504,l),
(1843,709,l),
(140,712,l)
);
},
{
attr = {
identifier = 0x600005b6c660;
strokeWidth = 10;
};
closed = 0;
nodes = (
(1330,0,l),
(1488,713,l)
);
},
{
attr = {
identifier = 0x600005b6c660;
strokeWidth = 10;
};
closed = 0;
nodes = (
(1169,-1,l),
(1496,-7,l)
);
}
);
width = 1758;
}
);
metricLeft = F;
metricRight = T;
},
{
glyphname = E_N.liga.ss01;
lastChange = "2023-03-26 15:48:02 +0000";
layers = (
{
anchors = (
{
name = top;
pos = (389,700);
}
);
layerId = m01;
shapes = (
{
attr = {
identifier = 0x60000826be10;
strokeWidth = 10;
};
closed = 0;
nodes = (
(139,712,l),
(869,715,l),
(1186,0,l),
(1332,700,l)
);
},
{
attr = {
identifier = 0x60000826be10;
strokeWidth = 10;
};
closed = 0;
nodes = (
(67,-8,l),
(255,713,l)
);
},
{
attr = {
identifier = 0x60000826be10;
strokeWidth = 10;
};
closed = 0;
nodes = (
(158,357,l),
(390,357,l)
);
},
{
attr = {
identifier = 0x60000826be10;
strokeWidth = 10;
};
closed = 0;
nodes = (
(-74,-11,l),
(447,-7,l),
(429,134,l)
);
},
{
attr = {
identifier = 0x60000826be10;
strokeWidth = 10;
};
closed = 0;
nodes = (
(402,419,l),
(386,297,l)
);
},
{
attr = {
strokeWidth = 10;
};
closed = 0;
nodes = (
(581,-5,l),
(792,-3,l)
);
},
{
attr = {
strokeWidth = 10;
};
closed = 0;
nodes = (
(869,715,l),
(684,0,l)
);
},
{
attr = {
strokeWidth = 10;
};
closed = 0;
nodes = (
(1195,699,l),
(1425,703,l)
);
}
);
width = 1380;
}
);
metricLeft = E;
},
{
glyphname = E_R.liga.ss01;
lastChange = "2023-03-26 15:48:02 +0000";
layers = (
{
anchors = (
{
name = top;
pos = (389,700);
}
);
layerId = m01;
shapes = (
{
attr = {
identifier = 0x60000826f8a0;
strokeWidth = 10;
};
closed = 0;
nodes = (
(139,712,l),
(853,700,l),
(1207,524,l),
(752,293,l)
);
},
{
attr = {
identifier = 0x60000826f8a0;
strokeWidth = 10;
};
closed = 0;
nodes = (
(67,-8,l),
(255,713,l)
);
},
{
attr = {
identifier = 0x60000826f8a0;
strokeWidth = 10;
};
closed = 0;
nodes = (
(158,357,l),
(390,357,l)
);
},
{
attr = {
identifier = 0x60000826f8a0;
strokeWidth = 10;
};
closed = 0;
nodes = (
(-74,-11,l),
(447,-7,l),
(429,134,l)
);
},
{
attr = {
identifier = 0x60000826f8a0;
strokeWidth = 10;
};
closed = 0;
nodes = (
(402,419,l),
(386,297,l)
);
},
{
attr = {
identifier = 0x600008251710;
strokeWidth = 10;
};
closed = 0;
nodes = (
(853,700,l),
(679,0,l)
);
},
{
attr = {
identifier = 0x600008251710;
strokeWidth = 10;
};
closed = 0;
nodes = (
(791,-5,l),
(545,-4,l)
);
},
{
attr = {
identifier = 0x600008251710;
strokeWidth = 10;
};
closed = 0;
nodes = (
(870,354,l),
(1055,-5,l)
);
}
);
width = 1170;
}
);
metricLeft = E;
},
{
glyphname = F_N.liga.ss01;
lastChange = "2023-03-26 15:48:02 +0000";
layers = (
{
layerId = m01;
shapes = (
{
attr = {
identifier = 0x600008273a20;
strokeWidth = 10;
};
closed = 0;
nodes = (
(128,-8,l),
(286,713,l)
);
},
{
attr = {
identifier = 0x600008273a20;
strokeWidth = 10;
};
closed = 0;
nodes = (
(198,317,l),
(450,317,l)
);
},
{
attr = {
identifier = 0x600008273a20;
strokeWidth = 10;
};
closed = 0;
nodes = (
(-13,-11,l),
(304,-7,l)
);
},
{
attr = {
identifier = 0x600008273a20;
strokeWidth = 10;
};
closed = 0;
nodes = (
(462,389,l),
(446,267,l)
);
},
{
attr = {
identifier = 0x60000826be10;
strokeWidth = 10;
};
closed = 0;
nodes = (
(140,712,l),
(870,715,l),
(1187,0,l),
(1333,700,l)
);
},
{
attr = {
strokeWidth = 10;
};
closed = 0;
nodes = (
(582,-5,l),
(793,-3,l)
);
},
{
attr = {
strokeWidth = 10;
};
closed = 0;
nodes = (
(870,715,l),
(685,0,l)
);
},
{
attr = {
strokeWidth = 10;
};
closed = 0;
nodes = (
(1196,699,l),
(1426,703,l)
);
}
);
width = 1381;
}
);
metricLeft = F;
},
{
glyphname = F_R.liga.ss01;
lastChange = "2023-03-26 15:48:02 +0000";
layers = (
{
layerId = m01;
shapes = (
{
attr = {
identifier = 0x60000825fba0;
strokeWidth = 10;
};
closed = 0;
nodes = (
(140,712,l),
(816,700,l),
(1170,524,l),
(715,293,l)
);
},
{
attr = {
identifier = 0x60000825fba0;
strokeWidth = 10;
};
closed = 0;
nodes = (
(98,-8,l),
(256,713,l)
);
},
{
attr = {
identifier = 0x60000825fba0;
strokeWidth = 10;
};
closed = 0;
nodes = (
(168,317,l),
(420,317,l)
);
},
{
attr = {
identifier = 0x60000825fba0;
strokeWidth = 10;
};
closed = 0;
nodes = (
(-43,-11,l),
(274,-7,l)
);
},
{
attr = {
identifier = 0x60000825fba0;
strokeWidth = 10;
};
closed = 0;
nodes = (
(432,389,l),
(416,267,l)
);
},
{
attr = {
identifier = 0x600005b2ec70;
strokeWidth = 10;
};
closed = 0;
nodes = (
(816,700,l),
(642,0,l)
);
},
{
attr = {
identifier = 0x600005b2ec70;
strokeWidth = 10;
};
closed = 0;
nodes = (
(754,-5,l),
(508,-4,l)
);
},
{
attr = {
identifier = 0x600005b2ec70;
strokeWidth = 10;
};
closed = 0;
nodes = (
(833,354,l),
(1018,-8,l)
);
}
);
width = 1133;
}
);
metricLeft = F;
},
{
glyphname = a;
lastChange = "2023-03-26 15:48:02 +0000";
layers = (
{
anchors = (
{
name = top;
pos = (273,500);
}
);
layerId = m01;
shapes = (
{
attr = {
strokeWidth = 10;
};
closed = 0;
nodes = (
(348,371,l),
(177,509,l),
(-8,-9,l),
(291,214,l)
);
},
{
attr = {
strokeWidth = 10;
};
closed = 0;
nodes = (
(391,509,l),
(217,-7,l),
(355,105,l)
);
}
);
width = 398;
}
);
unicode = 97;
},
{
glyphname = ae;
lastChange = "2023-03-26 15:48:02 +0000";
layers = (
{
layerId = m01;
shapes = (
{
attr = {
strokeWidth = 10;
};
closed = 0;
nodes = (
(339,342,l),
(152,502,l),
(2,-7,l),
(521,363,l),
(518,502,l),
(362,418,l),
(252,-6,l),
(518,167,l)
);
}
);
width = 559;
}
);
unicode = 230;
},
{
glyphname = b;
lastChange = "2023-03-26 15:48:02 +0000";
layers = (
{
layerId = m01;
shapes = (
{
attr = {
strokeWidth = 10;
};
closed = 0;
nodes = (
(128,676,l),
(278,814,l),
(3,-12,l),
(378,228,l),
(311,510,l),
(108,306,l)
);
}
);
width = 405;
}
);
unicode = 98;
},
{
glyphname = c;
lastChange = "2023-03-26 15:48:02 +0000";
layers = (
{
anchors = (
{
name = bottom;
pos = (80,0);
},
{
name = top;
pos = (197,500);
}
);
layerId = m01;
shapes = (
{
attr = {
strokeWidth = 10;
};
closed = 0;
nodes = (
(284,414,l),
(155,519,l),
(-4,-10,l),
(229,146,l)
);
}
);
width = 276;
}
);
unicode = 99;
},
{
glyphname = d;
lastChange = "2023-03-26 15:48:02 +0000";
layers = (
{
layerId = m01;
shapes = (
{
attr = {
strokeWidth = 10;
};
closed = 0;
nodes = (
(371,409,l),
(185,510,l),
(6,-14,l),
(299,178,l)
);
},
{
attr = {
strokeWidth = 10;
};
closed = 0;
nodes = (
(334,732,l),
(505,811,l),
(235,-14,l),
(391,81,l)
);
}
);
width = 440;
}
);
unicode = 100;
},
{
glyphname = dcroat;
lastChange = "2023-03-26 15:48:02 +0000";
layers = (
{
layerId = m01;
shapes = (
{
ref = d;
},
{
attr = {
strokeWidth = 10;
};
closed = 0;
nodes = (
(312,583,l),
(525,625,l)
);
}
);
width = 440;
}
);
unicode = 273;
},
{
glyphname = eth;
lastChange = "2023-03-26 15:48:02 +0000";
layers = (
{
layerId = m01;
shapes = (
{
attr = {
strokeWidth = 10;
};
closed = 0;
nodes = (
(369,500,l),
(60,246,l),
(167,-1,l),
(476,252,l),
(242,819,l)
);
},
{
attr = {
strokeWidth = 10;
};
closed = 0;
nodes = (
(165,613,l),
(476,687,l)
);
}
);
width = 517;
}
);
unicode = 240;
},
{
glyphname = e;
lastChange = "2023-03-26 15:48:02 +0000";
layers = (
{
anchors = (
{
name = top;
pos = (223,500);
}
);
layerId = m01;
shapes = (
{
attr = {
strokeWidth = 10;
};
closed = 0;
nodes = (
(66,204,l),
(286,364,l),
(304,515,l),
(142,411,l),
(-8,-11,l),
(256,160,l)
);
}
);
width = 314;
}
);
unicode = 101;
},
{
glyphname = f;
lastChange = "2023-03-26 15:48:02 +0000";
layers = (
{
layerId = m01;
shapes = (
{
attr = {
strokeWidth = 10;
};
closed = 0;
nodes = (
(424,712,l),
(256,812,l),
(-56,-306,l),
(-208,-409,l)
);
},
{
attr = {
strokeWidth = 10;
};
closed = 0;
nodes = (
(58,487,l),
(339,495,l)
);
}
);
width = 232;
}
);
unicode = 102;
},
{
glyphname = g;
lastChange = "2023-03-26 15:48:02 +0000";
layers = (
{
anchors = (
{
name = top;
pos = (266,500);
}
);
layerId = m01;
shapes = (
{
attr = {
strokeWidth = 10;
};
closed = 1;
nodes = (
(78,317,l),
(255,506,l),
(315,307,l),
(142,120,l)
);
},
{
attr = {
strokeWidth = 10;
};
closed = 0;
nodes = (
(256,507,l),
(397,510,l)
);
},
{
attr = {
strokeWidth = 10;
};
closed = 0;
nodes = (
(142,120,l),
(58,23,l),
(201,-207,l),
(-22,-403,l),
(-113,-177,l),
(95,-28,l)
);
}
);
width = 365;
}
);
unicode = 103;
},
{
glyphname = h;
lastChange = "2023-03-26 15:48:02 +0000";
layers = (
{
layerId = m01;
shapes = (
{
attr = {
strokeWidth = 10;
};
closed = 0;
nodes = (
(137,747,l),
(317,807,l),
(9,-16,l),
(349,513,l),
(364,0,l)
);
}
);
width = 441;
}
);
unicode = 104;
},
{
glyphname = hbar;
lastChange = "2023-03-26 15:48:02 +0000";
layers = (
{
layerId = m01;
shapes = (
{
ref = h;
},
{
attr = {
strokeWidth = 10;
};
closed = 0;
nodes = (
(137,588,l),
(365,653,l)
);
}
);
width = 441;
}
);
unicode = 295;
},
{
glyphname = i;
lastChange = "2023-03-26 15:48:02 +0000";
layers = (
{
layerId = m01;
shapes = (
{
attr = {
strokeWidth = 10;
};
closed = 0;
nodes = (
(92,412,l),
(229,519,l),
(53,-4,l),
(192,92,l)
);
},
{
attr = {
strokeWidth = 10;
};
closed = 0;
nodes = (
(210,701,l),
(231,628,l)
);
}
);
width = 283;
}
);
unicode = 105;
},
{
glyphname = idotless;
lastChange = "2023-03-26 15:48:02 +0000";
layers = (
{
anchors = (
{
name = top;
pos = (215,500);
}
);
layerId = m01;
shapes = (
{
attr = {
strokeWidth = 10;
};
closed = 0;
nodes = (
(92,412,l),
(229,519,l),
(53,-4,l),
(192,92,l)
);
}
);
width = 283;
}
);
metricLeft = i;
metricRight = i;
unicode = 305;
},
{
glyphname = j;
lastChange = "2023-03-26 15:48:02 +0000";
layers = (
{
layerId = m01;
shapes = (
{
attr = {
strokeWidth = 10;
};
closed = 0;
nodes = (
(65,439,l),
(199,517,l),
(-84,-391,l),
(80,-304,l)
);
},
{
attr = {
strokeWidth = 10;
};
closed = 0;
nodes = (
(240,652,l),
(207,704,l)
);
}
);
width = 207;
}
);
unicode = 106;
},
{
glyphname = jdotless;
lastChange = "2023-03-26 15:48:02 +0000";
layers = (
{
anchors = (
{
name = top;
pos = (187,500);
}
);
layerId = m01;
shapes = (
{
attr = {
identifier = ID0x7fa2213a9920;
strokeWidth = 10;
};
closed = 0;
nodes = (
(65,439,l),
(199,517,l),
(-84,-391,l),
(80,-304,l)
);
}
);
width = 207;
}
);
unicode = 567;
},
{
glyphname = k;
lastChange = "2023-03-26 15:48:02 +0000";
layers = (
{
anchors = (
{
name = bottom;
pos = (180,0);
}
);
layerId = m01;
shapes = (
{
attr = {
strokeWidth = 10;
};
closed = 0;
nodes = (
(139,740,l),
(280,813,l),
(42,-14,l)
);
},
{
attr = {
strokeWidth = 10;
};
closed = 0;
nodes = (
(154,376,l),
(416,500,l),
(139,227,l),
(346,-2,l)
);
}
);
width = 397;
}
);
unicode = 107;
},
{
glyphname = l;
lastChange = "2023-03-26 15:48:02 +0000";
layers = (
{
anchors = (
{
name = bottom;
pos = (122,0);
},
{
name = top;
pos = (302,800);
}
);
layerId = m01;
shapes = (
{
attr = {
strokeWidth = 10;
};
closed = 0;
nodes = (
(134,716,l),
(289,814,l),
(38,-5,l),
(199,111,l)
);
}
);
width = 255;
}
);
unicode = 108;
},
{
glyphname = lslash;
lastChange = "2023-03-26 15:48:02 +0000";
layers = (
{
layerId = m01;
shapes = (
{
ref = l;
},
{
attr = {
strokeWidth = 10;
};
closed = 0;
nodes = (
(35,321,l),
(287,489,l)
);
}
);
width = 255;
}
);
unicode = 322;
},
{
glyphname = m;
lastChange = "2023-03-26 15:48:02 +0000";
layers = (
{
layerId = m01;
shapes = (
{
attr = {
strokeWidth = 10;
};
closed = 0;
nodes = (
(58,453,l),
(190,516,l),
(40,-7,l),
(383,512,l),
(381,-4,l),
(672,498,l),
(689,335,o),
(724,18,o),
(724,9,c)
);
}
);
width = 799;
}
);
unicode = 109;
},
{
glyphname = n;
lastChange = "2023-03-26 15:48:02 +0000";
layers = (
{
anchors = (
{
name = bottom;
pos = (260,0);
},
{
name = top;
pos = (332,500);
}
);
layerId = m01;
shapes = (
{
attr = {
strokeWidth = 10;
};
closed = 0;
nodes = (
(38,377,l),
(245,512,l),
(74,-5,l),
(433,509,l),
(477,3,l)
);
}
);
width = 553;
}
);
unicode = 110;
},
{
glyphname = o;
lastChange = "2023-03-26 15:48:02 +0000";
layers = (
{
anchors = (
{
name = top;
pos = (250,500);
}
);
layerId = m01;
shapes = (
{
attr = {
strokeWidth = 10;
};
closed = 1;
nodes = (
(53,317,l),
(95,-12,l),
(365,242,l),
(274,514,l)
);
}
);
width = 403;
}
);
unicode = 111;
},
{
glyphname = oslash;
lastChange = "2023-03-26 15:48:02 +0000";
layers = (
{
layerId = m01;
shapes = (
{
pos = (11,0);
ref = o;
},
{
attr = {
strokeWidth = 10;
};
closed = 0;
nodes = (
(-82,-19,l),
(475,550,l)
);
}
);
width = 444;
}
);
unicode = 248;
},
{
glyphname = oe;
lastChange = "2023-03-26 15:48:02 +0000";
layers = (
{
layerId = m01;
shapes = (
{
attr = {
identifier = 0x60000f437420;
strokeWidth = 10;
};
closed = 0;
nodes = (
(326,247,l),
(274,514,l),
(53,317,l),
(95,-12,l),
(539,384,l),
(547,515,l),
(385,411,l),
(235,-11,l),
(499,160,l)
);
}
);
width = 582;
}
);
unicode = 339;
},
{
glyphname = p;
lastChange = "2023-03-26 15:48:02 +0000";
layers = (
{
layerId = m01;
shapes = (
{
attr = {
strokeWidth = 10;
};
closed = 0;
nodes = (
(257,669,l),
(-30,-404,l)
);
},
{
attr = {
strokeWidth = 10;
};
closed = 0;
nodes = (
(46,442,l),
(283,500,l),
(357,65,l),
(75,-9,l)
);
},
{
attr = {
strokeWidth = 10;
};
closed = 0;
nodes = (
(-192,-398,l),
(153,-413,l)
);
}
);
width = 449;
}
);
unicode = 112;
},
{
glyphname = thorn;
lastChange = "2023-03-26 15:48:02 +0000";
layers = (
{
layerId = m01;
shapes = (
{
attr = {
identifier = ID0x7f7ff35ef080;
strokeWidth = 10;
};
closed = 0;
nodes = (
(-30,-404,l),
(288,809,l),
(84,775,l)
);
},
{
attr = {
identifier = ID0x7f7ff35ef080;
strokeWidth = 10;
};
closed = 0;
nodes = (
(198,479,l),
(303,500,l),
(357,65,l),
(75,-9,l)
);
},
{
attr = {
identifier = ID0x7f7ff35ef080;
strokeWidth = 10;
};
closed = 0;
nodes = (
(-192,-398,l),
(153,-413,l)
);
}
);
width = 449;
}
);
unicode = 254;
},
{
glyphname = q;
lastChange = "2023-03-26 15:48:02 +0000";
layers = (
{
layerId = m01;
shapes = (
{
attr = {
strokeWidth = 10;
};
closed = 0;
nodes = (
(405,578,l),
(149,-411,l)
);
},
{
attr = {
strokeWidth = 10;
};
closed = 0;
nodes = (
(374,450,l),
(181,504,l),
(30,-12,l),
(292,139,l)
);
},
{
attr = {
strokeWidth = 10;
};
closed = 0;
nodes = (
(-58,-406,l),
(292,-419,l)
);
}
);
width = 428;
}
);
unicode = 113;
},
{
glyphname = r;
lastChange = "2023-03-26 15:48:02 +0000";
layers = (
{
anchors = (
{
name = bottom;
pos = (130,0);
},
{
name = top;
pos = (250,500);
}
);
layerId = m01;
shapes = (
{
attr = {
strokeWidth = 10;
};
closed = 0;
nodes = (
(27,433,l),
(184,516,l),
(70,-5,l),
(326,509,l),
(415,355,l)
);
}
);
width = 400;
}
);
unicode = 114;
},
{
glyphname = s;
lastChange = "2023-03-26 15:48:02 +0000";
layers = (
{
anchors = (
{
name = bottom;
pos = (93,-60);
},
{
name = top;
pos = (206,500);
}
);
layerId = m01;
shapes = (
{
attr = {
strokeWidth = 10;
};
closed = 0;
nodes = (
(305,435,l),
(206,500,l),
(98,427,l),
(220,62,l),
(98,-16,l),
(-12,87,l)
);
}
);
width = 312;
}
);
unicode = 115;
},
{
glyphname = germandbls;
lastChange = "2023-03-26 15:48:02 +0000";
layers = (
{
layerId = m01;
shapes = (
{
attr = {
strokeWidth = 10;
};
closed = 0;
nodes = (
(-62,-282,l),
(283,810,l),
(435,533,l),
(227,392,l),
(398,164,l),
(121,1,l)
);
}
);
width = 463;
}
);
unicode = 223;
},
{
glyphname = t;
lastChange = "2023-03-26 15:48:02 +0000";
layers = (
{
anchors = (
{
name = bottom;
pos = (59,-42);
}
);
layerId = m01;
shapes = (
{
attr = {
strokeWidth = 10;
};
closed = 0;
nodes = (
(260,663,l),
(64,-6,l),
(299,150,l)
);
},
{
attr = {
strokeWidth = 10;
};
closed = 0;
nodes = (
(60,488,l),
(362,502,l)
);
}
);
width = 340;
}
);
unicode = 116;
},
{
glyphname = u;
lastChange = "2023-03-26 15:48:02 +0000";
layers = (
{
anchors = (
{
name = top;
pos = (317,500);
}
);
layerId = m01;
shapes = (
{
attr = {
strokeWidth = 10;
};
closed = 0;
nodes = (
(40,384,l),
(209,520,l),
(65,-6,l),
(498,514,l),
(310,-4,l),
(493,120,l)
);
}
);
width = 537;
}
);
unicode = 117;
},
{
glyphname = v;
lastChange = "2023-03-26 15:48:02 +0000";
layers = (
{
layerId = m01;
shapes = (
{
attr = {
strokeWidth = 10;
};
closed = 0;
nodes = (
(103,348,l),
(3,510,l),
(342,506,l),
(90,-6,l),
(623,500,l)
);
}
);
width = 560;
}
);
unicode = 118;
},
{
glyphname = w;
lastChange = "2023-03-26 16:04:23 +0000";
layers = (
{
anchors = (
{
name = top;
pos = (532,500);
}
);
layerId = m01;
shapes = (
{
attr = {
strokeWidth = 10;
};
closed = 0;
nodes = (
(105,381,l),
(6,509,l),
(316,511,l),
(69,-4,l),
(532,500,l),
(348,-8,l),
(802,509,l)
);
}
);
width = 697;
}
);
unicode = 119;
},
{
glyphname = x;
lastChange = "2023-03-26 15:48:02 +0000";
layers = (
{
layerId = m01;
shapes = (
{
attr = {
strokeWidth = 10;
};
closed = 0;
nodes = (
(59,356,l),
(142,516,l),
(287,-19,l),
(428,110,l)
);
},
{
attr = {
strokeWidth = 10;
};
closed = 0;
nodes = (
(-32,98,l),
(28,-11,l),
(410,523,l),
(402,331,l)
);
}
);
width = 455;
}
);
unicode = 120;
},
{
glyphname = y;
lastChange = "2023-03-26 15:48:02 +0000";
layers = (
{
anchors = (
{
name = top;
pos = (282,500);
}
);
layerId = m01;
shapes = (
{
attr = {
strokeWidth = 10;
};
closed = 0;
nodes = (
(-8,352,l),
(136,518,l),
(186,0,l)
);
},
{
attr = {
strokeWidth = 10;
};
closed = 0;
nodes = (
(444,512,l),
(-11,-400,l),
(-74,-209,l)
);
}
);
width = 428;
}
);
unicode = 121;
},
{
glyphname = z;
lastChange = "2023-03-26 15:48:02 +0000";
layers = (
{
anchors = (
{
name = top;
pos = (239,500);
}
);
layerId = m01;
shapes = (
{
attr = {
strokeWidth = 10;
};
closed = 0;
nodes = (
(73,408,l),
(106,504,l),
(383,499,l),
(7,16,l),
(442,-318,l),
(758,-190,l)
);
}
);
width = 340;
}
);
unicode = 122;
},
{
glyphname = saltillo;
lastChange = "2023-03-26 15:48:02 +0000";
layers = (
{
layerId = m01;
shapes = (
{
attr = {
strokeWidth = 10;
};
closed = 0;
nodes = (
(182,706,l),
(122,467,l)
);
}
);
width = 124;
}
);
unicode = 42892;
},
{
glyphname = v.ss01;
lastChange = "2023-03-26 15:48:02 +0000";
layers = (
{
layerId = m01;
shapes = (
{
attr = {
identifier = 0x60000f453990;
strokeWidth = 10;
};
closed = 0;
nodes = (
(76,510,l),
(322,506,l),
(70,-6,l),
(603,500,l)
);
}
);
width = 540;
}
);
},
{
glyphname = w.ss01;
lastChange = "2023-03-26 15:48:02 +0000";
layers = (
{
layerId = m01;
shapes = (
{
attr = {
identifier = 0x60000f460390;
strokeWidth = 10;
};
closed = 0;
nodes = (
(76,509,l),
(296,511,l),
(49,-4,l),
(512,500,l),
(328,-8,l),
(782,509,l)
);
}
);
width = 712;
}
);
},
{
glyphname = y.ss01;
lastChange = "2023-03-26 16:03:19 +0000";
layers = (
{
layerId = m01;
shapes = (
{
attr = {
identifier = 0x60000f428330;
strokeWidth = 10;
};
closed = 0;
nodes = (
(121,518,l),
(171,0,l)
);
},
{
attr = {
identifier = 0x60000f428330;
strokeWidth = 10;
};
closed = 0;
nodes = (
(429,512,l),
(-26,-400,l),
(-89,-209,l)
);
}
);
width = 413;
}
);
},
{
glyphname = z.ss01;
lastChange = "2023-03-26 15:48:02 +0000";
layers = (
{
layerId = m01;
shapes = (
{
attr = {
strokeWidth = 10;
};
closed = 0;
nodes = (
(138,368,l),
(105,504,l),
(382,499,l),
(6,16,l),
(312,-3,l),
(261,182,l)
);
}
);
width = 423;
}
);
},
{
glyphname = a_s;
lastChange = "2023-03-26 15:48:02 +0000";
layers = (
{
anchors = (
{
name = top;
pos = (273,500);
}
);
layerId = m01;
shapes = (
{
attr = {
identifier = 0x600005ae68b0;
strokeWidth = 10;
};
closed = 0;
nodes = (
(348,371,l),
(177,509,l),
(-8,-9,l),
(291,214,l)
);
},
{
attr = {
identifier = 0x600005ae68b0;
strokeWidth = 10;
};
closed = 0;
nodes = (
(391,509,l),
(217,-7,l),
(651,396,l),
(594,500,l),
(486,427,l),
(608,62,l),
(486,-16,l),
(434,73,l)
);
}
);
width = 700;
}
);
metricLeft = a;
metricRight = s;
},
{
glyphname = c_t;
lastChange = "2023-03-26 15:48:02 +0000";
layers = (
{
layerId = m01;
shapes = (
{
attr = {
identifier = 0x60000ae5ebb0;
strokeWidth = 10;
};
closed = 0;
nodes = (
(229,146,l),
(-4,-10,l),
(155,519,l),
(284,404,l),
(200,718,l),
(526,663,l),
(330,-6,l),
(565,150,l)
);
},
{
attr = {
identifier = 0x60000adac000;
strokeWidth = 10;
};
closed = 0;
nodes = (
(356,488,l),
(628,502,l)
);
}
);
width = 606;
}
);
metricLeft = c;
metricRight = t;
},
{
glyphname = f_b.liga;
lastChange = "2023-03-26 15:48:02 +0000";
layers = (
{
layerId = m01;
shapes = (
{
attr = {
identifier = 0x600005b91980;
strokeWidth = 10;
};
closed = 0;
nodes = (
(-208,-409,l),
(-56,-306,l),
(256,731,l),
(500,794,l),
(225,-12,l),
(600,228,l),
(533,510,l),
(330,306,l)
);
},
{
attr = {
identifier = 0x600005b91980;
strokeWidth = 10;
};
closed = 0;
nodes = (
(58,487,l),
(339,495,l)
);
}
);
width = 627;
}
);
metricLeft = f;
metricRight = b;
},
{
glyphname = f_f.liga;
lastChange = "2023-03-26 15:48:02 +0000";
layers = (
{
layerId = m01;
shapes = (
{
attr = {
identifier = 0x600005ee0360;
strokeWidth = 10;
};
closed = 0;
nodes = (
(381,746,l),
(256,812,l),
(-56,-306,l),
(-208,-409,l)
);
},
{
attr = {
identifier = 0x600005ee0360;
strokeWidth = 10;
};
closed = 0;
nodes = (
(31,312,l),
(523,451,l)
);
},
{
attr = {
identifier = 0x600005e3e460;
strokeWidth = 10;
};
closed = 0;
nodes = (
(646,712,l),
(478,812,l),
(166,-306,l),
(14,-409,l)
);
}
);
width = 454;
}
);
metricLeft = f;
metricRight = f;
},
{
glyphname = f_f_b.liga;
lastChange = "2023-03-26 15:48:02 +0000";
layers = (
{
layerId = m01;
shapes = (
{
attr = {
identifier = 0x600005ad7180;
strokeWidth = 10;
};
closed = 0;
nodes = (
(381,746,l),
(256,812,l),
(-56,-306,l),
(-208,-409,l)
);
},
{
attr = {
identifier = 0x600005ad7180;
strokeWidth = 10;
};
closed = 0;
nodes = (
(31,312,l),
(523,451,l)
);
},
{
attr = {
identifier = 0x600005ad7180;
strokeWidth = 10;
};
closed = 0;
nodes = (
(14,-409,l),
(166,-306,l),
(447,732,l),
(722,814,l),
(447,-12,l),
(822,228,l),
(755,510,l),
(552,306,l)
);
}
);
width = 849;
}
);
metricLeft = f;
metricRight = b;
},
{
glyphname = f_f_h.liga;
lastChange = "2023-03-26 15:48:02 +0000";
layers = (
{
layerId = m01;
shapes = (
{
attr = {
identifier = 0x600005acdbc0;
strokeWidth = 10;
};
closed = 0;
nodes = (
(424,712,l),
(256,812,l),
(-56,-306,l),
(-208,-409,l)
);
},
{
attr = {
identifier = 0x600005ae6310;
strokeWidth = 10;
};
closed = 0;
nodes = (
(14,-409,l),
(166,-306,l),
(447,701,l),
(761,807,l),
(453,-16,l),
(793,513,l),
(808,0,l)
);
},
{
attr = {
identifier = 0x600005ae6310;
strokeWidth = 10;
};
closed = 0;
nodes = (
(29,299,l),
(548,495,l)
);
}
);
width = 885;
}
);
metricLeft = f;
metricRight = h;
},
{
glyphname = f_f_i.liga;
lastChange = "2023-03-26 15:48:02 +0000";
layers = (
{
layerId = m01;
shapes = (
{
attr = {
identifier = 0x600005b3e3d0;
strokeWidth = 10;
};
closed = 0;
nodes = (
(381,746,l),
(256,812,l),
(-56,-306,l),
(-208,-409,l)
);
},
{
attr = {
identifier = 0x600005b3e3d0;
strokeWidth = 10;
};
closed = 0;
nodes = (
(31,312,l),
(673,519,l),
(497,-4,l),
(636,92,l)
);
},
{
attr = {
identifier = 0x600005b3e3d0;
strokeWidth = 10;
};
closed = 0;
nodes = (
(14,-409,l),
(166,-306,l),
(478,812,l),
(654,701,l),
(675,628,l)
);
}
);
width = 727;
}
);
metricLeft = f;
metricRight = i;
},
{
glyphname = f_f_j.liga;
lastChange = "2023-03-26 15:48:02 +0000";
layers = (
{
layerId = m01;
shapes = (
{
attr = {
identifier = 0x600005a28ba0;
strokeWidth = 10;
};
closed = 0;
nodes = (
(424,712,l),
(256,812,l),
(-56,-306,l),
(-208,-409,l)
);
},
{
attr = {
identifier = 0x600005a28ba0;
strokeWidth = 10;
};
closed = 0;
nodes = (
(28,353,l),
(643,517,l),
(359,-400,l),
(523,-293,l)
);
},
{
attr = {
identifier = 0x600005ad0570;
strokeWidth = 10;
};
closed = 0;
nodes = (
(684,652,l),
(646,712,l),
(478,812,l),
(166,-306,l),
(14,-409,l)
);
}
);
width = 648;
}
);
metricLeft = f;
metricRight = j;
},
{
glyphname = f_f_k.liga;
lastChange = "2023-03-26 15:48:02 +0000";
layers = (
{
layerId = m01;
shapes = (
{
attr = {
identifier = 0x600005ab4750;
strokeWidth = 10;
};
closed = 0;
nodes = (
(424,712,l),
(256,812,l),
(-56,-306,l),
(-208,-409,l)
);
},
{
attr = {
identifier = 0x600005a4c180;
strokeWidth = 10;
};
closed = 0;
nodes = (
(14,-409,l),
(166,-306,l),
(443,685,l),
(724,813,l),
(486,-14,l)
);
},
{
attr = {
identifier = 0x600005a4c180;
strokeWidth = 10;
};
closed = 0;
nodes = (
(598,376,l),
(860,500,l),
(583,227,l),
(790,-2,l)
);
},
{
attr = {
identifier = 0x600005ae6310;
strokeWidth = 10;
};
closed = 0;
nodes = (
(29,299,l),
(548,495,l)
);
}
);
width = 841;
}
);
metricLeft = f;
metricRight = k;
},
{
glyphname = f_f_l.liga;
lastChange = "2023-03-26 15:48:02 +0000";
layers = (
{
layerId = m01;
shapes = (
{
attr = {
identifier = 0x600005ad5230;
strokeWidth = 10;
};
closed = 0;
nodes = (
(424,712,l),
(256,812,l),
(-56,-306,l),
(-208,-409,l)
);
},
{
attr = {
identifier = 0x600005ad5230;
strokeWidth = 10;
};
closed = 0;
nodes = (
(28,367,l),
(521,485,l)
);
},
{
attr = {
identifier = 0x600005b5ced0;
strokeWidth = 10;
};
closed = 0;
nodes = (
(14,-409,l),
(166,-306,l),
(478,752,l),
(733,814,l),
(482,-5,l),
(643,111,l)
);
}
);
width = 699;
}
);
metricLeft = f;
metricRight = l;
},
{
glyphname = f_f_r.liga;
lastChange = "2023-03-26 15:48:02 +0000";
layers = (
{
layerId = m01;
shapes = (
{
attr = {
identifier = 0x600005a108d0;
strokeWidth = 10;
};
closed = 0;
nodes = (
(381,746,l),
(256,812,l),
(-56,-306,l),
(-208,-409,l)
);
},
{
attr = {
identifier = 0x600005a108d0;
strokeWidth = 10;
};
closed = 0;
nodes = (
(31,312,l),
(638,516,l),
(504,-5,l),
(760,509,l),
(849,355,l)
);
},
{
attr = {
identifier = 0x600005a108d0;
strokeWidth = 10;
};
closed = 0;
nodes = (
(646,712,l),
(478,812,l),
(166,-306,l),
(14,-409,l)
);
}
);
width = 834;
}
);
metricLeft = f;
metricRight = r;
},
{
glyphname = f_f_t.liga;
lastChange = "2023-03-26 15:48:02 +0000";
layers = (
{
layerId = m01;
shapes = (
{
attr = {
identifier = 0x600005a200c0;
strokeWidth = 10;
};
closed = 0;
nodes = (
(424,712,l),
(256,812,l),
(-56,-306,l),
(-208,-409,l)
);
},
{
attr = {
identifier = 0x600005a200c0;
strokeWidth = 10;
};
closed = 0;
nodes = (
(58,487,l),
(806,502,l)
);
},
{
attr = {
identifier = 0x600005b23ba0;
strokeWidth = 10;
};
closed = 0;
nodes = (
(646,712,l),
(478,812,l),
(166,-306,l),
(14,-409,l)
);
},
{
attr = {
identifier = 0x600005b23ba0;
strokeWidth = 10;
};
closed = 0;
nodes = (
(704,663,l),
(508,-6,l),
(743,150,l)
);
}
);
width = 784;
}
);
metricLeft = f;
metricRight = t;
},
{
glyphname = f_h.liga;
lastChange = "2023-03-26 15:48:02 +0000";
layers = (
{
layerId = m01;
shapes = (
{
attr = {
identifier = 0x600005a39350;
strokeWidth = 10;
};
closed = 0;
nodes = (
(-208,-409,l),
(-56,-306,l),
(225,701,l),
(539,807,l),
(231,-16,l),
(571,513,l),
(586,0,l)
);
},
{
attr = {
identifier = 0x600005a39350;
strokeWidth = 10;
};
closed = 0;
nodes = (
(58,487,l),
(339,495,l)
);
}
);
width = 663;
}
);
metricLeft = f;
metricRight = h;
},
{
glyphname = f_i.liga;
lastChange = "2023-03-26 15:48:02 +0000";
layers = (
{
layerId = m01;
shapes = (
{
attr = {
identifier = 0x600005b6d950;
strokeWidth = 10;
};
closed = 0;
nodes = (
(-208,-409,l),
(-56,-306,l),
(256,812,l),
(432,701,l),
(453,628,l)
);
},
{
attr = {
identifier = 0x600005b6d950;
strokeWidth = 10;
};
closed = 0;
nodes = (
(58,487,l),
(451,519,l),
(275,-4,l),
(414,92,l)
);
}
);
width = 505;
}
);
metricLeft = f;
metricRight = i;
},
{
glyphname = f_j.liga;
lastChange = "2023-03-26 15:48:02 +0000";
layers = (
{
layerId = m01;
shapes = (
{
attr = {
identifier = 0x600005a74330;
strokeWidth = 10;
};
closed = 0;
nodes = (
(58,487,l),
(421,517,l),
(137,-400,l),
(301,-293,l)
);
},
{
attr = {
identifier = 0x600005a39f80;
strokeWidth = 10;
};
closed = 0;
nodes = (
(462,652,l),
(424,712,l),
(256,812,l),
(-56,-306,l),
(-208,-409,l)
);
}
);
width = 426;
}
);
metricLeft = f;
metricRight = j;
},
{
glyphname = f_k.liga;
lastChange = "2023-03-26 15:48:02 +0000";
layers = (
{
layerId = m01;
shapes = (
{
attr = {
identifier = 0x600005a39dd0;
strokeWidth = 10;
};
closed = 0;
nodes = (
(-208,-409,l),
(-56,-306,l),
(221,685,l),
(502,813,l),
(264,-14,l)
);
},
{
attr = {
identifier = 0x600005a39dd0;
strokeWidth = 10;
};
closed = 0;
nodes = (
(58,487,l),
(339,495,l)
);
},
{
attr = {
identifier = 0x600005a4bed0;
strokeWidth = 10;
};
closed = 0;
nodes = (
(376,376,l),
(638,500,l),
(361,227,l),
(568,-2,l)
);
}
);
width = 619;
}
);
metricLeft = f;
metricRight = k;
},
{
glyphname = f_l.liga;
lastChange = "2023-03-26 15:48:02 +0000";
layers = (
{
layerId = m01;
shapes = (
{
attr = {
identifier = 0x600005a61c80;
strokeWidth = 10;
};
closed = 0;
nodes = (
(-208,-409,l),
(-56,-306,l),
(256,752,l),
(511,814,l),
(260,-5,l),
(421,111,l)
);
},
{
attr = {
identifier = 0x600005a61c80;
strokeWidth = 10;
};
closed = 0;
nodes = (
(58,487,l),
(319,495,l)
);
}
);
width = 477;
}
);
metricLeft = f;
metricRight = l;
},
{
glyphname = f_r.liga;
lastChange = "2023-03-26 15:48:02 +0000";
layers = (
{
layerId = m01;
shapes = (
{
attr = {
identifier = 0x600005a3e550;
strokeWidth = 10;
};
closed = 0;
nodes = (
(424,712,l),
(256,812,l),
(-56,-306,l),
(-208,-409,l)
);
},
{
attr = {
identifier = 0x600005a3e550;
strokeWidth = 10;
};
closed = 0;
nodes = (
(58,447,l),
(416,516,l),
(282,-5,l),
(538,509,l),
(627,355,l)
);
}
);
width = 612;
}
);
metricLeft = f;
metricRight = r;
},
{
glyphname = f_t.liga;
lastChange = "2023-03-26 15:48:02 +0000";
layers = (
{
layerId = m01;
shapes = (
{
attr = {
identifier = 0x600005a21e30;
strokeWidth = 10;
};
closed = 0;
nodes = (
(424,712,l),
(256,812,l),
(-56,-306,l),
(-208,-409,l)
);
},
{
attr = {
identifier = 0x600005a21e30;
strokeWidth = 10;
};
closed = 0;
nodes = (
(58,487,l),
(584,502,l)
);
},
{
attr = {
identifier = 0x600005ac7360;
strokeWidth = 10;
};
closed = 0;
nodes = (
(482,663,l),
(286,-6,l),
(521,150,l)
);
}
);
width = 562;
}
);
metricLeft = f;
metricRight = t;
},
{
glyphname = f_v.liga;
lastChange = "2023-03-26 15:51:46 +0000";
layers = (
{
layerId = m01;
shapes = (
{
attr = {
identifier = ID0x7fa0886cdc60;
strokeWidth = 10;
};
closed = 0;
nodes = (
(424,712,l),
(256,812,l),
(-56,-306,l),
(-208,-409,l)
);
},
{
attr = {
identifier = ID0x7fa0886cdc60;
strokeWidth = 10;
};
closed = 0;
nodes = (
(58,487,l),
(574,506,l),
(322,-6,l),
(855,500,l)
);
}
);
width = 792;
}
);
metricLeft = f;
metricRight = v;
},
{
glyphname = f_w.liga;
lastChange = "2023-03-26 16:11:12 +0000";
layers = (
{
layerId = m01;
shapes = (
{
attr = {
identifier = ID0x7fa0a217a680;
strokeWidth = 10;
};
closed = 0;
nodes = (
(424,712,l),
(256,812,l),
(-56,-306,l),
(-208,-409,l)
);
},
{
attr = {
identifier = ID0x7fa0a217a680;
strokeWidth = 10;
};
closed = 0;
nodes = (
(58,487,l),
(548,511,l),
(301,-4,l),
(764,500,l),
(580,-8,l),
(1034,509,l)
);
}
);
width = 929;
}
);
metricLeft = f;
metricRight = w;
},
{
glyphname = g_y.liga;
lastChange = "2023-03-26 15:48:02 +0000";
layers = (
{
layerId = m01;
shapes = (
{
attr = {
identifier = 0x60000584a700;
strokeWidth = 10;
};
closed = 1;
nodes = (
(78,317,l),
(255,506,l),
(315,307,l),
(142,120,l)
);
},
{
attr = {
identifier = 0x60000584a700;
strokeWidth = 10;
};
closed = 0;
nodes = (
(255,506,l),
(491,518,l),
(541,0,l)
);
},
{
attr = {
identifier = 0x60000584a700;
strokeWidth = 10;
};
closed = 0;
nodes = (
(142,120,l),
(58,23,l),
(201,-207,l),
(-22,-403,l),
(-113,-177,l),
(95,-28,l)
);
},
{
attr = {
identifier = 0x600005babb40;
strokeWidth = 10;
};
closed = 0;
nodes = (
(799,512,l),
(344,-400,l),
(281,-209,l)
);
}
);
width = 783;
}
);
metricLeft = g;
metricRight = y;
},
{
glyphname = i_s;
lastChange = "2023-03-26 15:48:02 +0000";
layers = (
{
layerId = m01;
shapes = (
{
attr = {
identifier = 0x600005b4a700;
strokeWidth = 10;
};
closed = 0;
nodes = (
(92,412,l),
(229,519,l),
(53,-4,l),
(528,407,l),
(479,500,l),
(371,427,l),
(493,62,l),
(371,-16,l),
(281,77,l)
);
},
{
attr = {
identifier = 0x600005b4a700;
strokeWidth = 10;
};
closed = 0;
nodes = (
(210,701,l),
(231,628,l)
);
}
);
width = 585;
}
);
metricLeft = i;
metricRight = s;
},
{
glyphname = i_s_s;
lastChange = "2023-03-26 15:48:02 +0000";
layers = (
{
layerId = m01;
shapes = (
{
attr = {
identifier = 0x600005ad8690;
strokeWidth = 10;
};
closed = 0;
nodes = (
(92,412,l),
(229,519,l),
(53,-4,l),
(505,395,l),
(466,500,l),
(358,427,l),
(480,62,l),
(358,-16,l),
(313,84,l),
(827,375,l),
(768,500,l),
(660,427,l),
(782,62,l),
(660,-16,l),
(550,87,l)
);
},
{
attr = {
identifier = 0x600005ad8690;
strokeWidth = 10;
};
closed = 0;
nodes = (
(210,701,l),
(231,628,l)
);
}
);
width = 874;
}
);
metricLeft = i;
metricRight = s;
},
{
glyphname = r_y.liga;
lastChange = "2023-03-26 15:48:02 +0000";
layers = (
{
layerId = m01;
shapes = (
{
attr = {
identifier = 0x600005b7b930;
strokeWidth = 10;
};
closed = 0;
nodes = (
(27,433,l),
(184,516,l),
(70,-5,l),
(326,509,l),
(395,355,l),
(526,518,l),
(576,0,l)
);
},
{
attr = {
identifier = 0x600005b4eb80;
strokeWidth = 10;
};
closed = 0;
nodes = (
(834,512,l),
(379,-400,l),
(316,-209,l)
);
}
);
width = 818;
}
);
metricLeft = r;
metricRight = y;
},
{
glyphname = t_t.liga;
lastChange = "2023-03-26 15:48:02 +0000";
layers = (
{
layerId = m01;
shapes = (
{
attr = {
identifier = 0x600005ac7780;
strokeWidth = 10;
};
closed = 0;
nodes = (
(260,663,l),
(64,-6,l),
(299,150,l)
);
},
{
attr = {
identifier = 0x600005ac7780;
strokeWidth = 10;
};
closed = 0;
nodes = (
(60,488,l),
(692,502,l)
);
},
{
attr = {
identifier = 0x600005b4b7e0;
strokeWidth = 10;
};
closed = 0;
nodes = (
(590,663,l),
(394,-6,l),
(629,150,l)
);
}
);
width = 670;
}
);
metricLeft = t;
metricRight = t;
},
{
glyphname = t_y.liga;
lastChange = "2023-03-26 15:48:02 +0000";
layers = (
{
layerId = m01;
shapes = (
{
attr = {
identifier = 0x600005b1cd80;
strokeWidth = 10;
};
closed = 0;
nodes = (
(260,663,l),
(64,-6,l),
(299,150,l)
);
},
{
attr = {
identifier = 0x600005b1cd80;
strokeWidth = 10;
};
closed = 0;
nodes = (
(60,488,l),
(466,518,l),
(516,0,l)
);
},
{
attr = {
identifier = 0x600005bb4f60;
strokeWidth = 10;
};
closed = 0;
nodes = (
(774,512,l),
(319,-400,l),
(256,-209,l)
);
}
);
width = 758;
}
);
metricLeft = t;
metricRight = y;
},
{
glyphname = zero;
lastChange = "2023-03-26 15:48:02 +0000";
layers = (
{
layerId = m01;
shapes = (
{
attr = {
strokeWidth = 10;
};
closed = 1;
nodes = (
(60,319,l),
(379,722,l),
(464,398,l),
(169,-7,l)
);
}
);
width = 465;
}
);
unicode = 48;
},
{
glyphname = one;
lastChange = "2023-03-26 15:48:02 +0000";
layers = (
{
layerId = m01;
shapes = (
{
attr = {
strokeWidth = 10;
};
closed = 0;
nodes = (
(67,504,l),
(338,714,l),
(148,-9,l)
);
},
{
attr = {
strokeWidth = 10;
};
closed = 0;
nodes = (
(-2,-5,l),
(295,-9,l)
);
}
);
width = 341;
}
);
unicode = 49;
},
{
glyphname = two;
lastChange = "2023-03-26 15:48:02 +0000";
layers = (
{
layerId = m01;
shapes = (
{
attr = {
strokeWidth = 10;
};
closed = 0;
nodes = (
(88,509,l),
(329,712,l),
(472,462,l),
(-39,-9,l),
(370,-5,l),
(456,114,l)
);
}
);
width = 497;
}
);
unicode = 50;
},
{
glyphname = three;
lastChange = "2023-03-26 15:48:02 +0000";
layers = (
{
layerId = m01;
shapes = (
{
attr = {
strokeWidth = 10;
};
closed = 0;
nodes = (
(98,506,l),
(353,714,l),
(476,501,l),
(195,337,l),
(469,294,l),
(138,-15,l),
(44,227,l)
);
}
);
width = 512;
}
);
unicode = 51;
},
{
glyphname = four;
lastChange = "2023-03-26 15:48:02 +0000";
layers = (
{
layerId = m01;
shapes = (
{
attr = {
strokeWidth = 10;
};
closed = 0;
nodes = (
(487,714,l),
(9,227,l),
(504,227,l)
);
},
{
attr = {
strokeWidth = 10;
};
closed = 0;
nodes = (
(412,513,l),
(260,-4,l)
);
},
{
attr = {
strokeWidth = 10;
};
closed = 0;
nodes = (
(109,-10,l),
(393,-7,l)
);
}
);
width = 517;
}
);
unicode = 52;
},
{
glyphname = five;
lastChange = "2023-03-26 15:48:02 +0000";
layers = (
{
layerId = m01;
shapes = (
{
attr = {
strokeWidth = 10;
};
closed = 0;
nodes = (
(84,253,l),
(193,-9,l),
(479,228,l),
(373,500,l),
(102,407,l),
(190,715,l),
(569,701,l),
(516,604,l)
);
}
);
width = 516;
}
);
unicode = 53;
},
{
glyphname = six;
lastChange = "2023-03-26 15:48:02 +0000";
layers = (
{
layerId = m01;
shapes = (
{
attr = {
strokeWidth = 10;
};
closed = 0;
nodes = (
(502,514,l),
(262,715,l),
(67,277,l),
(168,0,l),
(442,227,l),
(320,464,l),
(67,277,l)
);
}
);
width = 469;
}
);
unicode = 54;
},
{
glyphname = seven;
lastChange = "2023-03-26 15:48:02 +0000";
layers = (
{
layerId = m01;
shapes = (
{
attr = {
strokeWidth = 10;
};
closed = 0;
nodes = (
(89,709,l),
(430,708,l),
(-40,-11,l)
);
}
);
width = 300;
}
);
unicode = 55;
},
{
glyphname = eight;
lastChange = "2023-03-26 15:48:02 +0000";
layers = (
{
layerId = m01;
shapes = (
{
attr = {
strokeWidth = 10;
};
closed = 1;
nodes = (
(144,-5,l),
(10,205,l),
(441,556,l),
(328,721,l),
(128,597,l),
(421,187,l)
);
}
);
width = 450;
}
);
unicode = 56;
},
{
glyphname = zero.osf;
lastChange = "2023-03-26 15:48:02 +0000";
layers = (
{
layerId = m01;
shapes = (
{
attr = {
identifier = 0x600005b1afa0;
strokeWidth = 10;
};
closed = 1;
nodes = (
(60,226,l),
(379,508,l),
(464,282,l),
(169,-7,l)
);
}
);
width = 465;
}
);
},
{
glyphname = one.osf;
lastChange = "2023-03-26 15:48:02 +0000";
layers = (
{
layerId = m01;
shapes = (
{
attr = {
identifier = 0x600005b36cd0;
strokeWidth = 10;
};
closed = 0;
nodes = (
(252,507,l),
(128,-9,l)
);
},
{
attr = {
identifier = 0x600005b36cd0;
strokeWidth = 10;
};
closed = 0;
nodes = (
(-22,-5,l),
(275,-9,l)
);
},
{
attr = {
identifier = 0x600005b36cd0;
strokeWidth = 10;
};
closed = 0;
nodes = (
(95,506,l),
(392,502,l)
);
}
);
width = 311;
}
);
},
{
glyphname = two.osf;
lastChange = "2023-03-26 15:48:02 +0000";
layers = (
{
layerId = m01;
shapes = (
{
attr = {
identifier = 0x600005b153e0;
strokeWidth = 10;
};
closed = 0;
nodes = (
(95,306,l),
(316,509,l),
(447,333,l),
(-30,-9,l),
(340,-5,l),
(426,114,l)
);
}
);
width = 472;
}
);
},
{
glyphname = three.osf;
lastChange = "2023-03-26 15:48:02 +0000";
layers = (
{
layerId = m01;
shapes = (
{
attr = {
identifier = 0x600005bf9e90;
strokeWidth = 10;
};
closed = 0;
nodes = (
(66,326,l),
(282,504,l),
(394,291,l),
(113,62,l),
(371,0,l),
(27,-408,l),
(-67,-166,l)
);
}
);
width = 431;
}
);
},
{
glyphname = four.osf;
lastChange = "2023-03-26 15:48:02 +0000";
layers = (
{
layerId = m01;
shapes = (
{
attr = {
identifier = 0x600005bd5230;
strokeWidth = 10;
};
closed = 0;
nodes = (
(429,510,l),
(-49,-9,l),
(446,-5,l)
);
},
{
attr = {
identifier = 0x600005bd5230;
strokeWidth = 10;
};
closed = 0;
nodes = (
(354,289,l),
(148,-412,l)
);
}
);
width = 456;
}
);
},
{
glyphname = five.osf;
lastChange = "2023-03-26 15:48:02 +0000";
layers = (
{
layerId = m01;
shapes = (
{
attr = {
identifier = 0x600005bd6880;
strokeWidth = 10;
};
closed = 0;
nodes = (
(-65,-411,l),
(346,-11,l),
(2,-5,l),
(177,511,l),
(486,507,l)
);
}
);
width = 432;
}
);
},
{
glyphname = six.osf;
lastChange = "2023-03-26 15:48:02 +0000";
layers = (
{
layerId = m01;
shapes = (
{
attr = {
identifier = 0x600005bffa80;
strokeWidth = 10;
};
closed = 0;
nodes = (
(535,626,l),
(370,800,l),
(67,277,l),
(168,0,l),
(442,227,l),
(320,464,l),
(67,277,l)
);
}
);
width = 454;
}
);
},
{
glyphname = seven.osf;
lastChange = "2023-03-26 15:48:02 +0000";
layers = (
{
layerId = m01;
shapes = (
{
attr = {
identifier = 0x600005bc1c50;
strokeWidth = 10;
};
closed = 0;
nodes = (
(28,507,l),
(369,506,l),
(-226,-407,l)
);
}
);
width = 284;
}
);
},
{
glyphname = eight.osf;
lastChange = "2023-03-26 15:48:02 +0000";
layers = (
{
layerId = m01;
shapes = (
{
attr = {
identifier = 0x600005b94ae0;
strokeWidth = 10;
};
closed = 1;
nodes = (
(163,-5,l),
(29,205,l),
(499,639,l),
(386,804,l),
(186,680,l),
(440,187,l)
);
}
);
width = 448;
}
);
},
{
glyphname = .notdef;
lastChange = "2023-03-26 15:48:02 +0000";
layers = (
{
layerId = m01;
shapes = (
{
attr = {
strokeWidth = 10;
};
closed = 0;
nodes = (
(105,491,l),
(73,273,l),
(176,522,l),
(216,301,l)
);
},
{
attr = {
strokeWidth = 10;
};
closed = 1;
nodes = (
(220,417,l),
(289,293,l),
(361,429,l),
(275,534,l)
);
},
{
attr = {
strokeWidth = 10;
};
closed = 0;
nodes = (
(375,579,l),
(413,315,l),
(539,654,l),
(439,746,l),
(493,353,l),
(539,567,l),
(600,394,l),
(625,603,l),
(676,431,l),
(703,656,l),
(799,525,l)
);
},
{
attr = {
strokeWidth = 10;
};
closed = 0;
nodes = (
(597,660,l),
(638,722,l)
);
},
{
attr = {
strokeWidth = 10;
};
closed = 0;
nodes = (
(347,490,l),
(447,514,l)
);
},
{
attr = {
strokeWidth = 10;
};
closed = 0;
nodes = (
(924,556,l),
(800,582,l),
(830,762,l),
(975,447,l),
(327,222,l)
);
},
{
attr = {
strokeWidth = 10;
};
closed = 0;
nodes = (
(166,297,l),
(250,-184,l),
(314,105,l),
(400,-100,l),
(535,138,l),
(474,198,l),
(397,95,l),
(521,-84,l),
(613,196,l),
(644,-85,l),
(701,248,l),
(769,145,l)
);
},
{
attr = {
strokeWidth = 10;
};
closed = 0;
nodes = (
(822,106,l),
(985,217,l),
(916,309,l),
(770,1,l),
(966,-30,l)
);
}
);
width = 1046;
}
);
},
{
glyphname = period;
lastChange = "2023-03-26 15:48:02 +0000";
layers = (
{
layerId = m01;
shapes = (
{
attr = {
strokeWidth = 10;
};
closed = 0;
nodes = (
(72,-13,l),
(12,78,l)
);
}
);
width = 201;
}
);
unicode = 46;
},
{
glyphname = comma;
lastChange = "2023-03-26 15:48:02 +0000";
layers = (
{
layerId = m01;
shapes = (
{
attr = {
strokeWidth = 10;
};
closed = 0;
nodes = (
(148,80,l),
(-108,-172,l)
);
}
);
width = 254;
}
);
unicode = 44;
},
{
glyphname = colon;
lastChange = "2023-03-26 15:48:02 +0000";
layers = (
{
layerId = m01;
shapes = (
{
attr = {
strokeWidth = 10;
};
closed = 0;
nodes = (
(45,86,l),
(127,3,l)
);
},
{
attr = {
strokeWidth = 10;
};
closed = 0;
nodes = (
(123,490,l),
(195,409,l)
);
}
);
width = 251;
}
);
unicode = 58;
},
{
glyphname = semicolon;
lastChange = "2023-03-26 15:48:02 +0000";
layers = (
{
layerId = m01;
shapes = (
{
attr = {
strokeWidth = 10;
};
closed = 0;
nodes = (
(149,502,l),
(221,435,l)
);
},
{
attr = {
strokeWidth = 10;
};
closed = 0;
nodes = (
(119,57,l),
(-152,-241,l)
);
}
);
width = 231;
}
);
unicode = 59;
},
{
glyphname = exclam;
lastChange = "2023-03-26 15:48:02 +0000";
layers = (
{
layerId = m01;
shapes = (
{
attr = {
strokeWidth = 10;
};
closed = 0;
nodes = (
(259,806,l),
(115,199,l)
);
},
{
attr = {
strokeWidth = 10;
};
closed = 0;
nodes = (
(56,61,l),
(150,-9,l)
);
}
);
width = 276;
}
);
unicode = 33;
},
{
glyphname = question;
lastChange = "2023-03-26 15:48:02 +0000";
layers = (
{
layerId = m01;
shapes = (
{
attr = {
strokeWidth = 10;
};
closed = 0;
nodes = (
(359,578,l),
(241,457,l),
(127,639,l),
(410,789,l),
(526,484,l),
(163,215,l),
(250,109,l),
(353,180,l)
);
},
{
attr = {
strokeWidth = 10;
};
closed = 0;
nodes = (
(172,48,l),
(231,-18,l)
);
}
);
width = 525;
}
);
unicode = 63;
},
{
glyphname = periodcentered;
lastChange = "2023-03-26 15:48:02 +0000";
layers = (
{
layerId = m01;
shapes = (
{
attr = {
strokeWidth = 10;
};
closed = 0;
nodes = (
(38,304,l),
(100,228,l)
);
}
);
width = 129;
}
);
unicode = 183;
},
{
glyphname = bullet;
lastChange = "2023-03-26 15:48:02 +0000";
layers = (
{
layerId = m01;
shapes = (
{
attr = {
identifier = ID0x7fa2223e8440;
strokeWidth = 10;
};
closed = 0;
nodes = (
(103,444,l),
(227,248,l)
);
},
{
attr = {
strokeWidth = 10;
};
closed = 0;
nodes = (
(53,264,l),
(259,437,l)
);
}
);
width = 284;
}
);
unicode = 8226;
},
{
glyphname = asterisk;
lastChange = "2023-03-26 15:48:02 +0000";
layers = (
{
layerId = m01;
shapes = (
{
attr = {
strokeWidth = 10;
};
closed = 0;
nodes = (
(132,445,l),
(469,684,l)
);
},
{
attr = {
strokeWidth = 10;
};
closed = 0;
nodes = (
(218,713,l),
(390,412,l)
);
},
{
attr = {
strokeWidth = 10;
};
closed = 0;
nodes = (
(365,715,l),
(229,388,l)
);
},
{
attr = {
strokeWidth = 10;
};
closed = 0;
nodes = (
(126,588,l),
(441,551,l)
);
}
);
width = 416;
}
);
unicode = 42;
},
{
glyphname = numbersign;
lastChange = "2023-03-26 15:48:02 +0000";
layers = (
{
layerId = m01;
shapes = (
{
attr = {
strokeWidth = 10;
};
closed = 0;
nodes = (
(65,0,l),
(356,714,l)
);
},
{
attr = {
strokeWidth = 10;
};
closed = 0;
nodes = (
(294,-5,l),
(587,713,l)
);
},
{
attr = {
strokeWidth = 10;
};
closed = 0;
nodes = (
(122,475,l),
(599,467,l)
);
},
{
attr = {
strokeWidth = 10;
};
closed = 0;
nodes = (
(32,234,l),
(535,218,l)
);
}
);
width = 625;
}
);
unicode = 35;
},
{
glyphname = slash;
lastChange = "2023-03-26 15:48:02 +0000";
layers = (
{
layerId = m01;
shapes = (
{
attr = {
strokeWidth = 10;
};
closed = 0;
nodes = (
(-26,-110,l),
(310,714,l)
);
}
);
width = 271;
}
);
unicode = 47;
},
{
glyphname = backslash;
lastChange = "2023-03-26 15:48:02 +0000";
layers = (
{
layerId = m01;
shapes = (
{
attr = {
strokeWidth = 10;
};
closed = 0;
nodes = (
(162,708,l),
(283,-130,l)
);
}
);
width = 425;
}
);
unicode = 92;
},
{
glyphname = hyphen;
lastChange = "2023-03-26 15:48:02 +0000";
layers = (
{
layerId = m01;
shapes = (
{
attr = {
strokeWidth = 10;
};
closed = 0;
nodes = (
(37,290,l),
(398,288,l)
);
}
);
width = 414;
}
);
unicode = 45;
},
{
glyphname = endash;
lastChange = "2023-03-26 15:48:02 +0000";
layers = (
{
layerId = m01;
shapes = (
{
attr = {
strokeWidth = 10;
};
closed = 0;
nodes = (
(37,290,l),
(494,288,l)
);
}
);
width = 510;
}
);
unicode = 8211;
},
{
glyphname = emdash;
lastChange = "2023-03-26 15:48:02 +0000";
layers = (
{
layerId = m01;
shapes = (
{
attr = {
strokeWidth = 10;
};
closed = 0;
nodes = (
(37,290,l),
(894,288,l)
);
}
);
width = 910;
}
);
unicode = 8212;
},
{
glyphname = underscore;
lastChange = "2023-03-26 15:48:02 +0000";
layers = (
{
layerId = m01;
shapes = (
{
attr = {
strokeWidth = 10;
};
closed = 0;
nodes = (
(-43,-7,l),
(414,-9,l)
);
}
);
width = 510;
}
);
unicode = 95;
},
{
glyphname = parenleft;
lastChange = "2023-03-26 15:48:02 +0000";
layers = (
{
layerId = m01;
shapes = (
{
attr = {
strokeWidth = 10;
};
closed = 0;
nodes = (
(423,713,l),
(67,312,l),
(133,-158,l)
);
}
);
width = 309;
}
);
unicode = 40;
},
{
glyphname = parenright;
lastChange = "2023-03-26 15:48:02 +0000";
layers = (
{
layerId = m01;
shapes = (
{
attr = {
identifier = 0x600008202010;
strokeWidth = 10;
};
closed = 0;
nodes = (
(-99,-156,l),
(257,245,l),
(191,715,l)
);
}
);
width = 309;
}
);
unicode = 41;
},
{
glyphname = braceleft;
lastChange = "2023-03-26 15:48:02 +0000";
layers = (
{
layerId = m01;
shapes = (
{
attr = {
strokeWidth = 10;
};
closed = 0;
nodes = (
(185,-213,l),
(80,-177,l),
(173,181,l),
(89,302,l),
(257,363,l),
(371,701,l),
(484,693,l)
);
}
);
width = 378;
}
);
unicode = 123;
},
{
glyphname = braceright;
lastChange = "2023-03-26 15:48:02 +0000";
layers = (
{
layerId = m01;
shapes = (
{
attr = {
identifier = 0x6000082f6c70;
strokeWidth = 10;
};
closed = 0;
nodes = (
(182,691,l),
(287,655,l),
(194,307,l),
(278,186,l),
(130,125,l),
(15,-223,l),
(-98,-215,l)
);
}
);
width = 350;
}
);
unicode = 125;
},
{
glyphname = bracketleft;
lastChange = "2023-03-26 15:48:02 +0000";
layers = (
{
layerId = m01;
shapes = (
{
attr = {
strokeWidth = 10;
};
closed = 0;
nodes = (
(356,704,l),
(175,714,l),
(-66,-205,l),
(151,-199,l)
);
}
);
width = 278;
}
);
unicode = 91;
},
{
glyphname = bracketright;
lastChange = "2023-03-26 15:48:02 +0000";
layers = (
{
layerId = m01;
shapes = (
{
attr = {
identifier = 0x600005bbcc30;
strokeWidth = 10;
};
closed = 0;
nodes = (
(-76,-195,l),
(105,-205,l),
(346,714,l),
(129,708,l)
);
}
);
width = 277;
}
);
unicode = 93;
},
{
glyphname = quotedblleft;
lastChange = "2023-03-26 15:48:02 +0000";
layers = (
{
layerId = m01;
shapes = (
{
attr = {
strokeWidth = 10;
};
closed = 0;
nodes = (
(176,797,l),
(292,486,l)
);
},
{
attr = {
strokeWidth = 10;
};
closed = 0;
nodes = (
(328,815,l),
(381,504,l)
);
}
);
width = 343;
}
);
unicode = 8220;
},
{
glyphname = quotedblright;
lastChange = "2023-03-26 15:48:02 +0000";
layers = (
{
layerId = m01;
shapes = (
{
attr = {
strokeWidth = 10;
};
closed = 0;
nodes = (
(356,767,l),
(180,496,l)
);
},
{
attr = {
strokeWidth = 10;
};
closed = 0;
nodes = (
(214,815,l),
(101,514,l)
);
}
);
width = 247;
}
);
unicode = 8221;
},
{
glyphname = quoteright;
lastChange = "2023-03-26 15:48:02 +0000";
layers = (
{
layerId = m01;
shapes = (
{
attr = {
strokeWidth = 10;
};
closed = 0;
nodes = (
(330,806,l),
(101,594,l)
);
}
);
width = 210;
}
);
unicode = 8217;
},
{
glyphname = guillemetleft;
lastChange = "2023-03-26 15:48:02 +0000";
layers = (
{
layerId = m01;
shapes = (
{
attr = {
strokeWidth = 10;
};
closed = 0;
nodes = (
(253,508,l),
(41,288,l),
(172,50,l)
);
},
{
attr = {
strokeWidth = 10;
};
closed = 0;
nodes = (
(357,479,l),
(159,297,l),
(260,120,l)
);
}
);
width = 310;
}
);
unicode = 171;
},
{
glyphname = guillemetright;
lastChange = "2023-03-26 15:48:02 +0000";
layers = (
{
layerId = m01;
shapes = (
{
attr = {
strokeWidth = 10;
};
closed = 0;
nodes = (
(152,508,l),
(283,290,l),
(81,50,l)
);
},
{
attr = {
strokeWidth = 10;
};
closed = 0;
nodes = (
(64,438,l),
(155,281,l),
(-33,69,l)
);
}
);
width = 308;
}
);
unicode = 187;
},
{
glyphname = guilsinglleft;
lastChange = "2023-03-26 15:48:02 +0000";
layers = (
{
layerId = m01;
shapes = (
{
attr = {
strokeWidth = 10;
};
closed = 0;
nodes = (
(253,508,l),
(41,288,l),
(172,50,l)
);
}
);
width = 239;
}
);
unicode = 8249;
},
{
glyphname = guilsinglright;
lastChange = "2023-03-26 15:48:02 +0000";
layers = (
{
layerId = m01;
shapes = (
{
attr = {
strokeWidth = 10;
};
closed = 0;
nodes = (
(82,508,l),
(213,290,l),
(11,50,l)
);
}
);
width = 238;
}
);
unicode = 8250;
},
{
glyphname = quotedbl;
lastChange = "2023-03-26 15:48:02 +0000";
layers = (
{
layerId = m01;
shapes = (
{
attr = {
identifier = 0x600005a3b9f0;
strokeWidth = 10;
};
closed = 0;
nodes = (
(304,797,l),
(228,505,l)
);
},
{
attr = {
identifier = 0x600005a3b9f0;
strokeWidth = 10;
};
closed = 0;
nodes = (
(182,815,l),
(149,505,l)
);
}
);
width = 220;
}
);
unicode = 34;
},
{
glyphname = quotesingle;
lastChange = "2023-03-26 15:48:02 +0000";
layers = (
{
layerId = m01;
shapes = (
{
attr = {
identifier = 0x600005a9f390;
strokeWidth = 10;
};
closed = 0;
nodes = (
(179,806,l),
(130,533,l)
);
}
);
width = 94;
}
);
unicode = 39;
},
{
glyphname = baht;
lastChange = "2023-03-26 15:48:02 +0000";
layers = (
{
layerId = m01;
shapes = (
{
ref = B;
},
{
attr = {
strokeWidth = 10;
};
closed = 0;
nodes = (
(469,798,l),
(199,-145,l)
);
}
);
width = 606;
}
);
unicode = 3647;
},
{
glyphname = brokenHeart;
lastChange = "2023-03-26 15:48:02 +0000";
layers = (
{
layerId = m01;
shapes = (
{
attr = {
identifier = ID0x7fa20f894420;
strokeWidth = 10;
};
closed = 1;
nodes = (
(330,216,l),
(442,312,l),
(449,402,l),
(335,713,l),
(109,431,l),
(378,-28,l),
(382,-24,l)
);
},
{
attr = {
identifier = ID0x7fa20f894420;
strokeWidth = 10;
};
closed = 1;
nodes = (
(415,-14,l),
(844,424,l),
(797,721,l),
(496,388,l),
(496,290,l),
(389,198,l)
);
}
);
width = 858;
}
);
unicode = 128148;
},
{
glyphname = heartWithArrow;
lastChange = "2023-03-26 15:48:02 +0000";
layers = (
{
layerId = m01;
shapes = (
{
attr = {
identifier = ID0x7fa20fa51b80;
strokeWidth = 10;
};
closed = 1;
nodes = (
(406,676,l),
(203,423,l),
(445,9,l),
(864,416,l),
(822,684,l),
(513,384,l)
);
},
{
attr = {
strokeWidth = 10;
};
closed = 0;
nodes = (
(550,240,l),
(708,65,l)
);
},
{
attr = {
strokeWidth = 10;
};
closed = 0;
nodes = (
(302,540,l),
(195,684,l)
);
},
{
attr = {
strokeWidth = 10;
};
closed = 1;
nodes = (
(149,762,l),
(318,707,l),
(195,684,l),
(141,555,l)
);
},
{
attr = {
strokeWidth = 10;
};
closed = 1;
nodes = (
(666,-46,l),
(708,65,l),
(804,66,l),
(877,-35,l),
(791,-37,l),
(759,-139,l)
);
}
);
width = 970;
}
);
unicode = 128152;
},
{
category = Symbol;
glyphname = sadface;
lastChange = "2023-03-26 15:48:02 +0000";
layers = (
{
layerId = m01;
shapes = (
{
attr = {
strokeWidth = 10;
};
closed = 1;
nodes = (
(108,424,l),
(508,719,l),
(753,348,l),
(322,-1,l)
);
},
{
attr = {
strokeWidth = 10;
};
closed = 0;
nodes = (
(348,440,l),
(380,549,l)
);
},
{
attr = {
strokeWidth = 10;
};
closed = 0;
nodes = (
(481,415,l),
(522,552,l)
);
},
{
attr = {
strokeWidth = 10;
};
closed = 0;
nodes = (
(273,246,l),
(400,355,l),
(466,208,l)
);
}
);
width = 789;
}
);
unicode = 9785;
},
{
glyphname = whiteSmilingFace;
lastChange = "2023-03-26 15:48:02 +0000";
layers = (
{
layerId = m01;
shapes = (
{
attr = {
strokeWidth = 10;
};
closed = 1;
nodes = (
(108,424,l),
(508,719,l),
(753,348,l),
(322,-1,l)
);
},
{
attr = {
strokeWidth = 10;
};
closed = 0;
nodes = (
(244,378,l),
(348,161,l),
(575,314,l)
);
},
{
attr = {
strokeWidth = 10;
};
closed = 0;
nodes = (
(348,440,l),
(380,549,l)
);
},
{
attr = {
strokeWidth = 10;
};
closed = 0;
nodes = (
(481,415,l),
(522,552,l)
);
}
);
width = 789;
}
);
unicode = 9786;
},
{
glyphname = heartBlackSuit;
lastChange = "2023-03-26 15:48:02 +0000";
layers = (
{
layerId = m01;
shapes = (
{
attr = {
strokeWidth = 10;
};
closed = 1;
nodes = (
(335,713,l),
(109,431,l),
(378,-28,l),
(844,424,l),
(797,721,l),
(454,388,l)
);
}
);
width = 858;
}
);
unicode = 9829;
},
{
glyphname = at;
lastChange = "2023-03-26 15:48:02 +0000";
layers = (
{
layerId = m01;
shapes = (
{
attr = {
identifier = 0x6000082318c0;
strokeWidth = 10;
};
closed = 0;
nodes = (
(446,357,l),
(346,454,l),
(217,91,l),
(416,246,l)
);
},
{
attr = {
identifier = 0x6000082318c0;
strokeWidth = 10;
};
closed = 0;
nodes = (
(476,454,l),
(374,92,l),
(619,221,l),
(535,717,l),
(51,323,l),
(181,-151,l),
(616,57,l)
);
}
);
width = 669;
}
);
unicode = 64;
},
{
glyphname = ampersand;
lastChange = "2023-03-26 15:48:02 +0000";
layers = (
{
layerId = m01;
shapes = (
{
attr = {
identifier = 0x600005ac0ea0;
strokeWidth = 10;
};
closed = 0;
nodes = (
(261,283,l),
(365,515,l),
(143,411,l),
(31,103,l),
(188,-339,l),
(874,204,l),
(639,793,l),
(223,587,l)
);
},
{
attr = {
identifier = 0x600005bb1c50;
strokeWidth = 10;
};
closed = 0;
nodes = (
(578,673,l),
(261,-108,l),
(632,202,l)
);
},
{
attr = {
identifier = 0x600005bb1c50;
strokeWidth = 10;
};
closed = 0;
nodes = (
(78,232,l),
(667,402,l)
);
}
);
width = 918;
}
);
unicode = 38;
},
{
glyphname = paragraph;
lastChange = "2023-03-26 15:48:02 +0000";
layers = (
{
layerId = m01;
shapes = (
{
attr = {
strokeWidth = 10;
};
closed = 0;
nodes = (
(130,-193,l),
(377,720,l),
(-37,509,l),
(226,160,l)
);
},
{
attr = {
strokeWidth = 10;
};
closed = 0;
nodes = (
(502,710,l),
(256,-220,l)
);
}
);
width = 442;
}
);
unicode = 182;
},
{
glyphname = section;
lastChange = "2023-03-26 15:48:02 +0000";
layers = (
{
layerId = m01;
shapes = (
{
attr = {
strokeWidth = 10;
};
closed = 0;
nodes = (
(526,545,l),
(438,810,l),
(118,460,l),
(202,127,l),
(385,356,l)
);
},
{
attr = {
strokeWidth = 10;
};
closed = 0;
nodes = (
(45,127,l),
(137,-127,l),
(463,155,l),
(327,506,l),
(157,326,l)
);
}
);
width = 550;
}
);
unicode = 167;
},
{
glyphname = copyright;
lastChange = "2023-03-26 15:48:02 +0000";
layers = (
{
layerId = m01;
shapes = (
{
attr = {
identifier = 0x600008245aa0;
strokeWidth = 10;
};
closed = 0;
nodes = (
(398,621,l),
(344,690,l),
(251,570,l),
(300,457,l),
(369,513,l)
);
},
{
attr = {
strokeWidth = 10;
};
closed = 1;
nodes = (
(122,588,l),
(365,804,l),
(511,553,l),
(275,340,l)
);
}
);
width = 461;
}
);
unicode = 169;
},
{
glyphname = registered;
lastChange = "2023-03-26 15:48:02 +0000";
layers = (
{
layerId = m01;
shapes = (
{
attr = {
strokeWidth = 10;
};
closed = 1;
nodes = (
(122,588,l),
(365,804,l),
(511,553,l),
(275,340,l)
);
},
{
attr = {
strokeWidth = 10;
};
closed = 0;
nodes = (
(230,498,l),
(313,689,l),
(414,626,l),
(274,588,l),
(369,468,l)
);
}
);
width = 461;
}
);
metricLeft = copyright;
metricRight = copyright;
unicode = 174;
},
{
glyphname = trademark;
lastChange = "2023-03-26 15:48:02 +0000";
layers = (
{
layerId = m01;
shapes = (
{
attr = {
identifier = 0x6000082d3120;
strokeWidth = 10;
};
closed = 0;
nodes = (
(387,631,l),
(439,713,l),
(108,719,l),
(129,637,l)
);
},
{
attr = {
identifier = 0x6000082d3120;
strokeWidth = 10;
};
closed = 0;
nodes = (
(184,431,l),
(286,717,l)
);
},
{
attr = {
identifier = 0x6000082d3120;
strokeWidth = 10;
};
closed = 0;
nodes = (
(120,431,l),
(251,429,l)
);
},
{
attr = {
identifier = 0x6000082d20d0;
strokeWidth = 10;
};
closed = 0;
nodes = (
(291,428,l),
(361,428,l),
(518,715,l),
(505,433,l),
(659,710,l),
(723,715,l)
);
},
{
attr = {
identifier = 0x6000082d20d0;
strokeWidth = 10;
};
closed = 0;
nodes = (
(659,710,l),
(639,428,l)
);
},
{
attr = {
identifier = 0x6000082d20d0;
strokeWidth = 10;
};
closed = 0;
nodes = (
(588,430,l),
(684,427,l)
);
}
);
width = 618;
}
);
metricRight = M;
unicode = 8482;
},
{
glyphname = degree;
lastChange = "2023-03-26 15:48:02 +0000";
layers = (
{
layerId = m01;
shapes = (
{
attr = {
strokeWidth = 10;
};
closed = 1;
nodes = (
(122,588,l),
(365,804,l),
(511,553,l),
(275,340,l)
);
}
);
width = 461;
}
);
unicode = 176;
},
{
glyphname = bar;
lastChange = "2023-03-26 15:48:02 +0000";
layers = (
{
layerId = m01;
shapes = (
{
attr = {
strokeWidth = 10;
};
closed = 0;
nodes = (
(-17,-198,l),
(208,800,l)
);
}
);
width = 163;
}
);
unicode = 124;
},
{
glyphname = brokenbar;
lastChange = "2023-03-26 15:48:02 +0000";
layers = (
{
layerId = m01;
shapes = (
{
attr = {
strokeWidth = 10;
};
closed = 0;
nodes = (
(-17,-198,l),
(72,196,l)
);
},
{
attr = {
strokeWidth = 10;
};
closed = 0;
nodes = (
(149,537,l),
(208,800,l)
);
}
);
width = 163;
}
);
metricLeft = bar;
metricRight = bar;
unicode = 166;
},
{
glyphname = dagger;
lastChange = "2023-03-26 15:48:02 +0000";
layers = (
{
layerId = m01;
shapes = (
{
attr = {
identifier = ID0x7fa2222f8e10;
strokeWidth = 10;
};
closed = 0;
nodes = (
(78,-198,l),
(315,800,l)
);
},
{
attr = {
strokeWidth = 10;
};
closed = 0;
nodes = (
(92,457,l),
(368,451,l)
);
}
);
width = 370;
}
);
unicode = 8224;
},
{
glyphname = daggerdbl;
lastChange = "2023-03-26 15:48:02 +0000";
layers = (
{
layerId = m01;
shapes = (
{
ref = dagger;
},
{
attr = {
strokeWidth = 10;
};
closed = 0;
nodes = (
(68,268,l),
(303,264,l)
);
}
);
width = 370;
}
);
metricLeft = dagger;
metricRight = dagger;
unicode = 8225;
},
{
glyphname = ampersand.ss02;
lastChange = "2023-03-26 15:48:02 +0000";
layers = (
{
layerId = m01;
shapes = (
{
attr = {
identifier = 0x6000082c08d0;
strokeWidth = 10;
};
closed = 0;
nodes = (
(549,543,l),
(406,715,l),
(150,497,l),
(350,331,l),
(457,386,l),
(382,485,l),
(29,203,l),
(245,-21,l),
(735,23,l),
(603,475,l)
);
},
{
attr = {
identifier = 0x6000058ee550;
strokeWidth = 10;
};
closed = 0;
nodes = (
(261,137,l),
(862,317,l)
);
}
);
width = 801;
}
);
},
{
glyphname = ampersand.ss03;
lastChange = "2023-03-26 15:48:02 +0000";
layers = (
{
layerId = m01;
shapes = (
{
attr = {
strokeWidth = 10;
};
closed = 0;
nodes = (
(687,384,l),
(144,-13,l),
(45,224,l),
(502,507,l),
(404,721,l),
(211,614,l),
(508,0,l),
(653,68,l)
);
},
{
attr = {
strokeWidth = 10;
};
closed = 0;
nodes = (
(536,396,l),
(784,373,l)
);
}
);
width = 717;
}
);
},
{
glyphname = ampersand.ss04;
lastChange = "2023-03-26 15:48:02 +0000";
layers = (
{
layerId = m01;
shapes = (
{
attr = {
strokeWidth = 10;
};
closed = 0;
nodes = (
(657,361,l),
(711,116,l),
(349,-13,l),
(64,368,l),
(328,583,l),
(400,405,l)
);
},
{
attr = {
strokeWidth = 10;
};
closed = 0;
nodes = (
(505,160,l),
(387,246,l),
(856,453,l),
(872,585,l)
);
},
{
attr = {
strokeWidth = 10;
};
closed = 0;
nodes = (
(169,229,l),
(636,583,l)
);
}
);
width = 847;
}
);
},
{
glyphname = cent;
lastChange = "2023-03-26 15:48:02 +0000";
layers = (
{
layerId = m01;
shapes = (
{
attr = {
identifier = ID0x7fa23da7e070;
strokeWidth = 10;
};
closed = 0;
nodes = (
(264,414,l),
(155,519,l),
(-72,295,l),
(10,-10,l),
(209,146,l)
);
},
{
attr = {
identifier = ID0x7fa2223d2960;
strokeWidth = 10;
};
closed = 0;
nodes = (
(-47,-219,l),
(228,800,l)
);
}
);
width = 276;
}
);
unicode = 162;
},
{
glyphname = currency;
lastChange = "2023-03-26 15:48:02 +0000";
layers = (
{
layerId = m01;
shapes = (
{
attr = {
strokeWidth = 10;
};
closed = 1;
nodes = (
(159,310,l),
(341,516,l),
(469,303,l),
(262,100,l)
);
},
{
attr = {
strokeWidth = 10;
};
closed = 0;
nodes = (
(132,524,l),
(234,398,l)
);
},
{
attr = {
strokeWidth = 10;
};
closed = 0;
nodes = (
(540,518,l),
(415,397,l)
);
},
{
attr = {
strokeWidth = 10;
};
closed = 0;
nodes = (
(70,108,l),
(206,211,l)
);
},
{
attr = {
strokeWidth = 10;
};
closed = 0;
nodes = (
(472,87,l),
(386,221,l)
);
}
);
width = 574;
}
);
unicode = 164;
},
{
glyphname = euro;
lastChange = "2023-03-26 15:48:02 +0000";
layers = (
{
layerId = m01;
shapes = (
{
pos = (72,0);
ref = C;
},
{
attr = {
strokeWidth = 10;
};
closed = 0;
nodes = (
(94,417,l),
(544,408,l)
);
},
{
attr = {
strokeWidth = 10;
};
closed = 0;
nodes = (
(44,317,l),
(494,308,l)
);
}
);
width = 658;
}
);
unicode = 8364;
},
{
glyphname = hryvnia;
lastChange = "2023-03-26 15:48:02 +0000";
layers = (
{
layerId = m01;
shapes = (
{
attr = {
identifier = ID0x7fa20e78a190;
strokeWidth = 10;
};
closed = 0;
nodes = (
(528,254,l),
(490,132,l),
(220,-10,l),
(52,170,l),
(244,302,l)
);
},
{
attr = {
identifier = ID0x7fa20e78a190;
strokeWidth = 10;
};
closed = 0;
nodes = (
(367,396,l),
(547,521,l),
(424,722,l),
(229,624,l),
(149,483,l)
);
},
{
attr = {
strokeWidth = 10;
};
closed = 0;
nodes = (
(180,408,l),
(522,386,l)
);
},
{
attr = {
strokeWidth = 10;
};
closed = 0;
nodes = (
(111,311,l),
(453,289,l)
);
}
);
width = 587;
}
);
unicode = 8372;
},
{
glyphname = ruble;
lastChange = "2023-03-26 15:48:02 +0000";
layers = (
{
layerId = m01;
shapes = (
{
attr = {
identifier = ID0x7fa225de3260;
strokeWidth = 10;
};
closed = 0;
nodes = (
(107,573,l),
(82,697,l),
(295,700,l),
(602,457,l),
(306,265,l),
(23,264,l)
);
},
{
attr = {
identifier = ID0x7fa225de3260;
strokeWidth = 10;
};
closed = 0;
nodes = (
(295,700,l),
(121,0,l)
);
},
{
attr = {
identifier = ID0x7fa225de3260;
strokeWidth = 10;
};
closed = 0;
nodes = (
(293,-5,l),
(-13,-10,l)
);
},
{
attr = {
identifier = ID0x7fa225de3260;
strokeWidth = 10;
};
closed = 0;
nodes = (
(313,165,l),
(7,160,l)
);
}
);
width = 603;
}
);
unicode = 8381;
},
{
glyphname = rupeeIndian;
lastChange = "2023-03-26 15:48:02 +0000";
layers = (
{
layerId = m01;
shapes = (
{
attr = {
identifier = ID0x7fa20f2b8da0;
strokeWidth = 10;
};
closed = 0;
nodes = (
(127,700,l),
(465,690,l),
(499,524,l),
(232,354,l),
(470,-22,l)
);
},
{
attr = {
strokeWidth = 10;
};
closed = 0;
nodes = (
(64,358,l),
(498,351,l)
);
}
);
width = 601;
}
);
unicode = 8377;
},
{
glyphname = sheqel;
lastChange = "2023-03-26 15:48:02 +0000";
layers = (
{
layerId = m01;
shapes = (
{
attr = {
strokeWidth = 10;
};
closed = 0;
nodes = (
(16,10,l),
(183,707,l),
(462,700,l),
(345,145,l)
);
},
{
attr = {
strokeWidth = 10;
};
closed = 0;
nodes = (
(303,602,l),
(164,5,l),
(462,4,l),
(591,694,l)
);
}
);
width = 588;
}
);
unicode = 8362;
},
{
glyphname = sterling;
lastChange = "2023-03-26 15:48:02 +0000";
layers = (
{
layerId = m01;
shapes = (
{
attr = {
strokeWidth = 10;
};
closed = 0;
nodes = (
(537,554,l),
(441,743,l),
(215,581,l),
(252,286,l),
(11,1,l),
(488,1,l),
(453,179,l)
);
},
{
attr = {
strokeWidth = 10;
};
closed = 0;
nodes = (
(117,390,l),
(567,381,l)
);
},
{
attr = {
strokeWidth = 10;
};
closed = 0;
nodes = (
(67,290,l),
(517,281,l)
);
}
);
width = 577;
}
);
unicode = 163;
},
{
glyphname = won;
lastChange = "2023-03-26 15:48:02 +0000";
layers = (
{
layerId = m01;
shapes = (
{
ref = W;
},
{
attr = {
strokeWidth = 10;
};
closed = 0;
nodes = (
(133,365,l),
(1014,384,l)
);
}
);
width = 984;
}
);
unicode = 8361;
},
{
glyphname = yen;
lastChange = "2023-03-26 15:48:02 +0000";
layers = (
{
layerId = m01;
shapes = (
{
ref = Y;
},
{
attr = {
strokeWidth = 10;
};
closed = 0;
nodes = (
(84,359,l),
(534,350,l)
);
},
{
attr = {
strokeWidth = 10;
};
closed = 0;
nodes = (
(53,259,l),
(503,250,l)
);
}
);
width = 539;
}
);
unicode = 165;
},
{
glyphname = plus;
lastChange = "2023-03-26 15:48:02 +0000";
layers = (
{
layerId = m01;
shapes = (
{
attr = {
strokeWidth = 10;
};
closed = 0;
nodes = (
(72,309,l),
(416,309,l)
);
},
{
attr = {
strokeWidth = 10;
};
closed = 0;
nodes = (
(260,449,l),
(210,148,l)
);
}
);
width = 457;
}
);
unicode = 43;
},
{
glyphname = minus;
lastChange = "2023-03-26 15:48:02 +0000";
layers = (
{
layerId = m01;
shapes = (
{
attr = {
strokeWidth = 10;
};
closed = 0;
nodes = (
(72,309,l),
(416,309,l)
);
}
);
width = 457;
}
);
unicode = 8722;
},
{
glyphname = multiply;
lastChange = "2023-03-26 15:48:02 +0000";
layers = (
{
layerId = m01;
shapes = (
{
attr = {
strokeWidth = 10;
};
closed = 0;
nodes = (
(113,456,l),
(290,195,l)
);
},
{
attr = {
strokeWidth = 10;
};
closed = 0;
nodes = (
(345,422,l),
(54,213,l)
);
}
);
width = 363;
}
);
unicode = 215;
},
{
glyphname = divide;
lastChange = "2023-03-26 15:48:02 +0000";
layers = (
{
layerId = m01;
shapes = (
{
attr = {
strokeWidth = 10;
};
closed = 0;
nodes = (
(72,309,l),
(416,309,l)
);
},
{
attr = {
strokeWidth = 10;
};
closed = 0;
nodes = (
(239,400,l),
(305,448,l)
);
},
{
attr = {
strokeWidth = 10;
};
closed = 0;
nodes = (
(189,158,l),
(255,206,l)
);
}
);
width = 457;
}
);
unicode = 247;
},
{
glyphname = equal;
lastChange = "2023-03-26 15:48:02 +0000";
layers = (
{
layerId = m01;
shapes = (
{
attr = {
strokeWidth = 10;
};
closed = 0;
nodes = (
(91,379,l),
(465,379,l)
);
},
{
attr = {
strokeWidth = 10;
};
closed = 0;
nodes = (
(71,229,l),
(445,229,l)
);
}
);
width = 507;
}
);
unicode = 61;
},
{
glyphname = notequal;
lastChange = "2023-03-26 15:48:02 +0000";
layers = (
{
layerId = m01;
shapes = (
{
attr = {
strokeWidth = 10;
};
closed = 0;
nodes = (
(91,379,l),
(465,379,l)
);
},
{
attr = {
strokeWidth = 10;
};
closed = 0;
nodes = (
(71,229,l),
(445,229,l)
);
},
{
attr = {
strokeWidth = 10;
};
closed = 0;
nodes = (
(122,93,l),
(393,498,l)
);
}
);
width = 507;
}
);
unicode = 8800;
},
{
glyphname = greater;
lastChange = "2023-03-26 15:48:02 +0000";
layers = (
{
layerId = m01;
shapes = (
{
attr = {
strokeWidth = 10;
};
closed = 0;
nodes = (
(123,502,l),
(538,289,l),
(25,84,l)
);
}
);
width = 595;
}
);
unicode = 62;
},
{
glyphname = less;
lastChange = "2023-03-26 15:48:02 +0000";
layers = (
{
layerId = m01;
shapes = (
{
attr = {
strokeWidth = 10;
};
closed = 0;
nodes = (
(593,502,l),
(80,297,l),
(495,84,l)
);
}
);
width = 595;
}
);
unicode = 60;
},
{
glyphname = greaterequal;
lastChange = "2023-03-26 15:48:02 +0000";
layers = (
{
layerId = m01;
shapes = (
{
attr = {
strokeWidth = 10;
};
closed = 0;
nodes = (
(123,502,l),
(538,289,l),
(25,84,l)
);
},
{
attr = {
strokeWidth = 10;
};
closed = 0;
nodes = (
(74,-17,l),
(555,171,l)
);
}
);
width = 635;
}
);
unicode = 8805;
},
{
glyphname = lessequal;
lastChange = "2023-03-26 15:48:02 +0000";
layers = (
{
layerId = m01;
shapes = (
{
attr = {
strokeWidth = 10;
};
closed = 0;
nodes = (
(603,502,l),
(90,297,l),
(505,84,l)
);
},
{
attr = {
strokeWidth = 10;
};
closed = 0;
nodes = (
(42,198,l),
(431,1,l)
);
}
);
width = 605;
}
);
unicode = 8804;
},
{
glyphname = plusminus;
lastChange = "2023-03-26 15:48:02 +0000";
layers = (
{
layerId = m01;
shapes = (
{
ref = plus;
},
{
attr = {
strokeWidth = 10;
};
closed = 0;
nodes = (
(47,48,l),
(381,39,l)
);
}
);
width = 494;
}
);
unicode = 177;
},
{
glyphname = approxequal;
lastChange = "2023-03-26 15:48:02 +0000";
layers = (
{
layerId = m01;
shapes = (
{
attr = {
identifier = ID0x7fa20e536030;
strokeWidth = 10;
};
closed = 0;
nodes = (
(72,297,l),
(177,399,l),
(408,314,l),
(508,416,l)
);
},
{
attr = {
identifier = ID0x7fa20e536030;
strokeWidth = 10;
};
closed = 0;
nodes = (
(72,140,l),
(177,242,l),
(408,157,l),
(508,259,l)
);
}
);
width = 566;
}
);
unicode = 8776;
},
{
glyphname = asciitilde;
lastChange = "2023-03-26 15:48:02 +0000";
layers = (
{
layerId = m01;
shapes = (
{
attr = {
identifier = ID0x7fa20e536030;
strokeWidth = 10;
};
closed = 0;
nodes = (
(56,240,l),
(161,342,l),
(392,257,l),
(492,359,l)
);
}
);
width = 523;
}
);
unicode = 126;
},
{
glyphname = logicalnot;
lastChange = "2023-03-26 15:48:02 +0000";
layers = (
{
layerId = m01;
shapes = (
{
attr = {
strokeWidth = 11;
};
closed = 0;
nodes = (
(61,302,l),
(429,302,l),
(394,77,l)
);
}
);
width = 491;
}
);
unicode = 172;
},
{
glyphname = asciicircum;
lastChange = "2023-03-26 15:48:02 +0000";
layers = (
{
layerId = m01;
shapes = (
{
attr = {
strokeWidth = 10;
};
closed = 0;
nodes = (
(113,448,l),
(331,732,l),
(443,442,l)
);
}
);
width = 451;
}
);
unicode = 94;
},
{
glyphname = infinity;
lastChange = "2023-03-26 15:48:02 +0000";
layers = (
{
layerId = m01;
shapes = (
{
attr = {
strokeWidth = 10;
};
closed = 1;
nodes = (
(321,526,l),
(606,180,l),
(856,369,l),
(702,525,l),
(178,166,l),
(77,340,l)
);
}
);
width = 887;
}
);
unicode = 8734;
},
{
glyphname = integral;
lastChange = "2023-03-26 15:48:02 +0000";
layers = (
{
layerId = m01;
shapes = (
{
attr = {
identifier = ID0x7fa20e198d20;
strokeWidth = 10;
};
closed = 0;
nodes = (
(424,712,l),
(256,812,l),
(-56,-306,l),
(-208,-409,l)
);
}
);
width = 232;
}
);
metricLeft = f;
metricRight = f;
unicode = 8747;
},
{
glyphname = product;
lastChange = "2023-03-26 15:48:02 +0000";
layers = (
{
layerId = m01;
shapes = (
{
attr = {
strokeWidth = 10;
};
closed = 0;
nodes = (
(175,691,l),
(796,688,l)
);
},
{
attr = {
strokeWidth = 10;
};
closed = 0;
nodes = (
(192,11,l),
(358,690,l)
);
},
{
attr = {
strokeWidth = 10;
};
closed = 0;
nodes = (
(462,11,l),
(628,690,l)
);
}
);
width = 735;
}
);
unicode = 8719;
},
{
glyphname = summation;
lastChange = "2023-03-26 15:48:02 +0000";
layers = (
{
layerId = m01;
shapes = (
{
attr = {
strokeWidth = 10;
};
closed = 0;
nodes = (
(520,702,l),
(206,709,l),
(374,368,l),
(-2,-1,l),
(361,4,l)
);
}
);
width = 483;
}
);
unicode = 8721;
},
{
glyphname = radical;
lastChange = "2023-03-26 15:48:02 +0000";
layers = (
{
layerId = m01;
shapes = (
{
attr = {
strokeWidth = 10;
};
closed = 0;
nodes = (
(48,282,l),
(199,-136,l),
(477,868,l),
(1046,844,l)
);
}
);
width = 418;
}
);
unicode = 8730;
},
{
glyphname = partialdiff;
lastChange = "2023-03-26 15:48:02 +0000";
layers = (
{
layerId = m01;
shapes = (
{
attr = {
strokeWidth = 10;
};
closed = 0;
nodes = (
(208,807,l),
(491,279,l),
(187,-9,l),
(78,265,l),
(374,490,l)
);
}
);
width = 544;
}
);
unicode = 8706;
},
{
glyphname = percent;
lastChange = "2023-03-26 15:48:02 +0000";
layers = (
{
layerId = m01;
shapes = (
{
attr = {
identifier = ID0x7fa20fa0e260;
strokeWidth = 10;
};
closed = 0;
nodes = (
(45,0,l),
(701,714,l)
);
},
{
attr = {
identifier = ID0x7fa20f42e170;
strokeWidth = 10;
};
closed = 1;
nodes = (
(157,607,l),
(323,731,l),
(393,567,l),
(223,445,l)
);
},
{
attr = {
identifier = ID0x7fa20f42e170;
strokeWidth = 10;
};
closed = 1;
nodes = (
(367,147,l),
(533,271,l),
(603,107,l),
(433,-15,l)
);
}
);
width = 703;
}
);
unicode = 37;
},
{
glyphname = perthousand;
lastChange = "2023-03-26 15:48:02 +0000";
layers = (
{
layerId = m01;
shapes = (
{
ref = percent;
},
{
attr = {
identifier = ID0x7fa20f42e170;
strokeWidth = 10;
};
closed = 1;
nodes = (
(687,147,l),
(853,271,l),
(923,107,l),
(753,-15,l)
);
}
);
width = 1023;
}
);
metricLeft = percent;
metricRight = percent;
unicode = 8240;
},
{
glyphname = upArrow;
lastChange = "2023-03-26 15:48:02 +0000";
layers = (
{
layerId = m01;
shapes = (
{
attr = {
strokeWidth = 10;
};
closed = 0;
nodes = (
(167,-11,l),
(416,809,l)
);
},
{
attr = {
strokeWidth = 10;
};
closed = 0;
nodes = (
(122,520,l),
(416,809,l),
(496,468,l)
);
}
);
width = 477;
}
);
unicode = 8593;
},
{
glyphname = rightArrow;
lastChange = "2023-03-26 15:48:02 +0000";
layers = (
{
layerId = m01;
shapes = (
{
attr = {
strokeWidth = 10;
};
closed = 0;
nodes = (
(41,341,l),
(809,343,l)
);
},
{
attr = {
strokeWidth = 10;
};
closed = 0;
nodes = (
(541,543,l),
(811,343,l),
(477,116,l)
);
}
);
width = 830;
}
);
unicode = 8594;
},
{
glyphname = downArrow;
lastChange = "2023-03-26 15:48:02 +0000";
layers = (
{
layerId = m01;
shapes = (
{
attr = {
strokeWidth = 10;
};
closed = 0;
nodes = (
(432,820,l),
(150,-56,l)
);
},
{
attr = {
strokeWidth = 10;
};
closed = 0;
nodes = (
(77,389,l),
(150,-56,l),
(451,304,l)
);
}
);
width = 496;
}
);
unicode = 8595;
},
{
glyphname = leftArrow;
lastChange = "2023-03-26 15:48:02 +0000";
layers = (
{
layerId = m01;
shapes = (
{
attr = {
strokeWidth = 10;
};
closed = 0;
nodes = (
(85,359,l),
(933,333,l)
);
},
{
attr = {
strokeWidth = 10;
};
closed = 0;
nodes = (
(466,503,l),
(85,359,l),
(411,146,l)
);
}
);
width = 927;
}
);
unicode = 8592;
},
{
glyphname = dieresiscomb;
lastChange = "2023-03-26 15:48:02 +0000";
layers = (
{
anchors = (
{
name = _top;
pos = (336,500);
}
);
layerId = m01;
shapes = (
{
attr = {
strokeWidth = 10;
};
closed = 0;
nodes = (
(244,721,l),
(310,621,l)
);
},
{
attr = {
strokeWidth = 10;
};
closed = 0;
nodes = (
(380,731,l),
(446,631,l)
);
}
);
width = 610;
}
);
unicode = 776;
},
{
glyphname = dotaccentcomb;
lastChange = "2023-03-26 15:48:02 +0000";
layers = (
{
anchors = (
{
name = _top;
pos = (186,500);
}
);
layerId = m01;
shapes = (
{
attr = {
strokeWidth = 10;
};
closed = 0;
nodes = (
(126,588,l),
(331,714,l)
);
},
{
attr = {
strokeWidth = 10;
};
closed = 0;
nodes = (
(167,744,l),
(277,571,l)
);
}
);
width = 310;
}
);
unicode = 775;
},
{
glyphname = gravecomb;
lastChange = "2023-03-26 15:48:02 +0000";
layers = (
{
anchors = (
{
name = _top;
pos = (299,500);
}
);
layerId = m01;
shapes = (
{
attr = {
strokeWidth = 10;
};
closed = 0;
nodes = (
(290,770,l),
(354,545,l)
);
}
);
width = 610;
}
);
unicode = 768;
},
{
glyphname = acutecomb;
lastChange = "2023-03-26 15:48:02 +0000";
layers = (
{
anchors = (
{
name = _top;
pos = (299,500);
}
);
layerId = m01;
shapes = (
{
attr = {
strokeWidth = 10;
};
closed = 0;
nodes = (
(295,557,l),
(467,763,l)
);
}
);
width = 610;
}
);
unicode = 769;
},
{
glyphname = circumflexcomb;
lastChange = "2023-03-26 15:48:02 +0000";
layers = (
{
anchors = (
{
name = _top;
pos = (329,500);
}
);
layerId = m01;
shapes = (
{
attr = {
strokeWidth = 10;
};
closed = 0;
nodes = (
(265,576,l),
(420,790,l),
(436,576,l)
);
}
);
width = 610;
}
);
unicode = 770;
},
{
glyphname = caroncomb;
lastChange = "2023-03-26 15:48:02 +0000";
layers = (
{
anchors = (
{
name = _top;
pos = (186,500);
}
);
layerId = m01;
shapes = (
{
attr = {
strokeWidth = 10;
};
closed = 0;
nodes = (
(365,799,l),
(210,585,l),
(194,799,l)
);
}
);
width = 310;
}
);
unicode = 780;
},
{
glyphname = brevecomb;
lastChange = "2023-03-26 15:48:02 +0000";
layers = (
{
anchors = (
{
name = _top;
pos = (186,500);
}
);
layerId = m01;
shapes = (
{
attr = {
identifier = ID0x7f7ff5b50d70;
strokeWidth = 10;
};
closed = 0;
nodes = (
(375,799,l),
(258,636,l),
(191,639,l),
(174,799,l)
);
}
);
width = 310;
}
);
unicode = 774;
},
{
glyphname = ringcomb;
lastChange = "2023-03-26 15:48:02 +0000";
layers = (
{
anchors = (
{
name = _top;
pos = (191,500);
}
);
layerId = m01;
shapes = (
{
attr = {
strokeWidth = 10;
};
closed = 1;
nodes = (
(168,673,l),
(312,771,l),
(352,647,l),
(212,556,l)
);
}
);
width = 310;
}
);
unicode = 778;
},
{
glyphname = tildecomb;
lastChange = "2023-03-26 15:48:02 +0000";
layers = (
{
anchors = (
{
name = _top;
pos = (241,500);
}
);
layerId = m01;
shapes = (
{
attr = {
strokeWidth = 10;
};
closed = 0;
nodes = (
(139,607,l),
(214,699,l),
(345,614,l),
(445,716,l)
);
}
);
width = 350;
}
);
unicode = 771;
},
{
glyphname = macroncomb;
lastChange = "2023-03-26 15:48:02 +0000";
layers = (
{
anchors = (
{
name = _top;
pos = (206,500);
}
);
layerId = m01;
shapes = (
{
attr = {
strokeWidth = 10;
};
closed = 0;
nodes = (
(118,637,l),
(402,637,l)
);
}
);
width = 310;
}
);
unicode = 772;
},
{
glyphname = commaaccentcomb;
lastChange = "2023-03-26 15:48:02 +0000";
layers = (
{
anchors = (
{
name = _bottom;
pos = (65,0);
}
);
layerId = m01;
shapes = (
{
attr = {
identifier = ID0x7f7ff9721140;
strokeWidth = 10;
};
closed = 0;
nodes = (
(69,-71,l),
(-78,-212,l)
);
}
);
width = 254;
}
);
unicode = 806;
},
{
glyphname = cedillacomb;
lastChange = "2023-03-26 15:48:02 +0000";
layers = (
{
anchors = (
{
name = _bottom;
pos = (245,0);
}
);
layerId = m01;
shapes = (
{
attr = {
strokeWidth = 10;
};
closed = 0;
nodes = (
(251,51,l),
(236,-78,l),
(325,-114,l),
(173,-226,l)
);
}
);
width = 610;
}
);
unicode = 807;
},
{
category = QUNI;
color = 5;
glyphname = Enb;
lastChange = "2023-03-26 15:48:02 +0000";
layers = (
{
layerId = m01;
shapes = (
{
attr = {
strokeWidth = 10;
};
closed = 0;
nodes = (
(549,543,l),
(406,715,l),
(150,497,l),
(350,331,l),
(457,386,l),
(382,485,l),
(29,203,l),
(245,-21,l),
(536,158,l)
);
}
);
width = 565;
}
);
production = Enb;
script = latin;
subCategory = Letter;
unicode = 989184;
},
{
category = QUNI;
color = 5;
glyphname = enb;
lastChange = "2023-03-26 15:48:02 +0000";
layers = (
{
layerId = m01;
shapes = (
{
attr = {
strokeWidth = 10;
};
closed = 0;
nodes = (
(373,377,l),
(288,510,l),
(110,377,l),
(192,153,l),
(301,229,l),
(236,335,l),
(29,127,l),
(136,-15,l),
(304,84,l)
);
}
);
width = 383;
}
);
production = enb;
script = latin;
subCategory = Letter;
unicode = 989440;
},
{
category = QUNI;
color = 5;
glyphname = A_U_L_A;
lastChange = "2023-03-26 15:48:02 +0000";
layers = (
{
layerId = m01;
shapes = (
{
ref = A;
},
{
attr = {
identifier = ID0x7f80003d7560;
strokeWidth = 10;
};
closed = 0;
nodes = (
(728,702,l),
(657,475,l),
(743,386,l),
(891,436,l),
(964,700,l)
);
},
{
attr = {
identifier = ID0x7f80003d7560;
strokeWidth = 10;
};
closed = 0;
nodes = (
(677,702,l),
(791,700,l)
);
},
{
attr = {
identifier = ID0x7f80003d7560;
strokeWidth = 10;
};
closed = 0;
nodes = (
(906,702,l),
(1020,700,l)
);
},
{
attr = {
identifier = ID0x7f80003d7680;
strokeWidth = 10;
};
closed = 0;
nodes = (
(813,-5,l),
(555,-5,l)
);
},
{
attr = {
identifier = ID0x7f80003d7680;
strokeWidth = 10;
};
closed = 0;
nodes = (
(597,-3,l),
(691,308,l)
);
},
{
attr = {
identifier = ID0x7f80003d7680;
strokeWidth = 10;
};
closed = 0;
nodes = (
(769,311,l),
(617,309,l)
);
},
{
attr = {
identifier = ID0x7f80003d77a0;
strokeWidth = 10;
};
closed = 0;
nodes = (
(845,-3,l),
(959,-3,l)
);
},
{
attr = {
identifier = ID0x7f80003d77a0;
strokeWidth = 10;
};
closed = 0;
nodes = (
(745,141,l),
(960,143,l)
);
},
{
attr = {
identifier = ID0x7f80003d77a0;
strokeWidth = 10;
};
closed = 0;
nodes = (
(764,44,l),
(1012,312,l),
(921,-2,l)
);
},
{
attr = {
strokeWidth = 10;
};
closed = 0;
nodes = (
(494,759,l),
(651,791,l)
);
}
);
width = 1058;
}
);
metricLeft = A;
metricRight = A;
script = latin;
subCategory = Ligature;
},
{
category = QUNI;
color = 5;
glyphname = E_S_S;
lastChange = "2023-03-26 15:48:02 +0000";
layers = (
{
layerId = m01;
shapes = (
{
attr = {
identifier = ID0x7f80003d85d0;
strokeWidth = 10;
};
closed = 0;
nodes = (
(139,712,l),
(550,703,l)
);
},
{
attr = {
identifier = ID0x7f80003d85d0;
strokeWidth = 10;
};
closed = 0;
nodes = (
(67,-8,l),
(255,713,l)
);
},
{
attr = {
identifier = ID0x7f80003d85d0;
strokeWidth = 10;
};
closed = 0;
nodes = (
(158,357,l),
(360,357,l)
);
},
{
attr = {
identifier = ID0x7f80003d85d0;
strokeWidth = 10;
};
closed = 0;
nodes = (
(-74,-11,l),
(447,-10,l)
);
},
{
pos = (337,0);
ref = S_S;
}
);
width = 1481;
}
);
metricLeft = E;
metricRight = S;
script = latin;
subCategory = Ligature;
},
{
category = QUNI;
color = 5;
glyphname = G_U;
lastChange = "2023-03-26 15:48:02 +0000";
layers = (
{
layerId = m01;
shapes = (
{
ref = G;
},
{
attr = {
identifier = ID0x7fa222bcd9f0;
strokeWidth = 10;
};
closed = 0;
nodes = (
(565,300,l),
(590,-10,l),
(821,212,l),
(964,702,l)
);
},
{
attr = {
identifier = ID0x7fa222bcd9f0;
strokeWidth = 10;
};
closed = 0;
nodes = (
(852,705,l),
(1070,700,l)
);
}
);
width = 986;
}
);
metricLeft = G;
metricRight = U;
script = latin;
subCategory = Ligature;
},
{
category = QUNI;
color = 5;
glyphname = O_Idieresis_N;
lastChange = "2023-03-26 15:48:02 +0000";
layers = (
{
layerId = m01;
shapes = (
{
attr = {
identifier = ID0x7fa225db3530;
strokeWidth = 10;
};
closed = 1;
nodes = (
(56,341,l),
(467,709,l),
(617,425,l),
(250,-22,l)
);
},
{
attr = {
identifier = ID0x7fa222db24b0;
strokeWidth = 10;
};
closed = 0;
nodes = (
(753,713,l),
(954,714,l)
);
},
{
attr = {
identifier = ID0x7fa222db24b0;
strokeWidth = 10;
};
closed = 0;
nodes = (
(869,713,l),
(641,-9,l),
(299,561,l)
);
},
{
pos = (512,200);
ref = dieresiscomb;
},
{
attr = {
identifier = ID0x7f7ff5cc98f0;
strokeWidth = 10;
};
closed = 0;
nodes = (
(867,715,l)
);
},
{
attr = {
identifier = ID0x7f7ff5cc98f0;
strokeWidth = 10;
};
closed = 0;
nodes = (
(824,572,l),
(1286,-209,l),
(1466,-210,l)
);
},
{
attr = {
identifier = ID0x7f7ff5cc98f0;
strokeWidth = 10;
};
closed = 0;
nodes = (
(1330,700,l),
(1142,30,l)
);
},
{
attr = {
identifier = ID0x7f7ff5cc98f0;
strokeWidth = 10;
};
closed = 0;
nodes = (
(1213,699,l),
(1403,701,l)
);
}
);
width = 1346;
}
);
metricLeft = O;
script = latin;
subCategory = Ligature;
},
{
category = QUNI;
color = 5;
glyphname = a_u_l_a;
lastChange = "2023-03-26 15:48:02 +0000";
layers = (
{
layerId = m01;
shapes = (
{
attr = {
identifier = ID0x7fa222584ea0;
strokeWidth = 10;
};
closed = 0;
nodes = (
(240,256,l),
(121,353,l),
(-8,-9,l),
(200,147,l)
);
},
{
attr = {
identifier = ID0x7fa222584ea0;
strokeWidth = 10;
};
closed = 0;
nodes = (
(271,353,l),
(149,-7,l),
(246,70,l)
);
},
{
attr = {
identifier = ID0x7fa222583cd0;
strokeWidth = 10;
};
closed = 0;
nodes = (
(300,265,l),
(418,360,l),
(318,-7,l),
(620,357,l),
(488,-5,l),
(617,81,l)
);
},
{
pos = (646,0);
ref = l;
slant = (2,0);
},
{
pos = (910,0);
ref = a;
},
{
attr = {
identifier = ID0x7fa2238083b0;
strokeWidth = 10;
};
closed = 0;
nodes = (
(701,676,l),
(551,803,l),
(372,441,l),
(681,618,l)
);
},
{
attr = {
identifier = ID0x7fa2238083b0;
strokeWidth = 10;
};
closed = 0;
nodes = (
(741,803,l),
(619,442,l),
(715,521,l)
);
},
{
attr = {
identifier = ID0x7fa22380bed0;
strokeWidth = 10;
};
closed = 0;
nodes = (
(622,895,l),
(667,788,l)
);
}
);
width = 1308;
}
);
metricLeft = a;
metricRight = a;
script = latin;
subCategory = Ligature;
},
{
category = QUNI;
color = 5;
glyphname = e_s_s;
lastChange = "2023-03-26 15:48:02 +0000";
layers = (
{
anchors = (
{
name = top;
pos = (223,500);
}
);
layerId = m01;
shapes = (
{
attr = {
identifier = 0x6000058e59e0;
strokeWidth = 10;
};
closed = 0;
nodes = (
(66,204,l),
(286,364,l),
(304,515,l),
(142,411,l),
(-8,-11,l),
(555,395,l),
(497,500,l),
(389,427,l),
(511,62,l),
(389,-16,l),
(309,94,l),
(858,375,l),
(799,500,l),
(691,427,l),
(813,62,l),
(691,-16,l),
(581,87,l)
);
}
);
width = 905;
}
);
metricLeft = e;
metricRight = s;
script = latin;
subCategory = Ligature;
},
{
category = QUNI;
color = 5;
glyphname = g_u;
lastChange = "2023-03-26 16:11:12 +0000";
layers = (
{
layerId = m01;
shapes = (
{
attr = {
identifier = ID0x7fa22257fc80;
strokeWidth = 10;
};
closed = 1;
nodes = (
(78,317,l),
(255,506,l),
(315,307,l),
(142,120,l)
);
},
{
attr = {
identifier = ID0x7fa22257fc80;
strokeWidth = 10;
};
closed = 0;
nodes = (
(256,507,l),
(497,510,l)
);
},
{
attr = {
identifier = ID0x7fa22257fc80;
strokeWidth = 10;
};
closed = 0;
nodes = (
(142,120,l),
(58,23,l),
(201,-207,l),
(-22,-403,l),
(-113,-177,l),
(95,-28,l)
);
},
{
attr = {
identifier = ID0x7fa22250a820;
strokeWidth = 10;
};
closed = 0;
nodes = (
(316,307,l),
(260,-6,l),
(663,514,l),
(475,-4,l),
(658,120,l)
);
}
);
width = 702;
}
);
metricLeft = g;
metricRight = u;
script = latin;
subCategory = Ligature;
},
{
category = QUNI;
color = 5;
glyphname = o_idieresis_n;
lastChange = "2023-03-26 15:48:02 +0000";
layers = (
{
layerId = m01;
shapes = (
{
ref = o;
},
{
attr = {
identifier = ID0x7fa2229304a0;
strokeWidth = 10;
};
closed = 0;
nodes = (
(155,404,l),
(173,215,l),
(515,512,l),
(404,-5,l),
(733,509,l),
(777,3,l)
);
},
{
pos = (144,0);
ref = dieresiscomb;
}
);
width = 853;
}
);
metricLeft = o;
metricRight = n;
script = latin;
subCategory = Ligature;
},
{
category = QUNI;
color = 5;
glyphname = A_O;
lastChange = "2023-03-26 15:48:02 +0000";
layers = (
{
layerId = m01;
shapes = (
{
attr = {
identifier = ID0x7f80003d6e70;
strokeWidth = 10;
};
closed = 0;
nodes = (
(-322,-189,l),
(-127,-276,l),
(589,715,l),
(413,-2,l),
(269,-6,l)
);
},
{
attr = {
identifier = ID0x7f80003d6e70;
strokeWidth = 10;
};
closed = 0;
nodes = (
(80,322,l),
(758,335,l)
);
},
{
attr = {
identifier = ID0x7f80003d6f90;
strokeWidth = 10;
};
closed = 0;
nodes = (
(618,518,l),
(845,709,l),
(1025,325,l),
(598,-22,l),
(521,138,l)
);
}
);
width = 1036;
}
);
metricLeft = A;
metricRight = O;
script = latin;
subCategory = Ligature;
unicode = 987184;
},
{
category = QUNI;
color = 5;
glyphname = a_o;
lastChange = "2023-03-26 15:48:02 +0000";
layers = (
{
layerId = m01;
shapes = (
{
attr = {
identifier = ID0x7fa222585d20;
strokeWidth = 10;
};
closed = 0;
nodes = (
(343,373,l),
(177,509,l),
(-8,-9,l),
(291,214,l)
);
},
{
pos = (222,0);
ref = o;
}
);
width = 625;
}
);
metricLeft = a;
metricRight = o;
script = latin;
subCategory = Ligature;
unicode = 987440;
},
{
category = QUNI;
color = 5;
glyphname = C_H;
lastChange = "2023-03-26 15:48:02 +0000";
layers = (
{
layerId = m01;
shapes = (
{
ref = C;
},
{
attr = {
identifier = ID0x7fa222c053f0;
strokeWidth = 10;
};
closed = 0;
nodes = (
(294,340,l),
(770,320,l)
);
},
{
attr = {
identifier = ID0x7fa222c053f0;
strokeWidth = 10;
};
closed = 0;
nodes = (
(613,-9,l),
(832,-11,l)
);
},
{
attr = {
identifier = ID0x7fa222c053f0;
strokeWidth = 10;
};
closed = 0;
nodes = (
(723,-6,l),
(826,635,l),
(1003,837,l)
);
}
);
width = 883;
}
);
metricLeft = C;
metricRight = H;
script = latin;
subCategory = Ligature;
unicode = 988176;
},
{
category = QUNI;
color = 5;
glyphname = C_Q_U;
lastChange = "2023-03-26 15:48:02 +0000";
layers = (
{
layerId = m01;
shapes = (
{
attr = {
identifier = ID0x7fa223ba3820;
strokeWidth = 10;
};
closed = 0;
nodes = (
(31,-188,l),
(488,170,l),
(614,-10,l),
(877,108,l),
(1018,712,l)
);
},
{
attr = {
strokeWidth = 10;
};
closed = 0;
nodes = (
(507,-342,l),
(137,-109,l)
);
},
{
attr = {
identifier = ID0x7f7ff7d7e2b0;
strokeWidth = 10;
};
closed = 0;
nodes = (
(625,716,l),
(549,428,l),
(377,716,l),
(56,343,l),
(226,-39,l)
);
},
{
attr = {
identifier = ID0x7f7ff7d7e2b0;
strokeWidth = 10;
};
closed = 0;
nodes = (
(526,715,l),
(744,710,l)
);
},
{
attr = {
identifier = ID0x7f7ff7d7e2b0;
strokeWidth = 10;
};
closed = 0;
nodes = (
(906,715,l),
(1124,710,l)
);
}
);
width = 1037;
}
);
metricLeft = C;
metricRight = U;
script = latin;
subCategory = Ligature;
unicode = 988240;
},
{
category = QUNI;
color = 5;
glyphname = c_h;
lastChange = "2023-03-26 15:48:02 +0000";
layers = (
{
layerId = m01;
shapes = (
{
attr = {
identifier = ID0x7fa22250ac60;
strokeWidth = 10;
};
closed = 0;
nodes = (
(230,447,l),
(142,519,l),
(-4,-10,l),
(386,165,l)
);
},
{
attr = {
identifier = ID0x7fa222509180;
strokeWidth = 10;
};
closed = 0;
nodes = (
(268,747,l),
(448,807,l),
(240,232,l),
(480,513,l),
(495,0,l)
);
}
);
width = 572;
}
);
metricLeft = c;
metricRight = h;
script = latin;
subCategory = Ligature;
unicode = 988432;
},
{
category = QUNI;
color = 5;
glyphname = c_q_u;
lastChange = "2023-03-26 16:11:12 +0000";
layers = (
{
layerId = m01;
shapes = (
{
attr = {
identifier = ID0x7fa222509630;
strokeWidth = 10;
};
closed = 0;
nodes = (
(360,390,l),
(163,519,l),
(4,-10,l),
(229,146,l),
(93,-411,l)
);
},
{
attr = {
identifier = ID0x7fa22258d9f0;
strokeWidth = 10;
};
closed = 0;
nodes = (
(-114,-406,l),
(236,-419,l)
);
},
{
attr = {
identifier = ID0x7f7ff5b4d960;
strokeWidth = 10;
};
closed = 0;
nodes = (
(256,257,l),
(192,-6,l),
(623,514,l),
(435,-4,l),
(618,120,l)
);
}
);
width = 662;
}
);
metricLeft = c;
metricRight = u;
script = latin;
subCategory = Ligature;
unicode = 988496;
},
{
category = QUNI;
color = 5;
glyphname = D_U_D_E_L_A;
lastChange = "2023-03-26 15:48:02 +0000";
layers = (
{
layerId = m01;
shapes = (
{
ref = D;
},
{
attr = {
identifier = ID0x7fa222278080;
strokeWidth = 10;
};
closed = 0;
nodes = (
(799,711,l),
(709,492,l),
(815,405,l),
(985,456,l),
(1079,709,l)
);
},
{
attr = {
identifier = ID0x7fa222278080;
strokeWidth = 10;
};
closed = 0;
nodes = (
(716,710,l),
(883,708,l)
);
},
{
attr = {
identifier = ID0x7fa222278080;
strokeWidth = 10;
};
closed = 0;
nodes = (
(984,711,l),
(1151,708,l)
);
},
{
attr = {
identifier = ID0x7fa223b89b30;
strokeWidth = 10;
};
closed = 0;
nodes = (
(683,302,l),
(977,299,l),
(926,234,l)
);
},
{
attr = {
identifier = ID0x7fa223b89b30;
strokeWidth = 10;
};
closed = 0;
nodes = (
(652,0,l),
(761,303,l)
);
},
{
attr = {
identifier = ID0x7fa223b89b30;
strokeWidth = 10;
};
closed = 0;
nodes = (
(705,154,l),
(830,154,l)
);
},
{
attr = {
identifier = ID0x7fa223b89b30;
strokeWidth = 10;
};
closed = 0;
nodes = (
(557,0,l),
(878,0,l),
(862,59,l)
);
},
{
attr = {
identifier = ID0x7fa223b89b30;
strokeWidth = 10;
};
closed = 0;
nodes = (
(837,180,l),
(829,129,l)
);
},
{
attr = {
identifier = ID0x7fa223b9adf0;
strokeWidth = 10;
};
closed = 0;
nodes = (
(1241,0,l),
(950,0,l)
);
},
{
attr = {
identifier = ID0x7fa223b9adf0;
strokeWidth = 10;
};
closed = 0;
nodes = (
(1002,1,l),
(1108,300,l)
);
},
{
attr = {
identifier = ID0x7fa223b9adf0;
strokeWidth = 10;
};
closed = 0;
nodes = (
(1205,303,l),
(1013,301,l)
);
},
{
attr = {
identifier = ID0x7fa23de59490;
strokeWidth = 10;
};
closed = 0;
nodes = (
(1325,1,l),
(1442,3,l)
);
},
{
attr = {
identifier = ID0x7fa23de59490;
strokeWidth = 10;
};
closed = 0;
nodes = (
(1160,138,l),
(1435,140,l)
);
},
{
attr = {
identifier = ID0x7fa23de59490;
strokeWidth = 10;
};
closed = 0;
nodes = (
(1214,50,l),
(1493,304,l),
(1391,3,l)
);
}
);
width = 1540;
}
);
metricLeft = D;
metricRight = A;
script = latin;
subCategory = Ligature;
unicode = 988720;
},
{
category = QUNI;
color = 5;
glyphname = d_u_d_e_l_a;
lastChange = "2023-03-26 15:48:02 +0000";
layers = (
{
layerId = m01;
shapes = (
{
alignment = -1;
ref = d;
},
{
attr = {
identifier = ID0x7fa22258dfc0;
strokeWidth = 10;
};
closed = 0;
nodes = (
(553,710,l),
(668,800,l),
(562,481,l),
(860,796,l),
(724,482,l),
(850,585,l)
);
},
{
attr = {
identifier = ID0x7fa22258e200;
strokeWidth = 10;
};
closed = 0;
nodes = (
(496,155,l),
(704,279,l),
(726,386,l),
(555,316,l),
(439,-11,l),
(680,121,l)
);
},
{
pos = (714,0);
ref = l;
slant = (5.9806,0);
},
{
pos = (986,0);
ref = a;
}
);
width = 1384;
}
);
metricLeft = d;
metricRight = a;
script = latin;
subCategory = Ligature;
unicode = 988976;
},
{
category = QUNI;
color = 5;
glyphname = E_A;
lastChange = "2023-03-26 15:48:02 +0000";
layers = (
{
layerId = m01;
shapes = (
{
attr = {
identifier = ID0x7fa2320b7ff0;
strokeWidth = 10;
};
closed = 0;
nodes = (
(139,712,l),
(590,703,l),
(509,548,l)
);
},
{
attr = {
identifier = ID0x7fa2320b7ff0;
strokeWidth = 10;
};
closed = 0;
nodes = (
(67,-8,l),
(255,713,l)
);
},
{
attr = {
identifier = ID0x7fa2320b7ff0;
strokeWidth = 10;
};
closed = 0;
nodes = (
(158,357,l),
(812,323,l)
);
},
{
attr = {
identifier = ID0x7fa2320b7ff0;
strokeWidth = 10;
};
closed = 0;
nodes = (
(-74,-11,l),
(527,-7,l),
(509,107,l)
);
},
{
attr = {
identifier = ID0x7fa2320b8110;
strokeWidth = 10;
};
closed = 0;
nodes = (
(593,-6,l),
(813,-3,l)
);
},
{
attr = {
identifier = ID0x7fa2320b8110;
strokeWidth = 10;
};
closed = 0;
nodes = (
(272,85,l),
(913,715,l),
(737,-2,l)
);
}
);
width = 912;
}
);
metricLeft = E;
metricRight = A;
script = latin;
subCategory = Ligature;
unicode = 989200;
},
{
category = QUNI;
color = 5;
glyphname = E_S;
lastChange = "2023-03-26 15:48:02 +0000";
layers = (
{
layerId = m01;
shapes = (
{
attr = {
identifier = ID0x7f80003d85d0;
strokeWidth = 10;
};
closed = 0;
nodes = (
(139,712,l),
(550,703,l)
);
},
{
attr = {
identifier = ID0x7f80003d85d0;
strokeWidth = 10;
};
closed = 0;
nodes = (
(67,-8,l),
(255,713,l)
);
},
{
attr = {
identifier = ID0x7f80003d85d0;
strokeWidth = 10;
};
closed = 0;
nodes = (
(158,357,l),
(360,357,l)
);
},
{
attr = {
identifier = ID0x7f80003d85d0;
strokeWidth = 10;
};
closed = 0;
nodes = (
(-74,-11,l),
(447,-10,l)
);
},
{
pos = (337,0);
ref = S;
}
);
width = 914;
}
);
metricLeft = E;
metricRight = S;
script = latin;
subCategory = Ligature;
unicode = 989264;
},
{
category = QUNI;
color = 5;
glyphname = E_T_T;
lastChange = "2023-03-26 15:48:02 +0000";
layers = (
{
anchors = (
{
name = top;
pos = (389,700);
}
);
layerId = m01;
shapes = (
{
attr = {
identifier = 0x6000082dac70;
strokeWidth = 10;
};
closed = 0;
nodes = (
(139,712,l),
(1890,713,l),
(1759,498,l)
);
},
{
attr = {
identifier = 0x6000082dac70;
strokeWidth = 10;
};
closed = 0;
nodes = (
(67,-8,l),
(255,713,l)
);
},
{
attr = {
identifier = 0x6000082dac70;
strokeWidth = 10;
};
closed = 0;
nodes = (
(158,357,l),
(390,357,l)
);
},
{
attr = {
identifier = 0x6000082dac70;
strokeWidth = 10;
};
closed = 0;
nodes = (
(-74,-11,l),
(447,-7,l),
(429,134,l)
);
},
{
attr = {
identifier = 0x6000082dac70;
strokeWidth = 10;
};
closed = 0;
nodes = (
(402,419,l),
(386,297,l)
);
},
{
attr = {
identifier = 0x600008232160;
strokeWidth = 10;
};
closed = 0;
nodes = (
(821,0,l),
(979,713,l)
);
},
{
attr = {
identifier = 0x600008232160;
strokeWidth = 10;
};
closed = 0;
nodes = (
(660,-1,l),
(987,-7,l)
);
},
{
attr = {
identifier = 0x600008233b40;
strokeWidth = 10;
};
closed = 0;
nodes = (
(1377,0,l),
(1535,713,l)
);
},
{
attr = {
identifier = 0x600008233b40;
strokeWidth = 10;
};
closed = 0;
nodes = (
(1216,-1,l),
(1543,-7,l)
);
}
);
width = 1804;
}
);
metricLeft = E;
metricRight = T;
script = latin;
subCategory = Ligature;
unicode = 989296;
},
{
category = QUNI;
color = 5;
glyphname = E_U;
lastChange = "2023-03-26 15:48:02 +0000";
layers = (
{
layerId = m01;
shapes = (
{
attr = {
identifier = ID0x7fa22ee5f7d0;
strokeWidth = 10;
};
closed = 0;
nodes = (
(139,712,l),
(769,706,l)
);
},
{
attr = {
identifier = ID0x7fa22ee5f7d0;
strokeWidth = 10;
};
closed = 0;
nodes = (
(67,-8,l),
(255,713,l)
);
},
{
attr = {
identifier = ID0x7fa22ee5f7d0;
strokeWidth = 10;
};
closed = 0;
nodes = (
(158,357,l),
(360,357,l)
);
},
{
attr = {
identifier = ID0x7fa22ee5f7d0;
strokeWidth = 10;
};
closed = 0;
nodes = (
(-74,-11,l),
(485,-10,l)
);
},
{
attr = {
identifier = ID0x7fa22ee5f7d0;
strokeWidth = 10;
};
closed = 0;
nodes = (
(372,419,l),
(356,297,l)
);
},
{
attr = {
identifier = ID0x7fa2220e8820;
strokeWidth = 10;
};
closed = 0;
nodes = (
(647,708,l),
(512,195,l),
(638,-10,l),
(881,108,l),
(1022,707,l)
);
},
{
attr = {
identifier = ID0x7fa2220e8820;
strokeWidth = 10;
};
closed = 0;
nodes = (
(910,710,l),
(1128,705,l)
);
}
);
width = 1042;
}
);
metricLeft = E;
metricRight = U;
script = latin;
subCategory = Ligature;
unicode = 989344;
},
{
category = QUNI;
color = 5;
glyphname = e_a;
lastChange = "2023-03-26 15:48:02 +0000";
layers = (
{
layerId = m01;
shapes = (
{
attr = {
identifier = ID0x7fa222598e10;
strokeWidth = 10;
};
closed = 0;
nodes = (
(75,204,l),
(300,364,l),
(318,515,l),
(156,411,l),
(-7,-11,l),
(285,230,l)
);
},
{
attr = {
identifier = ID0x7fa222598f30;
strokeWidth = 10;
};
closed = 0;
nodes = (
(486,371,l),
(321,521,l)
);
},
{
attr = {
identifier = ID0x7fa222598f30;
strokeWidth = 10;
};
closed = 0;
nodes = (
(529,509,l),
(355,-7,l),
(493,105,l)
);
},
{
attr = {
identifier = ID0x7fa222598f30;
strokeWidth = 10;
};
closed = 0;
nodes = (
(429,214,l),
(130,-9,l),
(187,149,l)
);
}
);
width = 536;
}
);
metricLeft = e;
metricRight = a;
script = latin;
subCategory = Ligature;
unicode = 989456;
},
{
category = QUNI;
color = 5;
glyphname = e_s;
lastChange = "2023-03-26 15:48:02 +0000";
layers = (
{
anchors = (
{
name = top;
pos = (223,500);
}
);
layerId = m01;
shapes = (
{
attr = {
identifier = 0x600005b1fea0;
strokeWidth = 10;
};
closed = 0;
nodes = (
(66,204,l),
(286,364,l),
(304,515,l),
(142,411,l),
(-8,-11,l),
(578,396,l),
(510,500,l),
(402,427,l),
(524,62,l),
(402,-16,l),
(292,87,l)
);
}
);
width = 616;
}
);
metricLeft = e;
metricRight = s;
script = latin;
subCategory = Ligature;
unicode = 989520;
},
{
category = QUNI;
color = 5;
glyphname = e_t_t;
lastChange = "2023-03-26 15:48:02 +0000";
layers = (
{
layerId = m01;
shapes = (
{
attr = {
identifier = ID0x7fa2225999b0;
strokeWidth = 10;
};
closed = 0;
nodes = (
(66,204,l),
(286,364,l),
(304,515,l),
(142,411,l),
(-8,-11,l),
(447,281,l)
);
},
{
attr = {
identifier = ID0x7fa20e125a00;
strokeWidth = 10;
};
closed = 0;
nodes = (
(558,663,l),
(362,-6,l),
(766,253,l)
);
},
{
attr = {
identifier = ID0x7fa20e125a00;
strokeWidth = 10;
};
closed = 0;
nodes = (
(400,482,l),
(992,504,l)
);
},
{
attr = {
identifier = ID0x7fa20e125a00;
strokeWidth = 10;
};
closed = 0;
nodes = (
(888,663,l),
(692,-6,l),
(927,150,l)
);
}
);
width = 968;
}
);
metricLeft = e;
metricRight = t;
script = latin;
subCategory = Ligature;
unicode = 989552;
},
{
category = QUNI;
color = 5;
glyphname = e_u;
lastChange = "2023-03-26 16:11:12 +0000";
layers = (
{
layerId = m01;
shapes = (
{
attr = {
identifier = ID0x7fa2225912c0;
strokeWidth = 10;
};
closed = 0;
nodes = (
(66,204,l),
(296,363,l),
(314,514,l),
(142,411,l),
(-8,-11,l),
(317,264,l)
);
},
{
attr = {
identifier = ID0x7fa2225913e0;
strokeWidth = 10;
};
closed = 0;
nodes = (
(212,174,l),
(223,-6,l),
(577,514,l),
(419,-4,l),
(602,120,l)
);
}
);
width = 646;
}
);
metricLeft = e;
metricRight = u;
script = latin;
subCategory = Ligature;
unicode = 989600;
},
{
category = QUNI;
color = 5;
glyphname = F_F_E;
lastChange = "2023-03-26 15:48:02 +0000";
layers = (
{
layerId = m01;
shapes = (
{
attr = {
identifier = ID0x7fa20e56bc80;
strokeWidth = 10;
};
closed = 0;
nodes = (
(140,712,l),
(921,703,l)
);
},
{
attr = {
identifier = ID0x7fa20e56bc80;
strokeWidth = 10;
};
closed = 0;
nodes = (
(98,-8,l),
(256,713,l)
);
},
{
attr = {
identifier = ID0x7fa20e56bc80;
strokeWidth = 10;
};
closed = 0;
nodes = (
(168,317,l),
(798,392,l)
);
},
{
attr = {
identifier = ID0x7fa20e56bc80;
strokeWidth = 10;
};
closed = 0;
nodes = (
(-43,-11,l),
(274,-7,l)
);
},
{
attr = {
identifier = ID0x7fa20e555ee0;
strokeWidth = 10;
};
closed = 0;
nodes = (
(485,-8,l),
(643,713,l)
);
},
{
attr = {
identifier = ID0x7fa20e555ee0;
strokeWidth = 10;
};
closed = 0;
nodes = (
(344,-11,l),
(661,-7,l)
);
},
{
pos = (690,0);
ref = Enb;
}
);
width = 1295;
}
);
metricLeft = F;
metricRight = E;
script = latin;
subCategory = Ligature;
unicode = 991280;
},
{
category = QUNI;
color = 5;
glyphname = F_V;
lastChange = "2023-03-26 15:48:02 +0000";
layers = (
{
layerId = m01;
shapes = (
{
attr = {
identifier = ID0x7fa223b8a290;
strokeWidth = 10;
};
closed = 0;
nodes = (
(140,712,l),
(621,703,l),
(480,498,l)
);
},
{
attr = {
identifier = ID0x7fa223b8a290;
strokeWidth = 10;
};
closed = 0;
nodes = (
(98,-8,l),
(256,713,l)
);
},
{
attr = {
identifier = ID0x7fa223b8a290;
strokeWidth = 10;
};
closed = 0;
nodes = (
(168,317,l),
(473,322,l),
(418,-9,l),
(936,697,l)
);
},
{
attr = {
identifier = ID0x7fa223b8a290;
strokeWidth = 10;
};
closed = 0;
nodes = (
(-43,-11,l),
(274,-7,l)
);
}
);
width = 856;
}
);
metricLeft = F;
metricRight = V;
script = latin;
subCategory = Ligature;
unicode = 991312;
},
{
category = QUNI;
color = 5;
glyphname = f_f_e;
lastChange = "2023-03-26 15:48:02 +0000";
layers = (
{
layerId = m01;
shapes = (
{
attr = {
identifier = ID0x7fa2216cdae0;
strokeWidth = 10;
};
closed = 0;
nodes = (
(381,746,l),
(256,812,l),
(-56,-306,l),
(-208,-409,l)
);
},
{
attr = {
identifier = ID0x7fa2216cdae0;
strokeWidth = 10;
};
closed = 0;
nodes = (
(31,312,l),
(524,377,l)
);
},
{
attr = {
identifier = ID0x7fa2216cdae0;
strokeWidth = 10;
};
closed = 0;
nodes = (
(646,712,l),
(478,812,l),
(166,-306,l),
(14,-409,l)
);
},
{
pos = (414,0);
ref = enb;
}
);
width = 797;
}
);
metricLeft = f;
metricRight = e;
script = latin;
subCategory = Ligature;
unicode = 991536;
},
{
category = QUNI;
color = 5;
glyphname = f_v;
lastChange = "2023-03-26 15:48:02 +0000";
layers = (
{
layerId = m01;
shapes = (
{
attr = {
identifier = ID0x7fa222581fb0;
strokeWidth = 10;
};
closed = 0;
nodes = (
(424,712,l),
(256,812,l),
(-56,-306,l),
(-208,-409,l)
);
},
{
attr = {
identifier = ID0x7fa222581fb0;
strokeWidth = 10;
};
closed = 0;
nodes = (
(58,487,l),
(169,495,l)
);
},
{
attr = {
strokeWidth = 10;
};
closed = 0;
nodes = (
(28,-6,l),
(483,495,l)
);
}
);
width = 422;
}
);
metricLeft = f;
metricRight = v;
script = latin;
subCategory = Ligature;
unicode = 991568;
},
{
category = QUNI;
color = 5;
glyphname = H_O_F;
lastChange = "2023-03-26 15:48:02 +0000";
layers = (
{
layerId = m01;
shapes = (
{
attr = {
identifier = ID0x7fa222580e20;
strokeWidth = 10;
};
closed = 0;
nodes = (
(140,713,l),
(313,714,l)
);
},
{
attr = {
identifier = ID0x7fa222580e20;
strokeWidth = 10;
};
closed = 0;
nodes = (
(228,713,l),
(80,-9,l)
);
},
{
attr = {
identifier = ID0x7fa222580e20;
strokeWidth = 10;
};
closed = 0;
nodes = (
(-11,-3,l),
(196,-10,l)
);
},
{
attr = {
identifier = ID0x7fa222580e20;
strokeWidth = 10;
};
closed = 0;
nodes = (
(153,340,l),
(475,340,l)
);
},
{
pos = (422,0);
ref = O;
},
{
attr = {
identifier = ID0x7fa2225a7c80;
strokeWidth = 10;
};
closed = 0;
nodes = (
(1089,711,l),
(1498,703,l),
(1357,498,l)
);
},
{
attr = {
identifier = ID0x7fa2225a7c80;
strokeWidth = 10;
};
closed = 0;
nodes = (
(1045,324,l),
(1297,324,l)
);
},
{
attr = {
identifier = ID0x7fa2225a7c80;
strokeWidth = 10;
};
closed = 0;
nodes = (
(854,-11,l),
(1151,-7,l)
);
},
{
attr = {
identifier = ID0x7fa2225a7c80;
strokeWidth = 10;
};
closed = 0;
nodes = (
(1309,396,l),
(1293,274,l)
);
},
{
attr = {
strokeWidth = 10;
};
closed = 0;
nodes = (
(1012,144,l),
(982,-4,l)
);
}
);
width = 1404;
}
);
metricLeft = H;
metricRight = F;
script = latin;
subCategory = Ligature;
unicode = 992272;
},
{
category = QUNI;
color = 5;
glyphname = h_o_f;
lastChange = "2023-03-26 15:48:02 +0000";
layers = (
{
layerId = m01;
shapes = (
{
attr = {
identifier = ID0x7fa222587b30;
strokeWidth = 10;
};
closed = 0;
nodes = (
(994,712,l),
(826,812,l),
(514,-306,l),
(362,-409,l)
);
},
{
attr = {
identifier = ID0x7fa222587b30;
strokeWidth = 10;
};
closed = 0;
nodes = (
(730,490,l),
(909,495,l)
);
},
{
alignment = -1;
ref = h;
},
{
attr = {
identifier = ID0x7fa222587a10;
strokeWidth = 10;
};
closed = 1;
nodes = (
(355,318,l),
(364,-12,l),
(665,242,l),
(574,514,l)
);
}
);
width = 802;
}
);
metricLeft = h;
metricRight = f;
script = latin;
subCategory = Ligature;
unicode = 992528;
},
{
category = QUNI;
color = 5;
glyphname = L_E;
lastChange = "2023-03-26 15:48:02 +0000";
layers = (
{
layerId = m01;
shapes = (
{
attr = {
identifier = ID0x7f800dee4190;
strokeWidth = 10;
};
closed = 0;
nodes = (
(416,711,l),
(764,705,l),
(705,593,l)
);
},
{
attr = {
identifier = ID0x7f800dee4190;
strokeWidth = 10;
};
closed = 0;
nodes = (
(365,191,l),
(500,712,l)
);
},
{
attr = {
identifier = ID0x7f800dee4190;
strokeWidth = 10;
};
closed = 0;
nodes = (
(431,455,l),
(598,455,l)
);
},
{
attr = {
identifier = ID0x7f800dee4190;
strokeWidth = 10;
};
closed = 0;
nodes = (
(278,189,l),
(639,190,l),
(626,294,l)
);
},
{
attr = {
identifier = ID0x7f800dee4190;
strokeWidth = 10;
};
closed = 0;
nodes = (
(607,500,l),
(595,411,l)
);
},
{
attr = {
identifier = ID0x7f800981a780;
strokeWidth = 10;
};
closed = 0;
nodes = (
(639,-11,l),
(31,-11,l)
);
},
{
attr = {
identifier = ID0x7f800981a780;
strokeWidth = 10;
};
closed = 0;
nodes = (
(108,-7,l),
(290,706,l)
);
},
{
attr = {
identifier = ID0x7f800981a780;
strokeWidth = 10;
};
closed = 0;
nodes = (
(376,713,l),
(149,707,l)
);
}
);
width = 750;
}
);
metricLeft = L;
metricRight = E;
script = latin;
subCategory = Ligature;
unicode = 995856;
},
{
category = QUNI;
color = 5;
glyphname = L_L;
lastChange = "2023-03-26 15:48:02 +0000";
layers = (
{
layerId = m01;
shapes = (
{
attr = {
identifier = ID0x7f800981a780;
strokeWidth = 10;
};
closed = 0;
nodes = (
(613,-11,l),
(31,-11,l)
);
},
{
attr = {
identifier = ID0x7f800981a780;
strokeWidth = 10;
};
closed = 0;
nodes = (
(108,-7,l),
(290,706,l)
);
},
{
attr = {
identifier = ID0x7f800981a780;
strokeWidth = 10;
};
closed = 0;
nodes = (
(376,713,l),
(149,707,l)
);
},
{
attr = {
identifier = ID0x7f800e8f2740;
strokeWidth = 10;
};
closed = 0;
nodes = (
(640,274,l),
(660,175,l),
(346,175,l)
);
},
{
attr = {
identifier = ID0x7f800e8f2740;
strokeWidth = 10;
};
closed = 0;
nodes = (
(395,178,l),
(537,713,l)
);
},
{
attr = {
identifier = ID0x7f800e8f2740;
strokeWidth = 10;
};
closed = 0;
nodes = (
(631,718,l),
(447,714,l)
);
}
);
width = 702;
}
);
metricLeft = L;
script = latin;
subCategory = Ligature;
unicode = 995872;
},
{
category = QUNI;
color = 5;
glyphname = L_U;
lastChange = "2023-03-26 15:48:02 +0000";
layers = (
{
layerId = m01;
shapes = (
{
attr = {
identifier = ID0x7fa2228ce940;
strokeWidth = 10;
};
closed = 0;
nodes = (
(523,3,l),
(31,-7,l)
);
},
{
attr = {
identifier = ID0x7fa2228ce940;
strokeWidth = 10;
};
closed = 0;
nodes = (
(108,-7,l),
(290,706,l)
);
},
{
attr = {
identifier = ID0x7fa2228ce940;
strokeWidth = 10;
};
closed = 0;
nodes = (
(436,713,l),
(149,707,l)
);
},
{
attr = {
identifier = ID0x7fa2228d08a0;
strokeWidth = 10;
};
closed = 0;
nodes = (
(657,716,l),
(532,240,l)
);
},
{
attr = {
identifier = ID0x7fa2228d08a0;
strokeWidth = 10;
};
closed = 0;
nodes = (
(558,715,l),
(776,710,l)
);
},
{
attr = {
identifier = ID0x7fa2228d08a0;
strokeWidth = 10;
};
closed = 0;
nodes = (
(938,715,l),
(1156,710,l)
);
},
{
attr = {
identifier = ID0x7fa2228d08a0;
strokeWidth = 10;
};
closed = 0;
nodes = (
(646,-10,l),
(909,108,l),
(1050,712,l)
);
}
);
width = 1069;
}
);
metricLeft = L;
metricRight = U;
script = latin;
subCategory = Ligature;
unicode = 995920;
},
{
category = QUNI;
color = 5;
glyphname = l_e;
lastChange = "2023-03-26 15:48:02 +0000";
layers = (
{
layerId = m01;
shapes = (
{
attr = {
identifier = ID0x7f800dec57e0;
strokeWidth = 10;
};
closed = 0;
nodes = (
(134,716,l),
(289,814,l),
(36,-8,l)
);
},
{
attr = {
identifier = ID0x7f800dec4600;
strokeWidth = 10;
};
closed = 0;
nodes = (
(102,204,l),
(327,364,l),
(345,515,l),
(165,411,l),
(36,-8,l),
(297,160,l)
);
}
);
width = 355;
}
);
metricLeft = l;
metricRight = e;
script = latin;
subCategory = Ligature;
unicode = 996112;
},
{
category = QUNI;
color = 5;
glyphname = l_l;
lastChange = "2023-03-26 15:48:02 +0000";
layers = (
{
layerId = m01;
shapes = (
{
attr = {
identifier = ID0x7f80000253d0;
strokeWidth = 10;
};
closed = 0;
nodes = (
(134,716,l),
(289,814,l),
(38,-5,l),
(591,603,l),
(620,636,l),
(534,814,l),
(283,-5,l),
(444,111,l)
);
}
);
width = 508;
}
);
metricLeft = l;
script = latin;
subCategory = Ligature;
unicode = 996128;
},
{
category = QUNI;
color = 5;
glyphname = l_u;
lastChange = "2023-03-26 16:11:12 +0000";
layers = (
{
layerId = m01;
shapes = (
{
attr = {
identifier = ID0x7fa222588100;
strokeWidth = 10;
};
closed = 0;
nodes = (
(131,705,l),
(290,811,l),
(48,-6,l),
(497,514,l),
(309,-4,l),
(492,120,l)
);
}
);
width = 536;
}
);
metricLeft = l;
metricRight = u;
script = latin;
subCategory = Ligature;
unicode = 996176;
},
{
category = QUNI;
color = 5;
glyphname = M_P;
lastChange = "2023-03-26 15:48:02 +0000";
layers = (
{
layerId = m01;
shapes = (
{
attr = {
identifier = ID0x7fa222bfe7b0;
strokeWidth = 10;
};
closed = 0;
nodes = (
(-334,-234,l),
(-153,-330,l),
(415,710,l),
(383,3,l),
(819,704,l)
);
},
{
attr = {
identifier = ID0x7fa222bfe7b0;
strokeWidth = 10;
};
closed = 0;
nodes = (
(819,704,l),
(719,-9,l)
);
},
{
attr = {
identifier = ID0x7fa222bfe7b0;
strokeWidth = 10;
};
closed = 0;
nodes = (
(590,-4,l),
(871,-11,l)
);
},
{
attr = {
identifier = ID0x7fa222bfe7b0;
strokeWidth = 10;
};
closed = 0;
nodes = (
(240,568,l),
(134,708,l),
(415,710,l)
);
},
{
attr = {
identifier = ID0x7fa222b884e0;
strokeWidth = 10;
};
closed = 0;
nodes = (
(648,704,l),
(819,704,l),
(1168,457,l),
(745,195,l)
);
}
);
width = 1169;
}
);
metricLeft = M;
metricRight = P;
script = latin;
subCategory = Ligature;
unicode = 996368;
},
{
category = QUNI;
color = 5;
glyphname = m_p;
lastChange = "2023-03-26 15:48:02 +0000";
layers = (
{
layerId = m01;
shapes = (
{
attr = {
identifier = ID0x7fa22259a620;
strokeWidth = 10;
};
closed = 0;
nodes = (
(58,453,l),
(190,516,l),
(40,-7,l),
(413,512,l),
(401,-4,l),
(687,505,l),
(946,135,l),
(664,-9,l)
);
},
{
attr = {
identifier = ID0x7fa22259a740;
strokeWidth = 10;
};
closed = 0;
nodes = (
(846,669,l),
(559,-404,l)
);
},
{
attr = {
identifier = ID0x7fa22259a740;
strokeWidth = 10;
};
closed = 0;
nodes = (
(397,-398,l),
(742,-413,l)
);
}
);
width = 1019;
}
);
metricLeft = m;
metricRight = p;
script = latin;
subCategory = Ligature;
unicode = 996624;
},
{
category = QUNI;
color = 5;
glyphname = N_N;
lastChange = "2023-03-26 15:48:02 +0000";
layers = (
{
layerId = m01;
shapes = (
{
attr = {
identifier = ID0x7fa20e5497a0;
strokeWidth = 10;
};
closed = 0;
nodes = (
(29,-5,l),
(219,-3,l)
);
},
{
attr = {
identifier = ID0x7fa20e5497a0;
strokeWidth = 10;
};
closed = 0;
nodes = (
(317,715,l),
(132,0,l)
);
},
{
attr = {
identifier = ID0x7fa20e5497a0;
strokeWidth = 10;
};
closed = 0;
nodes = (
(137,569,l),
(97,721,l),
(317,715,l),
(816,-209,l),
(996,-210,l)
);
},
{
attr = {
identifier = ID0x7fa20e5497a0;
strokeWidth = 10;
};
closed = 0;
nodes = (
(780,700,l),
(658,88,l)
);
},
{
attr = {
identifier = ID0x7fa20e5497a0;
strokeWidth = 10;
};
closed = 0;
nodes = (
(589,699,l),
(779,701,l),
(1272,-209,l),
(1452,-210,l)
);
},
{
attr = {
identifier = ID0x7fa20e5448b0;
strokeWidth = 10;
};
closed = 0;
nodes = (
(1236,700,l),
(1114,88,l)
);
},
{
attr = {
identifier = ID0x7fa20e5448b0;
strokeWidth = 10;
};
closed = 0;
nodes = (
(1119,699,l),
(1309,701,l)
);
}
);
width = 1292;
}
);
metricLeft = N;
metricRight = N;
script = latin;
subCategory = Ligature;
unicode = 996928;
},
{
category = QUNI;
color = 5;
glyphname = n_n;
lastChange = "2023-03-26 15:48:02 +0000";
layers = (
{
layerId = m01;
shapes = (
{
attr = {
identifier = ID0x7fa222564c70;
strokeWidth = 10;
};
closed = 0;
nodes = (
(38,377,l),
(245,512,l),
(74,-5,l),
(433,509,l),
(477,3,l),
(288,94,l),
(284,96,l),
(788,512,l),
(617,-5,l),
(976,509,l),
(1020,3,l)
);
}
);
width = 1096;
}
);
metricLeft = n;
metricRight = n;
script = latin;
subCategory = Ligature;
unicode = 997184;
},
{
category = QUNI;
color = 5;
glyphname = O_T;
lastChange = "2023-03-26 15:48:02 +0000";
layers = (
{
layerId = m01;
shapes = (
{
attr = {
identifier = ID0x7fa225daf7f0;
strokeWidth = 10;
};
closed = 1;
nodes = (
(56,341,l),
(467,709,l),
(677,365,l),
(260,-22,l)
);
},
{
attr = {
identifier = ID0x7fa225dac750;
strokeWidth = 10;
};
closed = 0;
nodes = (
(1127,508,l),
(1278,703,l),
(657,719,l),
(755,533,l)
);
},
{
attr = {
strokeWidth = 10;
};
closed = 0;
nodes = (
(302,559,l),
(715,0,l),
(993,713,l)
);
}
);
width = 1195;
}
);
metricLeft = O;
metricRight = T;
script = latin;
subCategory = Ligature;
unicode = 997440;
},
{
category = QUNI;
color = 5;
glyphname = o_t;
lastChange = "2023-03-26 15:48:02 +0000";
layers = (
{
layerId = m01;
shapes = (
{
ref = o;
},
{
attr = {
identifier = ID0x7fa222580be0;
strokeWidth = 10;
};
closed = 0;
nodes = (
(553,663,l),
(476,257,l),
(199,222,l),
(145,398,l)
);
},
{
attr = {
identifier = ID0x7fa222580be0;
strokeWidth = 10;
};
closed = 0;
nodes = (
(422,512,l),
(665,512,l)
);
}
);
width = 606;
}
);
metricLeft = o;
metricRight = t;
script = latin;
subCategory = Ligature;
unicode = 997696;
},
{
category = QUNI;
color = 5;
glyphname = P_M;
lastChange = "2023-03-26 15:48:02 +0000";
layers = (
{
layerId = m01;
shapes = (
{
attr = {
identifier = ID0x7fa222dc1ed0;
strokeWidth = 10;
};
closed = 0;
nodes = (
(107,573,l),
(82,697,l),
(295,700,l),
(502,357,l),
(169,185,l)
);
},
{
attr = {
identifier = ID0x7fa222dc1ed0;
strokeWidth = 10;
};
closed = 0;
nodes = (
(295,700,l),
(121,-7,l)
);
},
{
attr = {
identifier = ID0x7fa222dc1ed0;
strokeWidth = 10;
};
closed = 0;
nodes = (
(373,-5,l),
(-13,-10,l)
);
},
{
attr = {
identifier = ID0x7fa222dd2a60;
strokeWidth = 10;
};
closed = 0;
nodes = (
(1042,697,l),
(992,-9,l)
);
},
{
attr = {
identifier = ID0x7fa222dd2a60;
strokeWidth = 10;
};
closed = 0;
nodes = (
(863,-4,l),
(1104,-11,l)
);
},
{
attr = {
identifier = ID0x7fa222dd2a60;
strokeWidth = 10;
};
closed = 0;
nodes = (
(505,357,l),
(688,710,l),
(656,3,l),
(1042,697,l),
(1200,709,l)
);
}
);
width = 1155;
}
);
metricLeft = P;
metricRight = M;
script = latin;
subCategory = Ligature;
unicode = 999440;
},
{
category = QUNI;
color = 5;
glyphname = p_m;
lastChange = "2023-03-26 15:48:02 +0000";
layers = (
{
layerId = m01;
shapes = (
{
ref = p;
},
{
attr = {
identifier = ID0x7fa22259a170;
strokeWidth = 10;
};
closed = 0;
nodes = (
(329,241,l),
(552,512,l),
(550,-4,l),
(841,498,l),
(858,335,o),
(893,18,o),
(893,9,c)
);
}
);
width = 968;
}
);
metricLeft = p;
metricRight = m;
script = latin;
subCategory = Ligature;
unicode = 999696;
},
{
category = QUNI;
color = 5;
glyphname = R_I;
lastChange = "2023-03-26 15:48:02 +0000";
layers = (
{
layerId = m01;
shapes = (
{
attr = {
identifier = ID0x7fa222ba2630;
strokeWidth = 10;
};
closed = 0;
nodes = (
(86,553,l),
(61,677,l),
(299,700,l),
(653,524,l),
(198,293,l)
);
},
{
attr = {
identifier = ID0x7fa222ba2630;
strokeWidth = 10;
};
closed = 0;
nodes = (
(299,700,l),
(125,0,l)
);
},
{
attr = {
identifier = ID0x7fa222ba2630;
strokeWidth = 10;
};
closed = 0;
nodes = (
(237,-5,l),
(-9,-4,l)
);
},
{
attr = {
identifier = ID0x7fa222ba2630;
strokeWidth = 10;
};
closed = 0;
nodes = (
(316,354,l),
(628,-152,l),
(847,713,l)
);
},
{
attr = {
identifier = ID0x7fa222ba2750;
strokeWidth = 10;
};
closed = 0;
nodes = (
(731,713,l),
(932,714,l)
);
}
);
width = 814;
}
);
metricLeft = R;
metricRight = I;
script = latin;
subCategory = Ligature;
unicode = 1000560;
},
{
category = QUNI;
color = 5;
glyphname = R_S;
lastChange = "2023-03-26 15:48:02 +0000";
layers = (
{
layerId = m01;
shapes = (
{
attr = {
identifier = ID0x7fa22226d420;
strokeWidth = 10;
};
closed = 0;
nodes = (
(86,553,l),
(61,677,l),
(299,700,l),
(653,524,l),
(198,293,l)
);
},
{
attr = {
identifier = ID0x7fa22226d420;
strokeWidth = 10;
};
closed = 0;
nodes = (
(299,700,l),
(125,0,l)
);
},
{
attr = {
identifier = ID0x7fa22226d420;
strokeWidth = 10;
};
closed = 0;
nodes = (
(237,-5,l),
(-9,-4,l)
);
},
{
attr = {
identifier = ID0x7fa22226d420;
strokeWidth = 10;
};
closed = 0;
nodes = (
(316,354,l),
(685,-81,l),
(1059,170,l),
(750,521,l),
(951,722,l),
(1134,614,l),
(1132,453,l)
);
}
);
width = 1134;
}
);
metricLeft = R;
metricRight = S;
script = latin;
subCategory = Ligature;
unicode = 1000640;
},
{
category = QUNI;
color = 5;
glyphname = r_i;
lastChange = "2023-03-26 15:48:02 +0000";
layers = (
{
layerId = m01;
shapes = (
{
attr = {
identifier = ID0x7fa22259abf0;
strokeWidth = 10;
};
closed = 0;
nodes = (
(27,433,l),
(184,516,l),
(80,5,l),
(510,773,l),
(599,619,l)
);
},
{
attr = {
identifier = ID0x7fa22259ad10;
strokeWidth = 10;
};
closed = 0;
nodes = (
(427,412,l),
(564,519,l),
(357,-11,l),
(496,85,l)
);
}
);
width = 599;
}
);
metricLeft = r;
script = latin;
subCategory = Ligature;
unicode = 1000816;
},
{
category = QUNI;
color = 5;
glyphname = r_s;
lastChange = "2023-03-26 15:48:02 +0000";
layers = (
{
layerId = m01;
shapes = (
{
attr = {
identifier = ID0x7fa22259b1c0;
strokeWidth = 10;
};
closed = 0;
nodes = (
(51,433,l),
(208,516,l),
(84,-5,l)
);
},
{
attr = {
identifier = ID0x7fa22259b2e0;
strokeWidth = 10;
};
closed = 0;
nodes = (
(418,335,l),
(304,516,l),
(163,318,l),
(313,69,l),
(43,-178,l),
(-31,137,l)
);
}
);
width = 433;
}
);
metricRight = s;
script = latin;
subCategory = Ligature;
unicode = 1000896;
},
{
category = QUNI;
color = 5;
glyphname = S_C;
lastChange = "2023-03-26 15:48:02 +0000";
layers = (
{
layerId = m01;
shapes = (
{
attr = {
identifier = ID0x7fa20e5372a0;
strokeWidth = 10;
};
closed = 0;
nodes = (
(523,429,l),
(528,614,l),
(345,722,l),
(144,500,l),
(503,241,l),
(265,-10,l),
(42,162,l),
(89,304,l)
);
},
{
attr = {
identifier = ID0x7fa222293e30;
strokeWidth = 10;
};
closed = 0;
nodes = (
(894,525,l),
(721,716,l),
(589,551,l)
);
},
{
attr = {
identifier = ID0x7fa222293e30;
strokeWidth = 10;
};
closed = 0;
nodes = (
(516,132,l),
(580,-12,l),
(855,134,l)
);
}
);
width = 839;
}
);
metricLeft = S;
metricRight = C;
script = latin;
subCategory = Ligature;
unicode = 1000976;
},
{
category = QUNI;
color = 5;
glyphname = S_L;
lastChange = "2023-03-26 15:48:02 +0000";
layers = (
{
layerId = m01;
shapes = (
{
attr = {
identifier = ID0x7fa223d88680;
strokeWidth = 10;
};
closed = 0;
nodes = (
(499,453,l),
(551,584,l),
(368,722,l),
(147,541,l),
(476,170,l),
(238,-10,l),
(35,172,l),
(82,314,l)
);
},
{
attr = {
identifier = ID0x7fa223d887a0;
strokeWidth = 10;
};
closed = 0;
nodes = (
(621,143,l),
(653,-11,l),
(243,-11,l),
(368,722,l)
);
}
);
width = 682;
}
);
metricRight = L;
script = latin;
subCategory = Ligature;
unicode = 1001056;
},
{
category = QUNI;
color = 5;
glyphname = S_S;
lastChange = "2023-03-26 15:48:02 +0000";
layers = (
{
layerId = m01;
shapes = (
{
ref = S;
},
{
pos = (567,0);
ref = S;
},
{
attr = {
strokeWidth = 10;
};
closed = 0;
nodes = (
(85,301,l),
(1097,458,l)
);
}
);
width = 1144;
}
);
metricLeft = S;
metricRight = S;
script = latin;
subCategory = Ligature;
unicode = 1001104;
},
{
category = QUNI;
color = 5;
glyphname = S_T;
lastChange = "2023-03-26 15:48:02 +0000";
layers = (
{
layerId = m01;
shapes = (
{
attr = {
identifier = ID0x7fa223da9610;
strokeWidth = 10;
};
closed = 0;
nodes = (
(1016,498,l),
(1147,703,l),
(425,722,l),
(174,531,l),
(503,250,l),
(265,-10,l),
(42,162,l),
(89,304,l)
);
},
{
attr = {
identifier = ID0x7fa223da9610;
strokeWidth = 10;
};
closed = 0;
nodes = (
(634,0,l),
(792,713,l)
);
},
{
attr = {
identifier = ID0x7fa223da9610;
strokeWidth = 10;
};
closed = 0;
nodes = (
(503,-1,l),
(800,-7,l)
);
}
);
width = 1063;
}
);
metricLeft = S;
metricRight = T;
script = latin;
subCategory = Ligature;
unicode = 1001152;
},
{
category = QUNI;
color = 5;
glyphname = s_c;
lastChange = "2023-03-26 15:48:02 +0000";
layers = (
{
layerId = m01;
shapes = (
{
attr = {
identifier = ID0x7fa22259b790;
strokeWidth = 10;
};
closed = 0;
nodes = (
(-12,87,l),
(98,-16,l),
(220,62,l),
(98,427,l),
(206,500,l),
(305,435,l),
(228,644,l),
(585,624,l),
(586,414,l),
(457,519,l),
(298,-10,l),
(531,146,l)
);
}
);
width = 579;
}
);
metricLeft = s;
script = latin;
subCategory = Ligature;
unicode = 1001232;
},
{
category = QUNI;
color = 5;
glyphname = s_l;
lastChange = "2023-03-26 15:48:02 +0000";
layers = (
{
layerId = m01;
shapes = (
{
attr = {
identifier = ID0x7fa22259bd60;
strokeWidth = 10;
};
closed = 0;
nodes = (
(307,435,l),
(236,500,l),
(100,427,l),
(222,62,l),
(90,-16,l),
(-10,87,l)
);
},
{
attr = {
identifier = ID0x7fa22259be80;
strokeWidth = 10;
};
closed = 0;
nodes = (
(178,716,l),
(333,814,l),
(89,-9,l)
);
}
);
width = 314;
}
);
metricLeft = s;
metricRight = s;
script = latin;
subCategory = Ligature;
unicode = 1001312;
},
{
category = QUNI;
color = 5;
glyphname = s_s;
lastChange = "2023-03-26 15:48:02 +0000";
layers = (
{
layerId = m01;
shapes = (
{
attr = {
identifier = 0x600005ae3ed0;
strokeWidth = 10;
};
closed = 0;
nodes = (
(292,435,l),
(193,500,l),
(85,427,l),
(207,62,l),
(85,-16,l),
(5,127,l),
(554,375,l),
(495,500,l),
(387,427,l),
(509,62,l),
(387,-16,l),
(277,87,l)
);
}
);
width = 601;
}
);
metricLeft = s;
metricRight = s;
script = latin;
subCategory = Ligature;
unicode = 1001360;
},
{
category = QUNI;
color = 5;
glyphname = s_t;
lastChange = "2023-03-26 15:48:02 +0000";
layers = (
{
layerId = m01;
shapes = (
{
attr = {
identifier = 0x60000abd9ec0;
strokeWidth = 10;
};
closed = 0;
nodes = (
(-12,87,l),
(98,-16,l),
(220,62,l),
(98,427,l),
(186,500,l),
(295,425,l),
(203,653,l),
(569,693,l),
(366,-6,l),
(601,150,l)
);
},
{
attr = {
identifier = 0x60000f4639f0;
strokeWidth = 10;
};
closed = 0;
nodes = (
(382,488,l),
(664,502,l)
);
}
);
width = 642;
}
);
metricLeft = s;
metricRight = t;
script = latin;
subCategory = Ligature;
unicode = 1001408;
},
{
category = QUNI;
color = 5;
glyphname = T_T;
lastChange = "2023-03-26 15:48:02 +0000";
layers = (
{
layerId = m01;
shapes = (
{
attr = {
identifier = 0x60000825cbd0;
strokeWidth = 10;
};
closed = 0;
nodes = (
(297,0,l),
(455,713,l)
);
},
{
attr = {
identifier = 0x60000825cbd0;
strokeWidth = 10;
};
closed = 0;
nodes = (
(136,-1,l),
(463,-7,l)
);
},
{
attr = {
identifier = 0x600008225740;
strokeWidth = 10;
};
closed = 0;
nodes = (
(1265,498,l),
(1396,703,l),
(109,719,l),
(187,513,l)
);
},
{
attr = {
identifier = 0x600008225740;
strokeWidth = 10;
};
closed = 0;
nodes = (
(883,0,l),
(1041,713,l)
);
},
{
attr = {
identifier = 0x600008225740;
strokeWidth = 10;
};
closed = 0;
nodes = (
(722,-1,l),
(1049,-7,l)
);
}
);
width = 1312;
}
);
metricLeft = T;
metricRight = T;
script = latin;
subCategory = Ligature;
unicode = 1001584;
},
{
category = QUNI;
color = 5;
glyphname = t_t;
lastChange = "2023-03-26 15:48:02 +0000";
layers = (
{
layerId = m01;
shapes = (
{
attr = {
identifier = ID0x7fa22259c330;
strokeWidth = 10;
};
closed = 0;
nodes = (
(257,663,l),
(61,-6,l),
(466,246,l)
);
},
{
attr = {
identifier = ID0x7fa22259c330;
strokeWidth = 10;
};
closed = 0;
nodes = (
(59,482,l),
(691,504,l)
);
},
{
attr = {
identifier = ID0x7fa22259c450;
strokeWidth = 10;
};
closed = 0;
nodes = (
(587,663,l),
(391,-6,l),
(626,150,l)
);
}
);
width = 667;
}
);
metricLeft = t;
metricRight = t;
script = latin;
subCategory = Ligature;
unicode = 1001840;
},
{
category = QUNI;
color = 5;
glyphname = U_L_L;
lastChange = "2023-03-26 15:48:02 +0000";
layers = (
{
layerId = m01;
shapes = (
{
attr = {
identifier = ID0x7fa223da9ac0;
strokeWidth = 10;
};
closed = 0;
nodes = (
(225,716,l),
(88,195,l),
(214,-10,l),
(474,111,l)
);
},
{
attr = {
identifier = ID0x7fa223da9ac0;
strokeWidth = 10;
};
closed = 0;
nodes = (
(126,715,l),
(344,710,l)
);
},
{
attr = {
identifier = ID0x7fa223da9ac0;
strokeWidth = 10;
};
closed = 0;
nodes = (
(506,715,l),
(724,710,l)
);
},
{
attr = {
identifier = ID0x7f800981a780;
strokeWidth = 10;
};
closed = 0;
nodes = (
(943,-11,l),
(438,-7,l),
(620,706,l)
);
},
{
attr = {
identifier = ID0x7f800e8f2740;
strokeWidth = 10;
};
closed = 0;
nodes = (
(970,274,l),
(990,175,l),
(676,175,l)
);
},
{
attr = {
identifier = ID0x7f800e8f2740;
strokeWidth = 10;
};
closed = 0;
nodes = (
(725,178,l),
(867,713,l)
);
},
{
attr = {
identifier = ID0x7f800e8f2740;
strokeWidth = 10;
};
closed = 0;
nodes = (
(961,718,l),
(777,714,l)
);
}
);
width = 969;
}
);
metricLeft = U;
metricRight = L;
script = latin;
subCategory = Ligature;
unicode = 1003616;
},
{
category = QUNI;
color = 5;
glyphname = u_l_l;
lastChange = "2023-03-26 16:11:12 +0000";
layers = (
{
layerId = m01;
shapes = (
{
attr = {
identifier = ID0x7fa22259c900;
strokeWidth = 10;
};
closed = 0;
nodes = (
(40,384,l),
(209,520,l),
(65,-6,l),
(498,514,l)
);
},
{
attr = {
identifier = ID0x7f80000253d0;
strokeWidth = 10;
};
closed = 0;
nodes = (
(435,716,l),
(590,814,l),
(339,-5,l),
(892,603,l),
(921,636,l),
(835,814,l),
(584,-5,l),
(745,111,l)
);
}
);
width = 809;
}
);
metricLeft = u;
metricRight = l_l;
script = latin;
subCategory = Ligature;
unicode = 1003872;
},
{
category = QUNI;
color = 5;
glyphname = X_C;
lastChange = "2023-03-26 15:48:02 +0000";
layers = (
{
layerId = m01;
shapes = (
{
attr = {
identifier = ID0x7fa223d89100;
strokeWidth = 10;
};
closed = 0;
nodes = (
(192,712,l),
(519,-19,l),
(818,134,l)
);
},
{
attr = {
identifier = ID0x7fa223d89100;
strokeWidth = 10;
};
closed = 0;
nodes = (
(22,-10,l),
(654,716,l),
(855,530,l)
);
},
{
attr = {
identifier = ID0x7fa223d89100;
strokeWidth = 10;
};
closed = 0;
nodes = (
(100,712,l),
(307,708,l)
);
},
{
attr = {
identifier = ID0x7fa223d89100;
strokeWidth = 10;
};
closed = 0;
nodes = (
(-90,-10,l),
(144,-14,l)
);
}
);
width = 802;
}
);
metricLeft = X;
metricRight = C;
script = latin;
subCategory = Ligature;
unicode = 1005072;
},
{
category = QUNI;
color = 5;
glyphname = X_S;
lastChange = "2023-03-26 15:48:02 +0000";
layers = (
{
layerId = m01;
shapes = (
{
attr = {
identifier = ID0x7fa223d896d0;
strokeWidth = 10;
};
closed = 0;
nodes = (
(192,712,l),
(548,-10,l),
(872,220,l),
(523,521,l),
(724,722,l),
(907,614,l),
(905,453,l)
);
},
{
attr = {
identifier = ID0x7fa223d896d0;
strokeWidth = 10;
};
closed = 0;
nodes = (
(22,-10,l),
(360,365,l)
);
},
{
attr = {
identifier = ID0x7fa223d896d0;
strokeWidth = 10;
};
closed = 0;
nodes = (
(100,712,l),
(307,708,l)
);
},
{
attr = {
identifier = ID0x7fa223d896d0;
strokeWidth = 10;
};
closed = 0;
nodes = (
(-90,-10,l),
(144,-14,l)
);
}
);
width = 933;
}
);
metricLeft = X;
metricRight = S;
script = latin;
subCategory = Ligature;
unicode = 1005216;
},
{
category = QUNI;
color = 5;
glyphname = x_c;
lastChange = "2023-03-26 15:48:02 +0000";
layers = (
{
layerId = m01;
shapes = (
{
attr = {
identifier = ID0x7fa22259ced0;
strokeWidth = 10;
};
closed = 0;
nodes = (
(59,356,l),
(142,516,l),
(298,-19,l),
(483,107,l)
);
},
{
attr = {
identifier = ID0x7fa22259ced0;
strokeWidth = 10;
};
closed = 0;
nodes = (
(-32,98,l),
(28,-11,l),
(441,523,l),
(540,345,l)
);
}
);
width = 540;
}
);
metricLeft = x;
metricRight = c;
script = latin;
subCategory = Ligature;
unicode = 1005328;
},
{
category = QUNI;
color = 5;
glyphname = x_s;
lastChange = "2023-03-26 15:48:02 +0000";
layers = (
{
layerId = m01;
shapes = (
{
attr = {
identifier = ID0x7fa22259d5f0;
strokeWidth = 10;
};
closed = 0;
nodes = (
(88,356,l),
(176,516,l),
(303,-19,l),
(478,110,l),
(333,377,l),
(452,511,l),
(530,385,l)
);
},
{
attr = {
identifier = ID0x7fa22259d5f0;
strokeWidth = 10;
};
closed = 0;
nodes = (
(-12,98,l),
(44,-11,l),
(240,250,l)
);
}
);
width = 527;
}
);
script = latin;
subCategory = Ligature;
unicode = 1005472;
},
{
glyphname = ornament;
lastChange = "2023-03-26 15:48:02 +0000";
layers = (
{
layerId = m01;
shapes = (
{
attr = {
strokeWidth = 10;
};
closed = 0;
nodes = (
(275,466,l),
(360,536,l),
(479,446,l),
(198,299,l),
(134,522,l),
(390,704,l),
(1560,-21,l),
(1294,-259,l),
(1002,-21,l),
(2402,704,l),
(2585,522,l),
(2376,299,l),
(2222,480,l),
(2370,569,l),
(2418,466,l)
);
},
{
attr = {
strokeWidth = 10;
};
closed = 0;
nodes = (
(640,771,l),
(1294,379,l),
(2154,771,l)
);
}
